<svg width="170" height="80" viewBox="0 0 170 80" fill="none" xmlns="http://www.w3.org/2000/svg">
<path d="M169.513 35.0205C167.665 49.6855 152.05 57.8111 139.796 53.9347C129.002 50.5202 122.644 44.6957 128.291 24.931C132.353 10.6974 145.721 -1.51114 156.633 1.45607C167.545 4.42328 171.485 19.439 169.513 35.0205Z" fill="#B7CD1A"/>
<path d="M153.445 34.9981C153.446 37.0815 152.829 39.1184 151.672 40.851C150.515 42.5836 148.87 43.9343 146.946 44.7321C145.021 45.5299 142.903 45.7392 140.859 45.3333C138.816 44.9274 136.939 43.9245 135.465 42.4517C133.991 40.9789 132.986 39.1022 132.579 37.0589C132.172 35.0156 132.382 32.8974 133.178 30.9723C133.975 29.0472 135.323 27.4017 137.055 26.2436C138.787 25.0856 140.824 24.467 142.907 24.4663C144.291 24.4657 145.66 24.7375 146.939 25.2665C148.217 25.7955 149.38 26.5712 150.359 27.5493C151.338 28.5273 152.114 29.6886 152.643 30.9667C153.173 32.2448 153.445 33.6146 153.445 34.9981Z" fill="#9F5920"/>
<path d="M145.91 5.11241C141.532 5.11241 136.852 7.29383 132.46 11.4379C127.28 16.3949 123.634 22.7363 121.957 29.7068C120.54 36.0274 121.281 41.7712 124.108 46.3173C125.558 48.5583 127.448 50.4814 129.664 51.9697C131.881 53.4581 134.376 54.4808 136.999 54.9758C139.614 55.619 142.335 55.6877 144.979 55.1771C147.622 54.6665 150.125 53.5888 152.311 52.0183C157.075 48.3566 160.332 43.0757 161.465 37.1749C162.991 30.456 162.574 23.4415 160.262 16.9507C157.887 10.6533 153.774 6.56302 148.678 5.41549C147.769 5.2125 146.839 5.11086 145.907 5.11241H145.91ZM141.477 59.6967C139.66 59.6923 137.85 59.4874 136.078 59.0856C132.913 58.456 129.905 57.1981 127.235 55.3864C124.564 53.5747 122.285 51.246 120.53 48.5378C117.108 43.0385 116.175 36.2022 117.84 28.7805C119.71 20.9946 123.779 13.9105 129.562 8.3717C135.947 2.34806 143.06 -0.16209 149.604 1.30196C156.149 2.76602 161.32 7.79366 164.207 15.4634C166.804 22.7246 167.28 30.5747 165.58 38.0964C164.226 45.0112 160.378 51.1872 154.767 55.4499C150.895 58.2281 146.245 59.7149 141.48 59.6991L141.477 59.6967Z" fill="#1A1A1A"/>
<path d="M85.4099 57.7399C83.798 57.6842 82.2196 57.2609 80.7961 56.5025C79.3726 55.7441 78.1409 54.6705 77.1955 53.3637C74.7122 50.2303 72.8389 45.7183 71.1328 41.3665C68.6141 34.9445 66.2073 28.6666 63.8755 22.5953C61.5438 16.524 59.1392 10.2597 56.6278 3.85106C56.4237 3.33037 56.4349 2.74995 56.6588 2.23749C56.8827 1.72504 57.3005 1.32252 57.8212 1.11849C58.3419 0.914457 58.9223 0.925627 59.4347 1.14954C59.9472 1.37345 60.3502 1.79177 60.5542 2.31246C63.0717 8.7345 65.4798 15.0123 67.8103 21.0836C70.1408 27.1549 72.5455 33.4193 75.0569 39.8279C76.307 43.0188 78.1978 47.8423 80.4989 50.7423C81.0991 51.6527 81.9322 52.3862 82.9109 52.867C83.8895 53.3478 84.979 53.5585 86.0663 53.4773C88.4213 53.1486 90.611 51.0625 91.9321 47.8973C96.059 37.9606 99.1072 28.7644 102.055 19.8713C104 13.9992 105.843 8.4522 107.936 2.81107C108.029 2.54762 108.174 2.30535 108.362 2.09834C108.55 1.89133 108.776 1.72373 109.029 1.6053C109.282 1.48687 109.557 1.41996 109.836 1.40849C110.115 1.39701 110.394 1.44119 110.656 1.53846C110.918 1.63572 111.158 1.78412 111.362 1.97503C111.567 2.16593 111.73 2.39552 111.845 2.65043C111.959 2.90535 112.021 3.18048 112.028 3.45983C112.036 3.73917 111.988 4.01715 111.886 4.27757C109.809 9.84903 107.99 15.3606 106.055 21.1961C103.081 30.1625 100.009 39.4332 95.8239 49.5129C93.9003 54.1409 90.5557 57.1069 86.6487 57.652C86.2385 57.709 85.8253 57.7376 85.4111 57.7375L85.4099 57.7399Z" fill="#1A1A1A"/>
<path d="M14.7713 29.9685C13.7472 30.1836 12.7353 30.4084 11.7381 30.6858C13.5871 24.9738 15.5998 19.1738 18.1955 12.2715C18.7725 10.6271 19.7675 9.16121 21.0827 8.01787C22.3979 6.87453 23.988 6.09313 25.6967 5.7505C26.7774 5.54841 27.893 5.64896 28.9202 6.04103C29.9474 6.4331 30.8462 7.10144 31.5174 7.97225C33.8186 10.8722 35.708 15.6958 36.9594 18.8867C37.9598 21.4392 38.944 23.9685 39.9119 26.4746C31.4621 27.0668 23.0624 28.2341 14.7713 29.9685ZM55.3896 54.8635C52.8782 48.4549 50.4707 42.1844 48.1426 36.1192C45.8146 30.054 43.401 23.7762 40.8847 17.3493C39.1738 12.9962 37.3064 8.4843 34.8207 5.35211C33.6875 3.89481 32.1784 2.77405 30.4558 2.1104C28.7331 1.44676 26.8621 1.26534 25.0441 1.58565C22.6002 2.04909 20.3193 3.14152 18.4264 4.75523C16.5334 6.36894 15.0938 8.44819 14.2494 10.7879C8.60465 25.8 5.69487 35.6145 1.29538 50.4726C0.910018 51.7973 0.507139 53.1632 0.0867427 54.5702C0.00225874 54.8372 -0.0281803 55.1183 -0.00279688 55.3972C0.0225866 55.6761 0.103284 55.9472 0.234582 56.1945C0.36588 56.4419 0.545148 56.6606 0.761915 56.8379C0.978683 57.0152 1.2286 57.1476 1.49709 57.2272C1.76557 57.3068 2.04723 57.3322 2.32562 57.3018C2.604 57.2714 2.87354 57.1858 3.11849 57.05C3.36343 56.9143 3.57887 56.7311 3.75223 56.5111C3.92559 56.2912 4.05339 56.0389 4.12816 55.7691C4.54693 54.3588 4.95185 52.9917 5.34291 51.6678C7.08438 45.7834 8.5912 40.6947 10.1261 35.7624C11.8849 34.9779 13.7354 34.4179 15.6341 34.0954C24.1611 32.3119 32.805 31.1422 41.4994 30.5954C42.4135 32.9687 43.315 35.3143 44.2039 37.6322C46.5356 43.7035 48.9455 49.9752 51.4618 56.4021C51.5616 56.6615 51.7117 56.8986 51.9035 57.0998C52.0953 57.301 52.325 57.4623 52.5794 57.5743C52.8337 57.6864 53.1078 57.7471 53.3857 57.7528C53.6636 57.7586 53.9398 57.7093 54.1986 57.6079C54.4574 57.5065 54.6936 57.3548 54.8936 57.1618C55.0935 56.9687 55.2533 56.738 55.3638 56.4829C55.4743 56.2279 55.5332 55.9535 55.5372 55.6755C55.5412 55.3976 55.4902 55.1216 55.3871 54.8635H55.3896Z" fill="#1A1A1A"/>
<path d="M47.7969 72.8555H46.6966L44.7596 75.4214H44.0376V72.8555H43.1819V79.0136H44.0376V76.2377H44.7709L46.8959 79.0136H47.9962L45.5431 75.8212L47.7969 72.8555Z" fill="#1A1A1A"/>
<path d="M51.2557 79.0121H52.1102V72.854H51.2557V79.0121Z" fill="#1A1A1A"/>
<path d="M55.6101 73.6686H57.4504V79.0092H58.318V73.6686H60.1595V72.8511H55.6101V73.6686Z" fill="#1A1A1A"/>
<path d="M68.1837 76.8058C68.0495 77.2364 67.778 77.6113 67.4104 77.8727C66.9635 78.163 66.4313 78.2946 65.9007 78.2462C65.37 78.1979 64.8711 77.9728 64.484 77.6066C64.0731 77.1467 63.8456 76.5513 63.8456 75.9345C63.8456 75.3178 64.0731 74.7224 64.484 74.2625C64.6963 74.0468 64.9513 73.8784 65.2323 73.7661C65.5133 73.6537 65.8142 73.6009 66.1167 73.6109C66.5667 73.6032 67.0088 73.7307 67.3853 73.9773C67.7434 74.2211 68.0145 74.5716 68.1598 74.9798L68.1718 75.0144H69.0489L69.0298 74.9488C68.9288 74.5267 68.7321 74.1334 68.4534 73.8007C68.1748 73.468 67.8224 73.2045 67.4247 73.0309C67.0129 72.8507 66.5673 72.7598 66.1179 72.7636C65.6994 72.7511 65.2826 72.8242 64.8934 72.9784C64.5042 73.1326 64.1514 73.3653 63.8551 73.661C63.4005 74.1049 63.0886 74.6748 62.9612 75.2972C62.8338 75.9197 62.8966 76.5651 63.1402 77.1519C63.3839 77.7386 63.7981 78.2396 64.3289 78.5888C64.8597 78.9379 65.4826 79.1202 66.1179 79.1115C66.7977 79.1261 67.4625 78.9108 68.0047 78.5004C68.5383 78.0857 68.9134 77.4997 69.0668 76.8416L69.0847 76.7747H68.1992L68.1837 76.8058Z" fill="#1A1A1A"/>
<path d="M76.5615 75.4294H73.5301V72.854H72.6744V79.0121H73.5301V76.2625H76.5591V79.0121H77.4148V72.854H76.5591L76.5615 75.4294Z" fill="#1A1A1A"/>
<path d="M82.4269 76.2529H84.8711V75.445H82.4269V73.6787H85.0978V72.854H81.5676V79.0121H85.1933V78.1779H82.4269V76.2529Z" fill="#1A1A1A"/>
<path d="M93.02 77.4096L89.7202 72.8769L89.7011 72.853H88.9385V79.01H89.7799V74.4021L93.1322 78.9873L93.1465 79.01H93.8698V72.853H93.0141L93.02 77.4096Z" fill="#1A1A1A"/>
<path d="M100.786 73.9429H99.9502V75.5946H98.3271V76.3846H99.9502V78.0769H100.786V76.3846H102.402V75.5946H100.786V73.9429Z" fill="#1A1A1A"/>
<path d="M109.925 75.1632C109.841 75.2441 109.74 75.3074 109.631 75.3494C109.522 75.3913 109.407 75.4113 109.29 75.4079H107.71V73.6965H109.28C109.442 73.6944 109.601 73.732 109.744 73.8063C109.875 73.8779 109.985 73.9829 110.063 74.1106C110.14 74.2438 110.18 74.3959 110.178 74.5498C110.182 74.6641 110.162 74.7781 110.118 74.8839C110.075 74.9897 110.008 75.0848 109.925 75.1632ZM107.71 76.2636H109.328C109.592 76.2561 109.848 76.3533 110.039 76.5345C110.132 76.619 110.205 76.7223 110.254 76.8376C110.304 76.9529 110.329 77.0774 110.326 77.2028C110.329 77.3299 110.306 77.4568 110.257 77.5739C110.207 77.6911 110.133 77.7954 110.039 77.8819C109.847 78.0625 109.592 78.1609 109.328 78.154H107.71V76.2636ZM110.374 75.8136C110.573 75.6716 110.737 75.4836 110.849 75.2658C110.985 75.0173 111.057 74.7388 111.059 74.4555C111.063 74.2402 111.02 74.0266 110.935 73.8289C110.849 73.6313 110.722 73.4549 110.562 73.311C110.217 73.0023 109.765 72.839 109.302 72.8551H106.858V79.012H109.331C109.825 79.0265 110.305 78.8511 110.674 78.5227C110.847 78.3697 110.984 78.181 111.078 77.9702C111.172 77.7594 111.221 77.5314 111.219 77.3006C111.22 76.9774 111.132 76.66 110.966 76.3829C110.829 76.1403 110.625 75.9425 110.378 75.8124L110.374 75.8136Z" fill="#1A1A1A"/>
<path d="M118.255 76.761H116.079L117.16 74.0937L118.255 76.761ZM117.53 72.8501H116.749L114.231 79.0082H115.155L115.754 77.557H118.58L119.191 79.0094H120.132L117.549 72.8823L117.53 72.8501Z" fill="#1A1A1A"/>
<path d="M127.051 74.7475C127.055 74.8916 127.027 75.035 126.97 75.1676C126.914 75.3002 126.83 75.4187 126.724 75.5161C126.488 75.7219 126.18 75.8292 125.867 75.8156H124.418V73.677H125.867C126.181 73.6641 126.488 73.7723 126.724 73.9789C126.831 74.0761 126.914 74.1948 126.97 74.3274C127.027 74.4601 127.055 74.6034 127.051 74.7475ZM126.626 76.5329C126.994 76.4208 127.317 76.1955 127.55 75.8896C127.827 75.5206 127.961 75.0632 127.925 74.6031C127.889 74.1431 127.685 73.7121 127.354 73.3906C126.96 73.0292 126.44 72.837 125.906 72.8535H123.559V79.0105H124.414V76.6427H125.712L127.097 79.0105H128.075L126.626 76.5329Z" fill="#1A1A1A"/>
</svg>
