<svg viewBox="0 0 170 42" fill="none" xmlns="http://www.w3.org/2000/svg">
<g clip-path="url(#clip0_320_440)">
<path fill-rule="evenodd" clip-rule="evenodd" d="M28.7163 38.261C32.9355 38.2595 37.0172 36.7388 40.234 33.9696C43.4508 31.2003 45.5939 27.3627 46.2813 23.1403C46.3805 22.5702 46.5416 22.6708 46.7772 22.8888C47.1904 23.3961 48.6535 25.1609 48.914 25.4375C50.4845 27.1353 52.5137 28.4642 54.3611 28.4642C54.9938 28.4628 55.6105 28.2621 56.1258 27.8899C56.624 27.4849 57.003 26.9492 57.2216 26.3408C57.4403 25.7325 57.4901 25.0749 57.3658 24.4399C57.1425 23.1823 56.2292 21.1407 56.2292 20.2059C56.2292 19.2711 57.1425 17.2337 57.3658 15.9719C57.4896 15.3369 57.4396 14.6796 57.221 14.0712C57.0024 13.463 56.6236 12.9272 56.1258 12.5219C55.6096 12.1514 54.9935 11.9509 54.3611 11.9476C52.1004 11.9476 49.5628 13.943 47.9344 16.1606C47.8739 16.2458 47.8364 16.3456 47.8256 16.4499C47.8147 16.5543 47.8308 16.6597 47.8724 16.7559C49.6785 20.885 52.1789 23.7985 54.3529 24.1589C54.4614 24.1766 54.5654 24.2158 54.6591 24.2742C54.7527 24.3325 54.8341 24.4091 54.8986 24.4994C54.963 24.5897 55.0094 24.6921 55.0349 24.8005C55.0604 24.909 55.0646 25.0215 55.0472 25.1315C55.0298 25.2416 54.9912 25.3472 54.9337 25.4422C54.8761 25.5371 54.8006 25.6197 54.7115 25.6851C54.6226 25.7505 54.5216 25.7975 54.4148 25.8233C54.3078 25.8491 54.1969 25.8534 54.0884 25.8358C51.373 25.3872 48.6784 22.3942 46.7193 18.2525C46.4837 17.83 46.3136 17.3733 46.2151 16.8984C45.4431 12.7246 43.2458 8.96014 40.0089 6.26655C36.7721 3.57298 32.7029 2.12254 28.5164 2.17008C24.3298 2.21762 20.2937 3.7601 17.1172 6.52652C13.9407 9.29293 11.8269 13.1063 11.1472 17.2967C11.0521 17.8668 10.891 17.7662 10.6512 17.544C10.238 17.0367 8.77904 15.2761 8.51867 14.9953C6.94815 13.3184 4.91889 11.9686 3.07147 11.9686C2.43877 11.97 1.82212 12.1706 1.30671 12.5429C0.808586 12.9478 0.429567 13.4836 0.210943 14.0919C-0.00768207 14.7003 -0.0575282 15.3578 0.0668297 15.9929C0.290008 17.2505 1.20339 19.2963 1.20339 20.2269C1.20339 21.1575 0.290008 23.199 0.0668297 24.4609C-0.0570599 25.0959 -0.0069872 25.7533 0.211604 26.3616C0.430196 26.9698 0.808947 27.5056 1.30671 27.9109C1.82297 28.2813 2.43907 28.4818 3.07147 28.4852C5.32805 28.4852 7.8698 26.494 9.49404 24.2931C9.55608 24.2087 9.59458 24.1088 9.60548 24.0041C9.61639 23.8994 9.59931 23.7936 9.55603 23.6979C7.74994 19.5688 5.25365 16.6511 3.07973 16.2906C2.97118 16.273 2.86712 16.2338 2.77349 16.1755C2.67984 16.117 2.59846 16.0404 2.53399 15.9502C2.46952 15.8598 2.42321 15.7575 2.39771 15.649C2.37222 15.5406 2.36803 15.4281 2.3854 15.318C2.40277 15.2079 2.44136 15.1023 2.49893 15.0074C2.55652 14.9124 2.63199 14.8298 2.72102 14.7645C2.81006 14.6991 2.91092 14.6521 3.01786 14.6262C3.12478 14.6004 3.23569 14.5961 3.34424 14.6138C6.05958 15.0623 8.75424 18.0554 10.7132 22.1971C10.9489 22.6195 11.119 23.0762 11.2175 23.5511C11.9886 27.6864 14.1588 31.4189 17.3535 34.1044C20.5482 36.79 24.567 38.2601 28.7163 38.261ZM16.6027 11.8764C16.6027 8.10353 22.0251 4.46067 28.7163 4.46067C35.4075 4.46067 40.8299 8.10773 40.8299 11.8764C40.8299 15.645 35.4033 18.6926 28.7163 18.6926C22.0292 18.6926 16.6027 15.6408 16.6027 11.8764Z" fill="#E52729"/>
<path d="M69.6846 15.2727V5.54589C69.6846 5.51454 69.6907 5.48349 69.7025 5.45453C69.7145 5.42556 69.7319 5.39923 69.7538 5.37706C69.7758 5.3549 69.8018 5.33731 69.8305 5.32532C69.8591 5.31331 69.8898 5.30714 69.9209 5.30714H71.807C71.8697 5.30714 71.9297 5.33229 71.9741 5.37706C72.0184 5.42184 72.0433 5.48257 72.0433 5.54589V9.21998C72.0426 9.26846 72.0566 9.31599 72.0834 9.35626C72.1101 9.39652 72.1484 9.4276 72.193 9.44536C72.2377 9.46312 72.2866 9.46672 72.3334 9.45568C72.3801 9.44464 72.4224 9.41948 72.4547 9.38356L76.1918 5.3823C76.2134 5.35833 76.2398 5.33923 76.2692 5.32628C76.2986 5.31332 76.3304 5.3068 76.3625 5.30714H78.4761C78.5221 5.30742 78.567 5.32127 78.6054 5.34697C78.6437 5.37267 78.6738 5.40911 78.6919 5.45184C78.71 5.49455 78.7154 5.54168 78.7074 5.58745C78.6993 5.63321 78.6783 5.67562 78.6468 5.70948L74.6602 9.98043C74.6211 10.0249 74.5995 10.0823 74.5995 10.1418C74.5995 10.2013 74.6211 10.2587 74.6602 10.3032L78.8175 15.1135C78.8467 15.1482 78.8654 15.1906 78.8716 15.2357C78.8778 15.2809 78.871 15.3268 78.8521 15.3682C78.8333 15.4096 78.8031 15.4446 78.7652 15.4692C78.7272 15.4938 78.6831 15.5069 78.638 15.507H76.4019C76.3677 15.5072 76.3339 15.4998 76.3028 15.4854C76.2718 15.4708 76.2443 15.4495 76.2225 15.423L72.4678 11.0017C72.4364 10.9647 72.3946 10.9383 72.3478 10.9261C72.3012 10.9138 72.252 10.9162 72.2067 10.9331C72.1614 10.95 72.1224 10.9804 72.0947 11.0203C72.0671 11.0602 72.0521 11.1077 72.052 11.1565V15.255C72.052 15.3184 72.0272 15.3791 71.9829 15.4239C71.9385 15.4687 71.8784 15.4938 71.8158 15.4938H69.934C69.8721 15.4974 69.8111 15.4762 69.7644 15.4349C69.7178 15.3936 69.6891 15.3353 69.6846 15.2727Z" fill="#1A1A1A"/>
<path d="M79.6416 10.4171C79.6227 9.74773 79.7392 9.08154 79.9837 8.46032C80.2281 7.83911 80.5953 7.27626 81.0622 6.80708C81.9988 5.84745 83.2695 5.30791 84.5948 5.30713C85.9201 5.30636 87.1914 5.84444 88.129 6.80297C89.0666 7.76151 89.5938 9.06201 89.5946 10.4184C89.5954 11.7747 89.0696 13.0758 88.133 14.0354C87.1879 14.979 85.9199 15.507 84.5996 15.507C83.2793 15.507 82.0113 14.979 81.0662 14.0354C80.6006 13.5633 80.2342 12.9989 79.9892 12.3767C79.7442 11.7545 79.626 11.0877 79.6416 10.4171ZM82.5992 8.19936C82.0853 8.81588 81.816 9.60729 81.8447 10.4171C81.8172 11.2381 82.1054 12.0373 82.6473 12.6432C82.898 12.9216 83.2023 13.1437 83.541 13.2958C83.8799 13.4477 84.2457 13.5262 84.6156 13.5262C84.9856 13.5262 85.3515 13.4477 85.6902 13.2958C86.0291 13.1437 86.3333 12.9216 86.584 12.6432C87.1092 12.0288 87.3862 11.2329 87.3586 10.4171C87.381 9.61448 87.1123 8.83172 86.6041 8.2199C86.3474 7.93916 86.0374 7.71499 85.6932 7.56111C85.349 7.40721 84.9776 7.32686 84.6019 7.32493C84.2263 7.32301 83.8541 7.39957 83.5084 7.54993C83.1627 7.70028 82.8506 7.92126 82.5911 8.19936H82.5992Z" fill="#1A1A1A"/>
<path d="M100.315 5.65605V15.1584C100.315 15.2509 100.282 15.3396 100.224 15.4049C100.166 15.4703 100.087 15.507 100.005 15.507H98.5097C98.4281 15.507 98.3484 15.4703 98.2911 15.4049C98.2328 15.3396 98.1998 15.2509 98.1998 15.1584V11.5437C98.1998 11.4501 98.1668 11.3602 98.1085 11.294C98.0492 11.2278 97.9696 11.1906 97.886 11.1906H94.3316C94.2905 11.1906 94.2499 11.1997 94.212 11.2176C94.1742 11.2354 94.1398 11.2614 94.1109 11.2942C94.0821 11.3272 94.0594 11.3661 94.044 11.4089C94.0287 11.4517 94.0211 11.4976 94.0216 11.5437V15.1584C94.0216 15.2045 94.0134 15.2502 93.9976 15.2928C93.9817 15.3354 93.9586 15.374 93.9294 15.4065C93.9002 15.4389 93.8656 15.4645 93.8276 15.4818C93.7895 15.4991 93.7487 15.5076 93.7077 15.507H92.2051C92.164 15.5076 92.1233 15.4991 92.0852 15.4818C92.0472 15.4645 92.0126 15.4389 91.9833 15.4065C91.9542 15.374 91.931 15.3354 91.9151 15.2928C91.8993 15.2502 91.8912 15.2045 91.8912 15.1584V5.65605C91.8912 5.60989 91.8993 5.5642 91.9151 5.5216C91.931 5.479 91.9542 5.44037 91.9833 5.40793C92.0126 5.3755 92.0472 5.34991 92.0852 5.33265C92.1233 5.31538 92.164 5.3068 92.2051 5.30738H93.696C93.7369 5.3068 93.7776 5.31538 93.8157 5.33265C93.8538 5.34991 93.8885 5.3755 93.9176 5.40793C93.9469 5.44037 93.97 5.479 93.9858 5.5216C94.0017 5.5642 94.0098 5.60989 94.0098 5.65605V8.82495C94.0098 8.91743 94.0425 9.00611 94.1006 9.07151C94.1587 9.1369 94.2375 9.17363 94.3198 9.17363H97.8744C97.9152 9.17421 97.956 9.16562 97.9938 9.14837C98.0317 9.13111 98.0667 9.10551 98.0958 9.07307C98.125 9.04064 98.1483 9.002 98.1638 8.95942C98.1804 8.91682 98.1881 8.87111 98.1881 8.82495V5.65605C98.1881 5.56358 98.2212 5.4749 98.2794 5.40951C98.3368 5.34412 98.4164 5.30738 98.498 5.30738H99.993C100.035 5.3056 100.077 5.3133 100.115 5.33003C100.154 5.34675 100.189 5.37215 100.219 5.40471C100.25 5.43726 100.274 5.4763 100.29 5.51949C100.306 5.56268 100.315 5.60912 100.315 5.65605Z" fill="#1A1A1A"/>
<path d="M108.794 6.53533H108.834V0.600098H110.949V6.53533H111.004C111.276 6.11804 111.642 5.78167 112.07 5.55812C112.497 5.33457 112.971 5.23128 113.446 5.25802C113.955 5.25716 114.458 5.38157 114.914 5.62156C115.371 5.86154 115.77 6.21065 116.08 6.64177C116.798 7.56712 117.157 8.8572 117.157 10.5121C117.213 11.8594 116.843 13.1879 116.107 14.2843C115.795 14.7457 115.382 15.1191 114.905 15.3727C114.428 15.6263 113.9 15.7525 113.367 15.7405C112.882 15.747 112.403 15.624 111.974 15.3828C111.581 15.1659 111.247 14.8448 111.004 14.4504H110.949V20.2153H108.83V14.4078H108.79C108.482 14.8516 108.072 15.2026 107.599 15.4265C107.127 15.6503 106.607 15.7395 106.094 15.6851C105.583 15.6323 105.089 15.4607 104.647 15.1827C104.205 14.9047 103.826 14.5269 103.536 14.0758C102.888 12.988 102.567 11.7146 102.618 10.4269C102.569 9.13758 102.913 7.86613 103.6 6.80357C104.035 6.18479 104.632 5.7168 105.315 5.45813C105.717 5.27608 106.151 5.19374 106.587 5.21734C107.022 5.24094 107.447 5.36987 107.829 5.59438C108.213 5.82636 108.543 6.14803 108.794 6.53533ZM104.776 10.4524C104.738 11.2978 104.936 12.1364 105.343 12.8622C105.503 13.1466 105.73 13.3809 106.002 13.5417C106.273 13.7023 106.58 13.7837 106.891 13.7777C107.18 13.7706 107.463 13.6873 107.714 13.535C107.966 13.3826 108.177 13.1661 108.332 12.9049C108.764 12.1955 108.974 11.3572 108.93 10.5121C108.977 9.65364 108.78 8.80013 108.363 8.06385C108.201 7.79183 107.974 7.56883 107.708 7.41605C107.441 7.26326 107.143 7.18575 106.84 7.19086C106.538 7.19598 106.241 7.28357 105.979 7.4453C105.717 7.60703 105.498 7.83754 105.343 8.11494C104.942 8.81607 104.745 9.62783 104.776 10.4481V10.4524ZM115.003 10.4737C115.035 9.58693 114.816 8.71033 114.376 7.95741C114.257 7.76824 114.105 7.60635 113.926 7.4813C113.748 7.35626 113.548 7.27058 113.339 7.22934C112.983 7.143 112.612 7.17462 112.274 7.31996C111.936 7.46532 111.647 7.71743 111.447 8.04255C111.072 8.7848 110.875 9.61517 110.875 10.4588C110.875 11.3024 111.072 12.1328 111.447 12.8751C111.604 13.1531 111.826 13.3826 112.091 13.541C112.356 13.6993 112.656 13.7809 112.96 13.7777C113.266 13.7815 113.567 13.6979 113.832 13.5353C114.097 13.3728 114.317 13.1375 114.467 12.8538C114.854 12.1289 115.039 11.3021 115.003 10.4694V10.4737Z" fill="#1A1A1A"/>
<path d="M123.705 5.31188C125.295 5.32842 126.517 5.83008 127.369 6.81684C128.219 7.79351 128.674 9.0368 128.647 10.3146C128.652 10.5346 128.639 10.7545 128.605 10.972H121.216C121.19 10.972 121.164 10.9771 121.14 10.987C121.117 10.9968 121.095 11.0113 121.077 11.0294C121.059 11.0476 121.045 11.0691 121.036 11.0927C121.027 11.1162 121.023 11.1412 121.024 11.1664C121.07 11.8353 121.374 12.4629 121.876 12.9235C122.145 13.1899 122.465 13.4005 122.82 13.5426C123.174 13.6847 123.555 13.7554 123.939 13.7505C124.352 13.7593 124.76 13.6723 125.131 13.4969C125.501 13.3213 125.823 13.0624 126.069 12.7417C126.087 12.721 126.108 12.7044 126.132 12.6929C126.157 12.6814 126.183 12.6755 126.21 12.6755H128.188C128.219 12.676 128.251 12.6843 128.278 12.6996C128.306 12.7149 128.33 12.7366 128.346 12.7629C128.364 12.7892 128.373 12.8192 128.375 12.8501C128.377 12.8811 128.371 12.912 128.358 12.9401C127.992 13.6437 127.452 14.2498 126.79 14.7055C125.948 15.2625 124.944 15.5423 123.926 15.5035C123.23 15.5248 122.537 15.4058 121.891 15.1538C121.244 14.9019 120.659 14.5226 120.172 14.0399C119.241 13.0486 118.715 11.7614 118.694 10.4205C118.673 9.07965 119.157 7.77746 120.057 6.75897C120.52 6.2753 121.087 5.89533 121.716 5.64543C122.347 5.39554 123.025 5.28171 123.705 5.31188ZM123.705 6.9657C123.364 6.95341 123.025 7.00909 122.707 7.12927C122.389 7.24947 122.101 7.43161 121.859 7.66442C121.444 8.05844 121.167 8.56892 121.066 9.12392C121.062 9.15012 121.064 9.17692 121.071 9.20245C121.079 9.22798 121.092 9.25162 121.11 9.27171C121.127 9.2918 121.15 9.30786 121.175 9.31875C121.199 9.32965 121.227 9.33512 121.255 9.33479H126.138C126.165 9.33444 126.192 9.3285 126.216 9.31738C126.241 9.30626 126.262 9.29021 126.28 9.27028C126.298 9.25035 126.311 9.227 126.319 9.20177C126.327 9.17654 126.328 9.15 126.326 9.12392C126.227 8.56264 125.947 8.04662 125.524 7.65203C125.279 7.43349 124.993 7.264 124.681 7.15332C124.368 7.04262 124.037 6.99291 123.705 7.00704V6.9657Z" fill="#1A1A1A"/>
<path d="M136.307 5.53263V7.14639C136.307 7.20619 136.287 7.26355 136.25 7.30583C136.213 7.34812 136.162 7.37188 136.111 7.37188H134.095C134.044 7.37188 133.993 7.39563 133.957 7.43792C133.92 7.4802 133.899 7.53756 133.899 7.59736V15.2816C133.899 15.3414 133.878 15.3987 133.841 15.441C133.805 15.4833 133.755 15.507 133.704 15.507H132.038C131.986 15.507 131.936 15.4833 131.899 15.441C131.863 15.3987 131.841 15.3414 131.841 15.2816V7.59736C131.841 7.53756 131.821 7.4802 131.784 7.43792C131.747 7.39563 131.698 7.37188 131.645 7.37188H129.611C129.559 7.37188 129.509 7.34812 129.472 7.30583C129.435 7.26355 129.415 7.20619 129.415 7.14639V5.53263C129.415 5.47282 129.435 5.41546 129.472 5.37318C129.509 5.33089 129.559 5.30713 129.611 5.30713H136.115C136.166 5.30828 136.215 5.33256 136.251 5.37472C136.287 5.41688 136.307 5.47357 136.307 5.53263Z" fill="#1A1A1A"/>
<path d="M137.837 15.1584V5.62062C137.837 5.57931 137.844 5.5383 137.858 5.50001C137.872 5.46172 137.893 5.42693 137.919 5.39772C137.947 5.3685 137.979 5.34545 138.014 5.3299C138.049 5.31437 138.087 5.30667 138.124 5.30726H139.742C139.818 5.30726 139.891 5.34028 139.945 5.39904C139.998 5.45781 140.028 5.53752 140.028 5.62062V9.02349C140.028 9.08668 140.045 9.14858 140.077 9.20106C140.11 9.25353 140.156 9.29412 140.209 9.31751C140.264 9.3409 140.323 9.34598 140.379 9.33211C140.435 9.31823 140.487 9.28604 140.526 9.23975L143.842 5.40435C143.869 5.37367 143.901 5.34924 143.936 5.33254C143.971 5.31584 144.009 5.30723 144.048 5.30726H145.811C145.868 5.30546 145.923 5.32213 145.971 5.35512C146.018 5.3881 146.056 5.43591 146.079 5.49238C146.101 5.54884 146.108 5.6114 146.098 5.672C146.087 5.73261 146.061 5.78849 146.021 5.83247L142.487 9.92385C142.435 9.98309 142.406 10.0622 142.406 10.1445C142.406 10.2269 142.435 10.306 142.487 10.3652L146.187 14.9906C146.224 15.0353 146.249 15.0908 146.257 15.1502C146.266 15.2098 146.258 15.2707 146.235 15.3256C146.213 15.3805 146.176 15.4269 146.129 15.4591C146.082 15.4913 146.028 15.508 145.973 15.507H144.084C144.043 15.5064 144.003 15.4967 143.966 15.4785C143.928 15.4603 143.894 15.434 143.867 15.401L140.542 11.1729C140.503 11.1238 140.453 11.089 140.396 11.0728C140.338 11.0568 140.278 11.0603 140.223 11.083C140.167 11.1057 140.12 11.1464 140.087 11.1996C140.054 11.2528 140.036 11.3159 140.037 11.3803V15.1584C140.037 15.2414 140.006 15.3212 139.953 15.38C139.899 15.4386 139.825 15.4717 139.75 15.4717H138.132C138.093 15.4735 138.055 15.4667 138.02 15.4518C137.984 15.4367 137.951 15.4139 137.922 15.3845C137.895 15.3552 137.873 15.3199 137.858 15.2811C137.844 15.2422 137.837 15.2004 137.837 15.1584Z" fill="#1A1A1A"/>
<path d="M148.559 15.1711V5.64303C148.559 5.59856 148.566 5.55451 148.582 5.51347C148.596 5.47244 148.619 5.43521 148.647 5.40396C148.675 5.37272 148.709 5.34806 148.745 5.33145C148.782 5.31483 148.821 5.30657 148.861 5.30716H150.302C150.382 5.30716 150.458 5.34256 150.514 5.40554C150.569 5.46853 150.602 5.55396 150.602 5.64303V9.22269C150.602 10.4866 150.602 11.5296 150.546 12.3515H150.586C150.966 11.6298 151.384 10.9333 151.835 10.2656L155.018 5.44417C155.046 5.40124 155.082 5.36642 155.124 5.34261C155.167 5.31879 155.214 5.30663 155.26 5.30716H156.68C156.719 5.30657 156.758 5.31483 156.794 5.33145C156.831 5.34806 156.864 5.37272 156.892 5.40396C156.921 5.43521 156.943 5.47244 156.959 5.51347C156.974 5.55451 156.982 5.59856 156.982 5.64303V15.1711C156.982 15.2156 156.974 15.2596 156.959 15.3007C156.943 15.3417 156.921 15.3789 156.892 15.4102C156.864 15.4414 156.831 15.466 156.794 15.4826C156.758 15.4993 156.719 15.5075 156.68 15.5069H155.237C155.158 15.5069 155.083 15.4716 155.026 15.4086C154.97 15.3456 154.939 15.2602 154.939 15.1711V11.6135C154.939 10.3496 154.957 9.29929 154.993 8.46256H154.958C154.754 8.87503 154.338 9.57033 153.709 10.5485L150.523 15.37C150.496 15.4134 150.459 15.4486 150.416 15.4725C150.373 15.4964 150.327 15.5082 150.279 15.5069H148.861C148.821 15.5075 148.782 15.4993 148.745 15.4826C148.709 15.466 148.675 15.4414 148.647 15.4102C148.619 15.3789 148.596 15.3417 148.582 15.3007C148.566 15.2596 148.559 15.2156 148.559 15.1711Z" fill="#1A1A1A"/>
<path d="M75.7403 24.6844C73.5154 25.0554 72.2598 26.148 71.9736 27.962H72.0344C72.3843 27.5484 72.8147 27.2254 73.294 27.0167C73.8042 26.7701 74.356 26.6421 74.914 26.6413C75.5488 26.6144 76.1816 26.7351 76.7703 26.9956C77.3589 27.2561 77.89 27.6503 78.3282 28.1519C79.213 29.1974 79.6832 30.5819 79.6364 32.0038C79.6494 32.7208 79.5299 33.4333 79.285 34.0989C79.04 34.7645 78.6747 35.3694 78.2108 35.8776C77.75 36.4001 77.1943 36.8119 76.5792 37.0866C75.964 37.3611 75.303 37.4925 74.6386 37.4722C73.9664 37.5001 73.2968 37.367 72.6769 37.0824C72.057 36.7978 71.5017 36.3684 71.0502 35.8247C70.1404 34.7233 69.6853 33.1802 69.6853 31.1954C69.675 30.1567 69.7688 29.1199 69.9648 28.1034C70.1167 27.3029 70.3775 26.5317 70.7384 25.8153C71.0504 25.2096 71.4623 24.6719 71.9534 24.2294C72.4202 23.8012 72.9465 23.4567 73.5127 23.209C74.1203 22.9503 74.7517 22.7638 75.396 22.6525C76.1872 22.5069 76.9525 22.2267 77.664 21.8221C77.6989 21.8016 77.7373 21.789 77.7768 21.785C77.8164 21.7811 77.8562 21.7859 77.894 21.799C77.9318 21.8122 77.9668 21.8336 77.9968 21.8618C78.0269 21.89 78.0515 21.9246 78.069 21.9635L78.6806 23.3283C78.6987 23.3666 78.7099 23.4084 78.7132 23.4513C78.7166 23.4943 78.712 23.5376 78.7 23.5786C78.688 23.6196 78.6686 23.6577 78.6431 23.6906C78.6174 23.7234 78.5861 23.7504 78.551 23.77C77.6694 24.2493 76.7185 24.5586 75.7403 24.6844ZM71.8562 32.0038C71.8285 32.8867 72.1192 33.7462 72.6662 34.3978C72.9151 34.701 73.2207 34.9426 73.5622 35.1064C73.9039 35.2703 74.2736 35.3525 74.6467 35.3476C75.0238 35.3607 75.399 35.2824 75.745 35.1182C76.091 34.9539 76.3993 34.7079 76.6475 34.3978C77.1723 33.7347 77.4473 32.8792 77.4169 32.0038C77.4419 31.1438 77.1784 30.3036 76.6757 29.6406C76.4329 29.3267 76.1275 29.0776 75.7828 28.9123C75.4381 28.7469 75.0634 28.6696 74.6872 28.6864C74.3071 28.6754 73.9293 28.7542 73.5798 28.9173C73.2303 29.0805 72.9173 29.3242 72.6622 29.6317C72.1231 30.2795 71.8344 31.1293 71.8562 32.0038Z" fill="#1A1A1A"/>
<path d="M91.1274 27.1165V36.7865C91.1274 36.8722 91.0966 36.9544 91.0415 37.0153C90.9865 37.0763 90.9118 37.1111 90.8335 37.1124H89.2784C89.2001 37.1111 89.1253 37.0763 89.0703 37.0153C89.0153 36.9544 88.9844 36.8722 88.9844 36.7865V35.8004H88.9232C88.5438 36.3367 88.0541 36.7676 87.4938 37.0584C86.9336 37.3491 86.3186 37.4914 85.6986 37.4737C85.1126 37.4701 84.5331 37.3378 83.9947 37.085C83.4562 36.832 82.9697 36.4635 82.5638 36.0012C81.6387 35.0254 81.1761 33.6748 81.1761 31.9493C81.1505 31.2279 81.2577 30.5082 81.4911 29.833C81.7246 29.1576 82.0797 28.5404 82.5353 28.0179C82.9607 27.5236 83.4761 27.1323 84.0485 26.8694C84.6207 26.6065 85.2372 26.4778 85.8579 26.4917C86.4611 26.4825 87.0574 26.6342 87.5951 26.9335C88.1328 27.2329 88.5956 27.671 88.9436 28.2098H88.9844V27.1343C88.9844 27.0491 89.0154 26.9673 89.0706 26.9071C89.1256 26.8469 89.2003 26.813 89.2784 26.813H90.8335C90.9087 26.8129 90.9811 26.8443 91.0358 26.9007C91.0904 26.9572 91.1232 27.0344 91.1274 27.1165ZM83.4374 31.9314C83.4184 32.8044 83.6798 33.657 84.1761 34.3412C84.4309 34.6795 84.7553 34.9473 85.1227 35.1226C85.4902 35.2978 85.8903 35.3756 86.2905 35.3497C86.6595 35.35 87.0244 35.2651 87.3613 35.1005C87.6983 34.9359 87.9997 34.6955 88.2456 34.3947C88.5197 34.0739 88.7329 33.6971 88.873 33.2858C89.0132 32.8745 89.0774 32.437 89.062 31.9984C89.0983 31.0862 88.8134 30.1935 88.266 29.5038C88.022 29.1937 87.7185 28.9462 87.3771 28.7788C87.0356 28.6114 86.6646 28.5283 86.2905 28.5355C85.8888 28.5113 85.4873 28.5898 85.1181 28.7649C84.749 28.9399 84.4223 29.2068 84.1639 29.5441C83.6734 30.2222 83.4163 31.0672 83.4374 31.9314Z" fill="#1A1A1A"/>
<path d="M93.4238 41.0209V27.1712C93.4249 27.0719 93.4637 26.9768 93.5317 26.9069C93.5997 26.837 93.6915 26.7977 93.7871 26.7977H95.2075C95.3028 26.7977 95.3942 26.8372 95.4615 26.9072C95.5288 26.9772 95.5667 27.0722 95.5667 27.1712V28.0456H95.6279C96.0202 27.5479 96.5161 27.1493 97.0782 26.8801C97.6402 26.611 98.2542 26.4783 98.873 26.4922C99.4733 26.4845 100.068 26.611 100.617 26.8629C101.166 27.1147 101.657 27.4863 102.056 27.9523C102.955 28.9817 103.428 30.3367 103.375 31.7256C103.42 33.1098 102.936 34.4563 102.028 35.4692C101.614 35.9395 101.109 36.3136 100.547 36.5667C99.9833 36.8198 99.3752 36.9462 98.7622 36.9378C98.1648 36.9562 97.5722 36.8269 97.0321 36.5606C96.4921 36.2942 96.0207 35.8983 95.6565 35.4054H95.5953V41.0209C95.5953 41.1204 95.5576 41.2158 95.4903 41.2865C95.423 41.3573 95.3317 41.3975 95.2361 41.3987H93.7953C93.7469 41.3997 93.6987 41.3908 93.6538 41.3723C93.6088 41.3539 93.5677 41.3262 93.5331 41.291C93.4985 41.2559 93.471 41.2138 93.4523 41.1675C93.4335 41.121 93.4238 41.0712 93.4238 41.0209ZM101.114 31.6831C101.133 30.8576 100.869 30.0519 100.367 29.4123C100.109 29.0983 99.7842 28.8504 99.4189 28.6877C99.0536 28.5251 98.6573 28.4521 98.261 28.4743C97.649 28.4679 97.0538 28.6841 96.5789 29.0855C95.9336 29.716 95.5455 30.5799 95.4946 31.499C95.4437 32.4183 95.734 33.3228 96.3055 34.026C96.5529 34.3158 96.8573 34.5469 97.1982 34.7036C97.5392 34.8604 97.9083 34.9391 98.2814 34.9344C98.6777 34.9552 99.074 34.8781 99.4364 34.709C99.7987 34.5401 100.117 34.2842 100.367 33.9624C100.861 33.3227 101.125 32.5244 101.114 31.7043V31.6831Z" fill="#1A1A1A"/>
<path d="M114.865 27.1923V36.7286C114.865 36.8296 114.828 36.9265 114.763 36.9983C114.698 37.0702 114.609 37.1111 114.517 37.1124H113.082C112.989 37.1111 112.9 37.0702 112.835 36.9983C112.77 36.9265 112.734 36.8296 112.734 36.7286V35.8004H112.673C112.293 36.3367 111.803 36.7676 111.241 37.0584C110.68 37.3491 110.064 37.4914 109.443 37.4737C108.856 37.4701 108.275 37.3378 107.736 37.085C107.197 36.832 106.709 36.4635 106.303 36.0012C105.379 35.0254 104.915 33.6748 104.913 31.9493C104.887 31.2279 104.995 30.5082 105.229 29.833C105.462 29.1576 105.818 28.5404 106.274 28.0179C106.701 27.5235 107.217 27.1323 107.79 26.8694C108.364 26.6065 108.981 26.4778 109.602 26.4917C110.207 26.4825 110.804 26.6342 111.342 26.9335C111.881 27.2329 112.345 27.671 112.693 28.2098H112.734V27.1923C112.734 27.0917 112.771 26.9952 112.836 26.9241C112.901 26.853 112.99 26.813 113.082 26.813H114.533C114.623 26.8177 114.706 26.8596 114.768 26.9302C114.83 27.0009 114.865 27.0947 114.865 27.1923ZM107.161 31.9493C107.143 32.8222 107.404 33.6749 107.901 34.359C108.157 34.6974 108.481 34.9652 108.85 35.1405C109.218 35.3157 109.619 35.3935 110.019 35.3675C110.389 35.3681 110.754 35.2833 111.093 35.1187C111.43 34.9541 111.732 34.7135 111.978 34.4126C112.256 34.0937 112.473 33.7175 112.617 33.3062C112.761 32.8948 112.828 32.4563 112.816 32.0163C112.847 31.1011 112.554 30.2079 111.998 29.5217C111.754 29.2113 111.45 28.9636 111.108 28.7963C110.766 28.6288 110.394 28.5459 110.019 28.5534C109.617 28.5291 109.215 28.6077 108.846 28.7828C108.476 28.9578 108.148 29.2246 107.89 29.5618C107.398 30.2401 107.141 31.085 107.161 31.9493Z" fill="#1A1A1A"/>
<path d="M126.353 27.6109V36.3572C126.353 36.4459 126.316 36.531 126.25 36.5937C126.184 36.6565 126.094 36.6917 126.001 36.6917H124.392C124.299 36.6917 124.21 36.6565 124.145 36.5937C124.079 36.531 124.042 36.4459 124.042 36.3572V33.0365C124.042 32.9475 124.005 32.862 123.939 32.7986C123.873 32.7352 123.783 32.6991 123.69 32.6979H119.831C119.736 32.6991 119.647 32.7352 119.582 32.7986C119.516 32.862 119.479 32.9475 119.479 33.0365V36.3572C119.479 36.4459 119.442 36.531 119.376 36.5937C119.31 36.6565 119.221 36.6917 119.127 36.6917H117.515C117.421 36.6917 117.332 36.6565 117.266 36.5937C117.2 36.531 117.163 36.4459 117.163 36.3572V27.6109C117.163 27.5222 117.2 27.4371 117.266 27.3744C117.332 27.3116 117.421 27.2764 117.515 27.2764H119.127C119.221 27.2764 119.31 27.3116 119.376 27.3744C119.442 27.4371 119.479 27.5222 119.479 27.6109V30.5196C119.479 30.6083 119.516 30.6934 119.582 30.7561C119.648 30.8188 119.737 30.854 119.831 30.854H123.69C123.783 30.854 123.873 30.8188 123.938 30.7561C124.004 30.6934 124.042 30.6083 124.042 30.5196V27.6109C124.042 27.5222 124.079 27.4371 124.145 27.3744C124.21 27.3116 124.299 27.2764 124.392 27.2764H126.001C126.094 27.2764 126.184 27.3116 126.25 27.3744C126.316 27.4371 126.353 27.5222 126.353 27.6109Z" fill="#1A1A1A"/>
<path d="M127.884 31.9962C127.864 31.2746 127.991 30.5567 128.255 29.8874C128.519 29.218 128.915 28.6117 129.42 28.1064C130.427 27.0736 131.794 26.4925 133.22 26.4907C134.646 26.4891 136.015 27.0671 137.024 28.0976C138.033 29.1281 138.602 30.5266 138.603 31.9855C138.604 33.4445 138.039 34.8444 137.033 35.8772C136.018 36.8975 134.653 37.4712 133.231 37.4753C131.807 37.4794 130.44 36.9138 129.42 35.8993C128.917 35.3901 128.522 34.7812 128.258 34.11C127.994 33.4388 127.866 32.7195 127.884 31.9962ZM131.076 29.6111C130.519 30.2719 130.229 31.1244 130.263 31.9962C130.232 32.8811 130.543 33.7429 131.128 34.3948C131.398 34.6945 131.726 34.9339 132.09 35.0977C132.455 35.2614 132.85 35.3459 133.248 35.3459C133.646 35.3459 134.04 35.2614 134.405 35.0977C134.769 34.9339 135.098 34.6945 135.367 34.3948C135.935 33.734 136.234 32.8755 136.202 31.9962C136.226 31.1313 135.937 30.2879 135.389 29.6287C135.11 29.3277 134.775 29.0878 134.403 28.924C134.032 28.76 133.631 28.6755 133.226 28.6755C132.822 28.6755 132.42 28.76 132.048 28.924C131.676 29.0878 131.341 29.3277 131.063 29.6287L131.076 29.6111Z" fill="#1A1A1A"/>
<path d="M148.559 27.5089V36.4592C148.559 36.5209 148.534 36.58 148.491 36.6236C148.446 36.6672 148.387 36.6917 148.324 36.6917H146.565C146.504 36.6907 146.445 36.6658 146.4 36.6225C146.356 36.5791 146.331 36.5205 146.33 36.4592V32.188H146.293C146.02 32.6552 145.625 33.0405 145.148 33.3034C144.671 33.5663 144.132 33.6968 143.586 33.6811C143.122 33.6935 142.659 33.6062 142.232 33.4252C141.804 33.2442 141.422 32.9739 141.11 32.6327C140.461 31.9311 140.135 30.8785 140.135 29.4752V27.5089C140.135 27.4472 140.161 27.3881 140.204 27.3445C140.249 27.3009 140.308 27.2764 140.37 27.2764H142.129C142.192 27.2764 142.251 27.3009 142.296 27.3445C142.34 27.3881 142.364 27.4472 142.364 27.5089V29.3406C142.324 29.9651 142.499 30.5848 142.859 31.0988C143.022 31.3028 143.231 31.4656 143.471 31.5734C143.71 31.6812 143.972 31.7311 144.234 31.7189C144.527 31.7312 144.82 31.6752 145.087 31.5555C145.354 31.4357 145.589 31.2555 145.774 31.0295C146.188 30.4517 146.388 29.7497 146.339 29.0428V27.5089C146.339 27.4472 146.363 27.3881 146.408 27.3445C146.452 27.3009 146.512 27.2764 146.574 27.2764H148.332C148.362 27.277 148.393 27.2834 148.421 27.2953C148.448 27.3074 148.473 27.3246 148.495 27.3462C148.516 27.3678 148.532 27.3932 148.543 27.4212C148.554 27.4491 148.56 27.4789 148.559 27.5089Z" fill="#1A1A1A"/>
<path d="M150.857 36.4632V27.513C150.857 27.4514 150.881 27.3923 150.924 27.3487C150.968 27.3051 151.025 27.2806 151.086 27.2806H152.795C152.856 27.2806 152.914 27.3051 152.957 27.3487C153 27.3923 153.024 27.4514 153.024 27.513V30.8663C153.02 30.915 153.033 30.9634 153.059 31.0044C153.086 31.0454 153.123 31.0768 153.168 31.0941C153.213 31.1114 153.262 31.1137 153.308 31.1006C153.355 31.0875 153.395 31.0597 153.426 31.0214L156.831 27.3499C156.852 27.3259 156.877 27.307 156.905 27.2943C156.933 27.2816 156.964 27.2754 156.996 27.2765H158.901C158.946 27.2749 158.99 27.2871 159.028 27.3114C159.066 27.3356 159.096 27.3707 159.114 27.4124C159.133 27.4541 159.138 27.5003 159.13 27.5451C159.122 27.59 159.101 27.6314 159.07 27.664L155.435 31.5843C155.398 31.6269 155.377 31.6821 155.377 31.7393C155.377 31.7965 155.398 31.8516 155.435 31.8943L159.226 36.3082C159.254 36.3419 159.273 36.3832 159.278 36.427C159.285 36.4709 159.278 36.5156 159.26 36.5559C159.242 36.5962 159.213 36.6303 159.176 36.6544C159.139 36.6785 159.098 36.6914 159.054 36.6917H157.028C156.995 36.6907 156.962 36.6829 156.933 36.669C156.903 36.6549 156.877 36.6349 156.856 36.6101L153.437 32.5633C153.408 32.5253 153.367 32.4977 153.322 32.4845C153.276 32.4714 153.227 32.4733 153.183 32.4902C153.138 32.5069 153.099 32.5377 153.073 32.578C153.047 32.6182 153.034 32.666 153.036 32.7143V36.4591C153.035 36.5205 153.011 36.579 152.968 36.6224C152.925 36.6657 152.868 36.6906 152.808 36.6917H151.086C151.026 36.6906 150.97 36.6663 150.927 36.6239C150.884 36.5813 150.86 36.5238 150.857 36.4632Z" fill="#1A1A1A"/>
<path d="M161.577 36.349V27.513C161.576 27.4823 161.582 27.4518 161.592 27.4234C161.604 27.3949 161.62 27.3691 161.641 27.3473C161.662 27.3257 161.687 27.3086 161.715 27.297C161.742 27.2855 161.771 27.2799 161.8 27.2805H163.399C163.429 27.2805 163.457 27.2865 163.485 27.2983C163.512 27.3099 163.536 27.3271 163.557 27.3488C163.577 27.3704 163.593 27.3961 163.604 27.4244C163.615 27.4525 163.621 27.4826 163.62 27.513V30.8948C163.62 32.0616 163.601 33.0256 163.564 33.7871H163.6C163.983 33.1212 164.4 32.4771 164.85 31.8576L168.059 27.3702C168.08 27.3407 168.107 27.3168 168.139 27.3005C168.17 27.2842 168.205 27.2759 168.24 27.2764H169.776C169.806 27.2758 169.835 27.2815 169.862 27.2929C169.89 27.3045 169.915 27.3216 169.936 27.3432C169.956 27.365 169.973 27.3908 169.984 27.4193C169.995 27.4478 170.001 27.4782 170 27.5089V36.4591C170 36.5208 169.977 36.58 169.935 36.6236C169.892 36.6671 169.836 36.6917 169.776 36.6917H168.177C168.118 36.6906 168.062 36.6657 168.021 36.6221C167.98 36.5786 167.957 36.5201 167.957 36.4591V33.0936C167.957 31.9269 167.976 30.9573 168.012 30.185H167.977C167.773 30.563 167.356 31.2049 166.727 32.1105L163.549 36.5489C163.519 36.5929 163.479 36.6288 163.432 36.6537C163.386 36.6785 163.334 36.6915 163.282 36.6917H161.911C161.823 36.6917 161.738 36.6556 161.676 36.5915C161.614 36.5274 161.578 36.4403 161.577 36.349Z" fill="#1A1A1A"/>
</g>
<defs>
<clipPath id="clip0_320_440">
<rect width="170" height="40.8" fill="white" transform="translate(0 0.600098)"/>
</clipPath>
</defs>
</svg>
