<svg width="170" height="36" viewBox="0 0 170 36" fill="none" xmlns="http://www.w3.org/2000/svg">
<g clip-path="url(#clip0_320_335)">
<path d="M118.773 22.4484C117.3 22.4484 116.28 21.4851 116.28 19.6718C116.28 17.8584 117.13 16.7818 118.887 16.7818C120.643 16.7818 121.38 18.0284 121.38 19.5018C121.38 20.9751 120.417 22.4484 118.773 22.4484ZM118.377 10.7751C116.935 10.7381 115.521 11.1762 114.353 12.0218V14.2884C115.475 13.4777 116.823 13.0414 118.207 13.0418C120.417 13.0418 121.437 14.1751 121.493 15.7051C120.679 14.9493 119.601 14.5424 118.49 14.5718C115.373 14.5718 113.617 16.8384 113.617 19.6718C113.617 22.5051 115.373 24.6584 118.603 24.6584C121.833 24.6584 124.1 22.5051 124.1 17.9718V17.7451C124.1 13.0418 122.06 10.7751 118.377 10.7751Z" fill="#1A1A1A"/>
<path d="M164.05 22.5054C162.52 22.5054 161.613 21.3154 161.613 19.6154C161.613 17.9154 162.52 16.5554 164.05 16.4988C165.58 16.4421 166.713 17.7454 166.713 19.5021C166.713 21.2588 165.637 22.5054 164.05 22.5054ZM170 24.3754C169.49 23.5254 169.377 22.5621 169.377 19.3888V14.5721H166.77V15.4221C165.944 14.692 164.869 14.3066 163.767 14.3454C160.763 14.3454 158.95 16.7254 158.95 19.6721C158.95 22.6188 161.047 24.6588 163.483 24.6588C164.138 24.6612 164.784 24.5144 165.373 24.2296C165.962 23.9449 166.479 23.5297 166.883 23.0154C166.929 23.4974 167.084 23.9626 167.337 24.3754H170Z" fill="#1A1A1A"/>
<path d="M63.58 22.4485C61.9367 22.4485 61.0867 21.2019 61.0867 19.5019C61.0867 17.8019 61.9934 16.5552 63.58 16.5552C65.1667 16.5552 66.0734 17.8585 66.0734 19.5019C66.0734 21.1452 65.2234 22.4485 63.58 22.4485ZM63.58 14.3452C60.35 14.3452 58.4234 16.5552 58.4234 19.5019C58.4234 22.4485 60.2934 24.6585 63.58 24.6585C66.8667 24.6585 68.7367 22.4485 68.7367 19.5019C68.7367 16.5552 66.8667 14.3452 63.58 14.3452Z" fill="#1A1A1A"/>
<path d="M17.4534 32.8186C9.35003 32.8186 2.72003 26.7552 2.72003 18.0286C2.72003 9.30189 9.35003 3.18189 17.4534 3.18189C25.5567 3.18189 32.1867 9.24522 32.1867 18.0286C32.1867 26.8119 25.6134 32.8186 17.4534 32.8186ZM17.4534 0.518555C7.82003 0.518555 3.05176e-05 7.77189 3.05176e-05 18.0286C3.05176e-05 28.2852 7.82003 35.4819 17.4534 35.4819C27.0867 35.4819 34.9634 28.2286 34.9634 18.0286C34.9634 7.82855 27.0867 0.518555 17.4534 0.518555Z" fill="#1A1A1A"/>
<path d="M13.3734 11.3984H10.71C11.2778 12.6083 11.605 13.917 11.6734 15.2518C11.6734 17.6884 9.80337 20.2384 9.80337 22.7318C9.79437 23.4501 9.92924 24.163 10.2 24.8284H12.8634C12.6298 24.1544 12.5148 23.445 12.5234 22.7318C12.5234 20.2384 14.3367 17.6884 14.3367 15.2518C14.2683 13.917 13.9411 12.6083 13.3734 11.3984Z" fill="#1A1A1A"/>
<path d="M24.0834 11.3984H21.42C21.9878 12.6083 22.315 13.917 22.3834 15.2518C22.3834 17.6884 20.57 20.2384 20.57 22.7318C20.5614 23.445 20.6765 24.1544 20.91 24.8284H23.5734C23.3398 24.1544 23.2248 23.445 23.2334 22.7318C23.2334 20.2384 25.1034 17.6884 25.1034 15.2518C25.0277 13.9115 24.6807 12.6006 24.0834 11.3984Z" fill="#1A1A1A"/>
<path d="M18.7567 11.3984H16.0367C16.634 12.6006 16.981 13.9115 17.0567 15.2518C17.0567 17.6884 15.1867 20.2384 15.1867 22.7318C15.1781 23.445 15.2931 24.1544 15.5267 24.8284H18.19C17.9565 24.1544 17.8414 23.445 17.85 22.7318C17.85 20.2384 19.72 17.6884 19.72 15.2518C19.6516 13.917 19.3244 12.6083 18.7567 11.3984Z" fill="#1A1A1A"/>
<path d="M54.0034 22.1083H51.0567V11.625H48.3934V22.1083H45.4467V11.625H41.9333C42.5 12.475 42.7833 13.7783 42.7833 16.1583V24.375H56.6667V11.625H54.0034V22.1083Z" fill="#1A1A1A"/>
<path d="M132.43 18.4251H128.52V14.5718H125.403C125.403 14.5718 125.913 15.7051 125.913 19.1051V24.3751H128.52V20.5218H132.43V24.3751H135.093V14.5718H132.43V18.4251Z" fill="#1A1A1A"/>
<path d="M139.683 20.5784V14.5718H137.077V24.3751H139.683L143.593 18.3684V24.3751H146.257V14.5718H143.593L139.683 20.5784Z" fill="#1A1A1A"/>
<path d="M79.39 14.5718H76.4433L73.1567 18.6518V14.5718H69.9833C69.9833 14.5718 70.4933 15.7051 70.4933 19.0484V24.3751H73.1567V20.0118L76.16 24.3751H79.3333L75.65 19.2184L79.39 14.5718Z" fill="#1A1A1A"/>
<path d="M106.533 22.5052C105.06 22.5052 104.097 21.3152 104.097 19.6152C104.097 17.9152 105.003 16.5552 106.533 16.4986C108.063 16.4419 109.197 17.7452 109.197 19.5019C109.197 21.2586 108.12 22.5052 106.533 22.5052ZM111.86 14.5719H109.253V15.4786C108.439 14.7227 107.361 14.3159 106.25 14.3452C103.247 14.3452 101.433 16.7252 101.433 19.6719C101.433 22.6186 103.53 24.6586 106.023 24.6586C106.662 24.6514 107.292 24.5059 107.869 24.232C108.446 23.9581 108.957 23.5623 109.367 23.0719C109.436 23.5394 109.61 23.9851 109.877 24.3752H112.483C111.973 23.5252 111.86 22.5619 111.86 19.3886V14.5719Z" fill="#1A1A1A"/>
<path d="M92.14 20.8051C92.14 21.8818 91.7434 22.3351 91.0067 22.3351C90.7933 22.3412 90.581 22.3026 90.3834 22.2218V24.3751C90.7672 24.5763 91.1969 24.674 91.63 24.6584C94.1234 24.6584 94.69 22.6751 94.69 20.8051V16.7251H97.07V24.3751H99.6767V14.5718H92.14V20.8051Z" fill="#1A1A1A"/>
<path d="M158.383 22.2218H157.193V14.5718H154.587V22.2218H150.847V14.5718H148.183V24.3751H155.72C155.719 25.1592 155.894 25.9336 156.23 26.6418H158.893C158.893 26.6418 158.157 25.5084 158.383 22.2218Z" fill="#1A1A1A"/>
<path d="M84.5467 22.4485C82.9033 22.4485 82.0533 21.2019 82.0533 19.5019C82.0533 17.8019 82.9033 16.5552 84.5467 16.5552C86.19 16.5552 87.04 17.8585 87.04 19.5019C87.04 21.1452 86.19 22.4485 84.5467 22.4485ZM84.5467 14.3452C81.26 14.3452 79.39 16.5552 79.39 19.5019C79.39 22.4485 81.2033 24.6585 84.5467 24.6585C87.89 24.6585 89.7033 22.4485 89.7033 19.5019C89.7033 16.5552 87.8333 14.3452 84.5467 14.3452Z" fill="#1A1A1A"/>
</g>
<defs>
<clipPath id="clip0_320_335">
<rect width="170" height="34.9633" fill="white" transform="translate(3.05176e-05 0.518555)"/>
</clipPath>
</defs>
</svg>
