<svg width="180" height="66" viewBox="0 0 180 66" fill="none" xmlns="http://www.w3.org/2000/svg">
<path d="M41.0876 33.0798C41.0876 45.3023 59.0763 45.3023 59.0763 33.0798C59.0763 20.9031 41.0876 20.9031 41.0876 33.0798ZM45.7004 33.0798C45.7004 26.7364 54.5062 26.7364 54.5062 33.0798C54.4093 34.1807 53.9034 35.2053 53.0884 35.9517C52.2734 36.698 51.2084 37.112 50.1033 37.112C48.9982 37.112 47.9331 36.698 47.1181 35.9517C46.3031 35.2053 45.7973 34.1807 45.7004 33.0798ZM91.1003 35.6583L87.657 41.2488V41.9144H92.667L95.6683 36.7234H98.0082V41.9133H102.489V24.2814H94.7854C87.8998 24.3027 86.6633 32.6431 91.1003 35.6594V35.6583ZM98.0082 28.3169V32.886H94.8077C92.3794 32.886 92.2474 28.3382 94.8077 28.3169C95.8451 28.2956 98.0082 28.3169 98.0082 28.3169ZM127.363 41.9133V26.3636C127.361 25.7543 127.119 25.1704 126.689 24.7387C126.259 24.3069 125.676 24.0623 125.067 24.0578C124.458 24.0625 123.875 24.3075 123.445 24.7394C123.015 25.1713 122.773 25.7554 122.772 26.3647V30.6888H117.232V26.3647C117.231 25.7554 116.989 25.1713 116.559 24.7394C116.129 24.3075 115.546 24.0625 114.937 24.0578C114.328 24.0625 113.745 24.3075 113.315 24.7394C112.886 25.1713 112.644 25.7554 112.642 26.3647V41.9133H117.232V34.8361H122.772V41.9123L127.363 41.9133ZM145.174 24.0578H143.231L135.33 41.269V41.9357H139.722L140.627 39.7172H147.778L148.683 41.9357H153.075V41.2701L145.174 24.0578ZM142.017 36.324L144.203 31.0221L146.387 36.324H142.017ZM81.1911 41.269L73.2884 24.0578H71.3905L63.4899 41.269V41.9133H68.0803L72.3405 32.3311L76.5996 41.9133H81.19V41.2701L81.1911 41.269ZM0.322808 24.2804C0.0352442 24.2804 -0.0968221 24.6127 0.0799763 24.8342L2.75112 27.7183H19.2594V31.511H6.26047L9.43858 34.9266H19.2594V38.7193H12.9479L16.1037 42.1359H21.5333C22.1426 42.1312 22.7254 41.8862 23.1551 41.4543C23.5848 41.0224 23.8268 40.4383 23.8285 39.829V28.4277H29.4562V39.829C29.4562 41.0933 30.4936 42.1359 31.7514 42.1359C32.3609 42.1315 32.9439 41.8866 33.3739 41.4547C33.8039 41.0227 34.046 40.4385 34.0476 39.829V24.2793H0.321743L0.322808 24.2804Z" fill="black"/>
<path d="M143.782 65.4842L146.519 60.4487V57.3653H148.814V60.4487L151.551 65.4832H148.991L147.666 62.6448L146.342 65.4832L143.782 65.4842ZM147.6 0.516113C148.726 0.516113 149.631 0.915507 150.381 1.69193C151.132 2.46835 151.507 3.42157 151.507 4.57502C151.507 5.72847 151.132 6.70512 150.381 7.48048C149.631 8.25797 148.704 8.63393 147.6 8.63393H144.268V0.516113H147.6ZM147.6 6.37176C148.528 6.37176 149.212 5.64007 149.212 4.57502C149.212 3.50997 148.528 2.77828 147.6 2.77828H146.674V6.39519H147.6V6.37389V6.37176ZM159.341 9.23356L162.012 10.6096L161.041 12.4947L156.34 10.0547L160.048 2.84644L164.705 5.26411L163.734 7.17055L161.129 5.81794L160.732 6.59542L163.093 7.81491L162.144 9.65532L159.761 8.43583L159.341 9.23356ZM168.679 16.9956L170.268 19.1257L168.479 20.4784L165.522 16.4866L171.989 11.6289L173.38 13.4916L168.679 16.9956ZM178.279 23.0739L178.897 25.2913L171.128 27.4651L170.509 25.2253L178.279 23.0739ZM171.635 35.2304L180 33.8554L179.625 36.3838L174.35 36.9377L179.228 39.0007L178.853 41.5302L171.238 37.7812L171.635 35.2304ZM169.076 48.1154L167.332 50.5778L165.61 49.3359L168.679 44.9884L175.255 49.6906L172.209 53.9721L170.488 52.7515L172.188 50.3339L171.482 49.8237L169.959 51.9964L168.259 50.7993L169.804 48.6266L169.076 48.1154ZM157.863 54.9935L160.181 56.6336L160.689 56.3674L159.497 54.1276L161.527 53.0412L165.323 60.1835L162.476 61.7129C161.704 62.1346 160.931 62.2454 160.181 62.0462C159.43 61.8684 158.857 61.4029 158.459 60.6265C158.017 59.7841 158.04 58.8521 158.503 58.0757L155.679 56.1682L157.863 54.9924V54.9935ZM162.299 59.3847L161.593 58.0534L160.821 58.4751C160.38 58.6967 160.247 59.096 160.467 59.4954C160.689 59.9161 161.086 60.028 161.527 59.783L162.299 59.3847Z" fill="#90BD3A"/>
</svg>
