<svg width="1680" height="239" viewBox="0 0 1680 239" fill="none"
  xmlns="http://www.w3.org/2000/svg">
  <path d="M1 238.139H17.5504V55.2237H1V238.139Z"/>
  <path d="M87.8317 85.8326L85.9648 89.0796V85.3341V54.1989H67.3616V239.16H85.9648V141.483C85.9648 118.925 92.1353 100.525 103.384 87.7492C114.646 74.959 130.909 67.9103 150.866 67.9103C167.829 67.9103 181.491 73.1409 190.909 82.8602C200.323 92.5755 205.383 106.657 205.383 124.139V239.16H224.354V124.139C224.354 101.561 217.26 83.0698 204.764 70.2285C192.272 57.3899 174.292 50.1076 152.343 50.1076C123.453 50.1076 101.278 62.4467 87.8317 85.8326Z" />
  <path d="M277.815 231.217L277.815 231.217C268.486 223.231 263.846 210.668 263.846 192.54V7.59378L283.884 1.71445V52.6876V53.6876H284.884H339.166V72.8794H284.884H283.884V73.8794V192.54C283.884 204.322 286.163 212.213 291.37 216.962M277.815 231.217ZM277.815 231.217C285.943 238.174 297.965 241.71 314.452 241.71C321.683 241.71 329.76 241.028 338.709 239.665M338.71 239.665M277.815 231.217M338.71 239.665M338.71 239.665M339.166 239.596M338.71 239.665M339.166 239.596M339.166 239.596V221.904M338.579 221.955C327.581 222.931 317.948 223.627 310.026 223.13C302.121 222.634 295.729 220.94 291.37 216.963M339.166 239.596Z" />
  <path d="M370.079 137.126H368.956L369.086 136.01C373.686 96.4143 404.455 68.9313 444.593 68.9313C482.823 68.9313 511.126 95.8672 515.671 136.013L515.797 137.126H514.678H370.079ZM527.906 201.958L528.452 201.056L510.268 190.352L509.747 191.304L509.747 191.304C498.33 212.109 474.624 224.428 446.481 224.428C405.258 224.428 374.399 198.02 369.128 158.471L368.977 157.339H370.119H536.962V156.293C536.962 154.833 537.053 153.368 537.142 151.939L537.143 151.92C537.143 151.92 537.143 151.92 537.143 151.92C537.238 150.389 537.33 148.895 537.33 147.416C537.33 99.6478 504.769 49.0856 444.593 49.0856C388.291 49.0856 347.465 90.1003 347.465 146.681C347.465 203.247 388.915 244.273 446.113 244.273C481.884 244.273 511.653 228.812 527.906 201.958C527.906 201.958 527.906 201.958 527.906 201.958Z" />
  <path d="M596.067 75.3545L594.254 77.8914V74.7729V51.1308H569.497V242.229H594.254V136.33C594.254 112.938 601.804 96.9379 613.013 86.7962C624.201 76.6731 638.918 72.492 653.079 72.492H656.184V48.5538H653.079C628.007 48.5538 608.628 57.7833 596.067 75.3545Z" />
  <path d="M705.874 122.795L705.875 122.796C714.817 128.425 727.786 131.733 741.283 135.177L741.366 135.198C741.366 135.198 741.366 135.198 741.366 135.198C756.843 139.149 773.135 143.318 785.577 151.387C791.778 155.408 796.992 160.381 800.659 166.753C804.324 173.121 806.475 180.939 806.475 190.701C806.475 207.054 799.374 220.927 787.163 230.733C774.937 240.55 757.545 246.32 736.968 246.32C701 246.32 673.665 230.125 663.555 203.24M705.874 122.795ZM705.874 122.795C702.036 120.371 699.138 117.633 697.168 114.415C695.2 111.201 694.191 107.565 694.043 103.394C694.022 103.166 694.024 102.932 694.025 102.765C694.026 102.727 694.026 102.692 694.026 102.662C694.026 89.199 702.532 78.7319 717.11 73.8703C722.631 71.9469 728.806 70.9781 735.45 70.9781C739.595 70.9781 743.668 71.3698 747.577 72.1481C763.172 75.1833 774.766 84.0533 780.097 97.1912M780.097 97.1918M705.874 122.795M780.097 97.1918M780.097 97.1918L781.428 100.477L802.499 88.4518L801.367 85.9046C801.367 85.9045 801.367 85.9045 801.367 85.9044C793.975 69.2693 779.825 56.8506 761.487 50.9568M761.486 50.9564M780.097 97.1918M761.486 50.9564M761.486 50.9564C753.454 48.3613 744.697 47.0399 735.45 47.0399C734.34 47.0399 733.245 47.045 732.409 47.1202M732.38 47.1228M761.486 50.9564M732.38 47.1228M732.38 47.1228M732.35147.1237M732.38 47.1228M732.351 47.1237M732.351 47.1237C695.627 48.2875 669.265 71.7567 669.265 102.662C669.265 110.843 670.897 118.085 674.066 124.175M674.071 124.184M732.351 47.1237M674.071 124.184M674.071 124.184C677.734 131.399 683.528 137.35 691.859 142.374C703.846 149.582 718.928 153.484 733.696 157.296M733.696 157.296M674.071 124.184M733.696 157.296M733.696 157.296M733.801 157.323M733.696 157.296M733.801 157.323M733.801 157.323C746.403 160.577 758.319 163.654 767.076 168.477M733.801 157.323M767.076 168.477M767.076 168.477C771.484 170.904 775.151 173.803 777.716 177.443M767.076 168.477M777.716 177.443M777.716 177.443C780.291 181.098 781.718 185.448 781.718 190.701M777.716 177.443M781.718 190.701M781.718 190.701C781.718 202.45 775.572 210.42 766.91 215.402M781.718 190.701M766.91 215.402M766.91 215.402C758.295 220.358 747.167 222.384 736.968 222.384M766.91 215.402M736.968 222.384M736.968 222.384C711.195 222.384 691.761 211.118 685.372 191.938M736.968 222.384M685.372 191.938M685.372 191.938C685.372 191.938 685.372 191.938 685.372 191.938M685.372 191.938M685.372 191.938M685.372 191.938M684.168 188.324M685.372 191.938L684.168 188.324M684.168 188.324M662.638 200.795M663.555 203.239L684.168 188.324Z" />
  <path d="M861.589 90.0965L859.746 92.9854V89.5587V53.1777H839.092V314.149H859.746V203.834V200.411L861.589 203.296C878.285 229.433 905.887 244.274 938.477 244.274C992.946 244.274 1035.61 201.419 1035.61 146.681C1035.61 91.9419 992.946 49.0863 938.477 49.0863C905.877 49.0863 878.28 63.9353 861.589 90.0965ZM937.328 224.429C893.829 224.429 859.746 190.268 859.746 146.681C859.746 103.095 893.829 68.9321 937.328 68.9321C980.849 68.9321 1014.95 103.095 1014.95 146.681C1014.95 190.268 980.849 224.429 937.328 224.429Z" />
  <path d="M1237.25 94.1072V97.7898L1235.39 94.613C1218.98 66.6304 1190.53 50.6211 1156.98 50.6211C1131.43 50.6211 1107.48 60.4248 1089.54 78.2269L1088.83 77.5169L1089.54 78.2269C1071.39 96.2267 1061.39 120.533 1061.39 146.681C1061.39 172.829 1071.39 197.134 1089.54 215.133L1089.54 215.134C1107.48 232.936 1131.43 242.739 1156.98 242.739C1190.52 242.739 1218.97 226.744 1235.39 198.785L1237.25 195.613V199.291V238.649H1255.19V54.7114H1237.25V94.1072ZM1158.5 225.962C1114.11 225.962 1079.33 191.129 1079.33 146.681C1079.33 102.233 1114.11 67.3981 1158.5 67.3981C1202.65 67.3981 1237.25 102.238 1237.25 146.681C1237.25 191.124 1202.65 225.962 1158.5 225.962Z" />
  <path d="M1457.79 186.942L1473.39 196.255L1473.38 196.273L1473.38 196.274C1458.33 225.215 1426.78 243.251 1390.99 243.251C1335.33 243.251 1293.41 201.742 1293.41 146.68C1293.41 91.6169 1335.33 50.107 1390.99 50.107C1427.47 50.107 1458.43 68.316 1471.91 97.4955C1471.91 97.4961 1471.91 97.4967 1471.91 97.4973L1471.92 97.5119L1456.69 106.416L1456.68 106.392L1456.68 106.392C1445.67 82.604 1420.45 67.9098 1390.99 67.9098C1346.92 67.9098 1312.39 102.52 1312.39 146.68C1312.39 190.841 1346.92 225.451 1390.99 225.451C1419.9 225.451 1444.89 211.084 1457.78 186.968L1457.79 186.942ZM1457.79 186.942L1457.78 186.967L1457.79 186.942Z"/>
  <path d="M1511.57 139.171H1510.48L1510.57 138.081C1514.31 96.5434 1545.52 66.8862 1588.36 66.8862C1625.24 66.8862 1657.6 92.4422 1661.71 138.081L1661.81 139.171H1660.71H1511.57ZM1589.83 242.229C1625.83 242.229 1654.18 226.112 1669.34 201.764L1654.76 193.185C1643.61 212.672 1620.5 226.474 1590.2 226.474C1547.45 226.474 1515.06 198.745 1510.57 156.399L1510.46 155.294H1511.57H1678.64C1678.67 154.124 1678.75 152.956 1678.82 151.81L1678.82 151.794C1678.91 150.305 1679 148.853 1679 147.417C1679 97.2002 1644.08 51.1318 1588.36 51.1318C1532.17 51.1318 1493.24 92.8398 1493.24 146.68C1493.24 201.966 1533.25 242.229 1589.83 242.229Z"/>
</svg>
