<svg viewBox="0 0 197 70" fill="none" xmlns="http://www.w3.org/2000/svg">
<g clip-path="url(#clip0_320_608)">
<path d="M110.98 1.65875H116.415V46.9585H133.546V0H110.98V1.65875Z" fill="#1A1A1A"/>
<path d="M162.191 25.2351V9.11914L145.056 13.3544V25.2351V26.8938V46.9588H162.191V26.8938H174.16V25.2351H162.191Z" fill="#1A1A1A"/>
<path d="M37.3933 6.35684H44.6682L18.6966 35.2754L17.9599 35.4607V6.36105V4.60547H0V6.35684V6.36105V46.9582H17.9599V38.1298L18.7893 37.9446L23.454 46.9582H43.8473L32.1435 24.0389L47.9857 6.35684H53.5093V4.60547H37.3933V6.35684Z" fill="#1A1A1A"/>
<path d="M60.2327 25.2344V26.8931V46.9581H77.3632V26.8931V25.2344H60.359H60.2327Z" fill="#1A1A1A"/>
<path d="M87.3367 25.2344H87.3114V26.8931V46.9581H104.442V25.2344H102.48H87.3367Z" fill="#1A1A1A"/>
<path d="M47.329 53.7744H26.9778L33.9875 67.3264H29.6553V69.0736H59.2223V67.3264H54.2461L47.329 53.7744Z" fill="#1A1A1A"/>
<path d="M87.3114 55.0795C87.3114 58.4475 86.6967 61.0872 85.4716 62.9986C84.2465 64.9099 82.8404 65.8614 81.2616 65.8529C79.6955 65.8529 78.6514 65.2707 78.1294 64.1058C77.6073 62.9409 77.3506 60.5146 77.359 56.8267V53.7744H60.2284V54.6164C60.2284 64.872 64.9857 69.9998 74.5046 69.9998C78.3104 69.9998 81.1816 69.3388 83.1182 68.0169C85.1138 66.615 86.642 64.6405 87.4925 62.3544L88.5071 69.0904H104.438V53.7744H87.3072L87.3114 55.0795Z" fill="#1A1A1A"/>
<path d="M171.537 63.5501C170.156 65.3941 168.544 66.316 166.7 66.316C164.856 66.316 163.643 65.6395 163.062 64.2868C162.477 62.9396 162.187 60.8178 162.187 57.9339V53.7744H145.056V55.9047C145.056 61.2375 146.407 64.9225 149.11 66.9602C151.813 68.9978 155.712 70.0112 160.806 69.9998C165.904 69.9998 169.55 68.7566 171.752 66.2697C173.954 63.7829 175.301 60.4149 175.802 56.1657L174.236 55.9805C173.819 59.1885 172.918 61.7116 171.537 63.5501Z" fill="#1A1A1A"/>
<path d="M193.871 55.9051C192.398 54.6168 190.402 53.9727 187.884 53.9727C185.367 53.9727 183.418 54.7389 182.037 56.2713C180.647 57.8252 179.907 59.8511 179.965 61.9338C179.907 64.0156 180.61 66.0466 181.944 67.6468C183.262 69.2129 185.257 69.996 187.931 69.996C190.604 69.996 192.633 69.2592 194.01 67.7857C195.391 66.3122 196.081 64.2859 196.081 61.7065C196.081 59.127 195.345 57.1933 193.871 55.9051Z" fill="#1A1A1A"/>
<path d="M17.9599 53.7744H0V67.3264V69.082H17.9599V67.3264V53.7744Z" fill="#1A1A1A"/>
<path d="M116.415 66.6529V67.4191V69.0736H133.546V67.4191V66.6529V53.7744H116.415V66.6529Z" fill="#1A1A1A"/>
</g>
<defs>
<clipPath id="clip0_320_608">
<rect width="196.081" height="70" fill="white"/>
</clipPath>
</defs>
</svg>
