<svg width="170" height="50" viewBox="0 0 170 50" fill="none" xmlns="http://www.w3.org/2000/svg">
<g clip-path="url(#clip0_320_399)">
<path d="M122.076 0.816485C124.296 0.829953 125.284 2.51204 124.27 4.5545C123.256 6.59677 120.611 8.25684 118.39 8.24357C116.17 8.2301 115.183 6.54821 116.196 4.50574C117.21 2.46328 119.856 0.803208 122.076 0.816485Z" fill="#1A1A1A"/>
<path d="M114.411 34.9998L95.2649 34.9636L95.3126 9.75928L102.098 9.772L102.061 29.6448L114.421 29.6682L114.411 34.9998Z" fill="#1A1A1A"/>
<path d="M122.795 34.9817H116.01V9.77734H122.795V34.9817Z" fill="#1A1A1A"/>
<path d="M124.388 9.77734H131.174V19.9561L140.141 9.77734H148.139L138.638 19.6167L148.623 34.9817H140.335L133.937 24.4636L131.174 27.3236V34.9817H124.388V9.77734Z" fill="#1A1A1A"/>
<path d="M152.273 19.4713H162.985C162.55 16.3692 161.193 14.1398 157.848 14.1398C154.504 14.1398 152.855 16.3692 152.273 19.4713ZM157.848 9.05029C166.136 9.05029 169.966 15.0121 169.966 22.3797C169.966 22.9612 169.917 23.8337 169.917 23.8337H152.08C152.371 27.7113 154.019 30.6193 158.09 30.6193C162.21 30.6193 162.937 26.7416 162.937 26.7416H169.723C169.723 26.7416 168.269 35.7088 157.848 35.7088C149.365 35.7088 145.245 29.747 145.245 22.3797C145.245 15.0121 149.559 9.05029 157.848 9.05029Z" fill="#1A1A1A"/>
<path d="M19.1457 34.9998L0 34.9636L0.047568 9.75928L6.83342 9.772L6.79585 29.6448L19.1557 29.6682L19.1457 34.9998Z" fill="#1A1A1A"/>
<path d="M27.5306 34.9817H20.7448V9.77734H27.5306V34.9817Z" fill="#1A1A1A"/>
<path d="M29.1232 9.77734H35.909V19.9561L44.876 9.77734H52.8734L43.3732 19.6167L53.3583 34.9817H45.0697L38.6718 24.4636L35.909 27.3236V34.9817H29.1232V9.77734Z" fill="#1A1A1A"/>
<path d="M57.0086 19.4713H67.7207C67.2846 16.3692 65.9271 14.1398 62.5829 14.1398C59.2387 14.1398 57.5906 16.3692 57.0086 19.4713ZM62.5829 9.05029C70.8713 9.05029 74.7005 15.0121 74.7005 22.3797C74.7005 22.9612 74.652 23.8337 74.652 23.8337H56.815C57.1058 27.7113 58.7538 30.6193 62.8252 30.6193C66.9454 30.6193 67.6722 26.7416 67.6722 26.7416H74.458C74.458 26.7416 73.004 35.7088 62.5829 35.7088C54.1007 35.7088 49.9808 29.747 49.9808 22.3797C49.9808 15.0121 54.2943 9.05029 62.5829 9.05029Z" fill="#1A1A1A"/>
<path d="M86.8975 17.5322L81.3175 25.5036H81.3178L86.8975 17.5322Z" fill="#1A1A1A"/>
<path d="M86.8976 25.5036H86.8977V17.5322H86.8976V25.5036Z" fill="#1A1A1A"/>
<path d="M86.8977 25.504H81.3177H81.3176L86.8976 17.5326H86.8977V25.504ZM86.8976 9.77734L75.5823 25.504V30.8359L86.8976 30.8361V34.9817H93.6838V30.8363V30.18V29.65V25.504V9.77734H86.8976Z" fill="#1A1A1A"/>
<path d="M70.7378 44.8443C71.5593 44.8494 71.9246 45.4718 71.5496 46.2275C71.1744 46.9833 70.1953 47.5977 69.3738 47.5927C68.5521 47.5876 68.1868 46.9654 68.5619 46.2097C68.9369 45.4537 69.9161 44.8394 70.7378 44.8443Z" fill="#1A1A1A"/>
<path d="M108.846 44.8443C109.667 44.8494 110.033 45.4718 109.658 46.2275C109.283 46.9833 108.303 47.5977 107.482 47.5927C106.66 47.5876 106.295 46.9654 106.67 46.2097C107.045 45.4537 108.024 44.8394 108.846 44.8443Z" fill="#1A1A1A"/>
<path d="M16.1066 43.4375V48.9996H14.8193V46.7193H12.2925V48.9996H11.0052V43.4375H12.2925V45.6306H14.8193V43.4375H16.1066Z" fill="#1A1A1A"/>
<path d="M21.0092 47.7716C21.2739 47.6208 21.482 47.4103 21.633 47.14C21.7839 46.8701 21.8595 46.5625 21.8595 46.2184C21.8595 45.874 21.7839 45.5667 21.633 45.2967C21.482 45.0266 21.2739 44.8159 21.0092 44.6651C20.7443 44.514 20.4477 44.4385 20.1193 44.4385C19.7909 44.4385 19.4941 44.514 19.2294 44.6651C18.9643 44.8159 18.7565 45.0266 18.6056 45.2967C18.4546 45.5667 18.3791 45.874 18.3791 46.2184C18.3791 46.5625 18.4546 46.8701 18.6056 47.14C18.7565 47.4103 18.9643 47.6208 19.2294 47.7716C19.4941 47.9225 19.7909 47.9984 20.1193 47.9984C20.4477 47.9984 20.7443 47.9225 21.0092 47.7716ZM18.5579 48.7213C18.0943 48.4725 17.7315 48.1294 17.4693 47.6921C17.2072 47.2554 17.076 46.764 17.076 46.2184C17.076 45.6729 17.2072 45.1814 17.4693 44.7443C17.7315 44.3073 18.0943 43.9643 18.5579 43.7155C19.0215 43.4664 19.5418 43.3418 20.1193 43.3418C20.6968 43.3418 21.2159 43.4664 21.6768 43.7155C22.1376 43.9643 22.5003 44.3073 22.7652 44.7443C23.0301 45.1814 23.1626 45.6729 23.1626 46.2184C23.1626 46.764 23.0301 47.2554 22.7652 47.6921C22.5003 48.1294 22.1376 48.4725 21.6768 48.7213C21.2159 48.9704 20.6968 49.0948 20.1193 49.0948C19.5418 49.0948 19.0215 48.9704 18.5579 48.7213Z" fill="#1A1A1A"/>
<path d="M24.6841 48.9161C24.2734 48.7969 23.9438 48.6418 23.695 48.451L24.132 47.4818C24.3705 47.6565 24.6536 47.7968 24.9822 47.9029C25.3106 48.0089 25.639 48.0618 25.9675 48.0618C26.3331 48.0618 26.6031 48.0076 26.7781 47.8989C26.9527 47.7904 27.0401 47.6459 27.0401 47.4659C27.0401 47.3335 26.9886 47.2236 26.8852 47.1361C26.782 47.0488 26.6495 46.9785 26.488 46.9255C26.3262 46.8725 26.1077 46.8143 25.8325 46.7508C25.4085 46.65 25.0616 46.5495 24.7915 46.4487C24.5214 46.3483 24.2894 46.1866 24.0962 45.9639C23.9027 45.7414 23.8061 45.445 23.8061 45.0742C23.8061 44.7512 23.8936 44.4582 24.0684 44.1961C24.2431 43.9339 24.5066 43.7259 24.859 43.5724C25.2112 43.4186 25.6417 43.3418 26.1501 43.3418C26.5051 43.3418 26.8522 43.3845 27.1912 43.4691C27.53 43.5538 27.8268 43.6757 28.0811 43.8346L27.6837 44.8119C27.1698 44.5207 26.656 44.3749 26.1424 44.3749C25.782 44.3749 25.5156 44.4332 25.3437 44.5497C25.1714 44.6662 25.0855 44.8199 25.0855 45.0106C25.0855 45.2013 25.1849 45.3431 25.3835 45.4357C25.5821 45.5283 25.8854 45.6199 26.2932 45.7098C26.7169 45.8106 27.064 45.9113 27.3341 46.0117C27.6044 46.1123 27.836 46.2712 28.0295 46.4887C28.2228 46.7058 28.3196 46.9999 28.3196 47.3704C28.3196 47.6884 28.2308 47.9783 28.0533 48.2405C27.8757 48.5028 27.6096 48.7109 27.2546 48.8644C26.8998 49.0179 26.4681 49.0948 25.9595 49.0948C25.5196 49.0948 25.0946 49.0353 24.6841 48.9161Z" fill="#1A1A1A"/>
<path d="M32.4193 46.167C32.6206 46 32.7214 45.7632 32.7214 45.4557C32.7214 45.1433 32.6206 44.9035 32.4193 44.7366C32.2179 44.5699 31.9239 44.4864 31.5373 44.4864H30.4886V46.4171H31.5373C31.9239 46.4171 32.2179 46.3336 32.4193 46.167ZM32.8921 43.6839C33.2548 43.8482 33.5345 44.0811 33.7304 44.383C33.9263 44.685 34.0245 45.0426 34.0245 45.4557C34.0245 45.8637 33.9263 46.2198 33.7304 46.5245C33.5345 46.8291 33.2548 47.0623 32.8921 47.2239C32.5292 47.3853 32.1014 47.4661 31.6089 47.4661H30.4886V48.9996H29.2013V43.4375H31.6089C32.1014 43.4375 32.5292 43.5196 32.8921 43.6839Z" fill="#1A1A1A"/>
<path d="M34.9384 43.4375H36.2255V48.9996H34.9384V43.4375Z" fill="#1A1A1A"/>
<path d="M38.6967 44.4864H36.9167V43.4375H41.7638V44.4864H39.984V48.9996H38.6967V44.4864Z" fill="#1A1A1A"/>
<path d="M45.4348 46.8305L44.5528 44.7009L43.6708 46.8305H45.4348ZM45.8403 47.8077H43.2577L42.7652 48.9996H41.4462L43.9252 43.4375H45.1967L47.6835 48.9996H46.3328L45.8403 47.8077Z" fill="#1A1A1A"/>
<path d="M48.2638 43.4375H49.551V47.951H52.34V48.9996H48.2638V43.4375Z" fill="#1A1A1A"/>
<path d="M53.0627 43.4375H54.3501V48.9996H53.0627V43.4375Z" fill="#1A1A1A"/>
<path d="M56.8213 44.4864H55.0413V43.4375H59.8884V44.4864H58.1084V48.9996H56.8213V44.4864Z" fill="#1A1A1A"/>
<path d="M63.1464 47.029V48.9996H61.8589V47.013L59.7057 43.4375H61.0724L62.5583 45.9087L64.044 43.4375H65.3076L63.1464 47.029Z" fill="#1A1A1A"/>
<path d="M78.0605 44.7366C77.859 44.5699 77.5652 44.4864 77.1784 44.4864H76.1297V46.4251H77.1784C77.5652 46.4251 77.859 46.3406 78.0605 46.171C78.2618 46.0013 78.3625 45.7632 78.3625 45.4557C78.3625 45.1433 78.2618 44.9035 78.0605 44.7366ZM78.3864 48.9996L77.3135 47.4502H76.1297V48.9996H74.8424V43.4375H77.25C77.7428 43.4375 78.1703 43.5196 78.5333 43.6839C78.8959 43.8482 79.1756 44.0811 79.3715 44.383C79.5674 44.685 79.6656 45.0426 79.6656 45.4557C79.6656 45.869 79.5661 46.2252 79.3675 46.5245C79.1689 46.8238 78.8868 47.0527 78.5214 47.2118L79.7689 48.9996H78.3864Z" fill="#1A1A1A"/>
<path d="M84.9889 47.9668V48.9996H80.6824V43.4375H84.8858V44.4704H81.9616V45.6782H84.5442V46.6795H81.9616V47.9668H84.9889Z" fill="#1A1A1A"/>
<path d="M87.1663 44.4864H85.3864V43.4375H90.2334V44.4864H88.4535V48.9996H87.1663V44.4864Z" fill="#1A1A1A"/>
<path d="M93.9044 46.8305L93.0224 44.7009L92.1404 46.8305H93.9044ZM94.3099 47.8077H91.7273L91.2348 48.9996H89.9158L92.3948 43.4375H93.666L96.1533 48.9996H94.8022L94.3099 47.8077Z" fill="#1A1A1A"/>
<path d="M96.7333 43.4375H98.0204V48.9996H96.7333V43.4375Z" fill="#1A1A1A"/>
<path d="M99.3394 43.4375H100.627V47.951H103.416V48.9996H99.3394V43.4375Z" fill="#1A1A1A"/>
<path d="M114.199 44.4704V45.9406H116.774V46.9734H114.199V48.9996H112.912V43.4375H117.115V44.4704H114.199Z" fill="#1A1A1A"/>
<path d="M121.518 47.7716C121.782 47.6208 121.99 47.4103 122.141 47.14C122.292 46.8701 122.368 46.5625 122.368 46.2184C122.368 45.874 122.292 45.5667 122.141 45.2967C121.99 45.0266 121.782 44.8159 121.518 44.6651C121.253 44.514 120.956 44.4385 120.628 44.4385C120.299 44.4385 120.002 44.514 119.738 44.6651C119.473 44.8159 119.265 45.0266 119.114 45.2967C118.963 45.5667 118.887 45.874 118.887 46.2184C118.887 46.5625 118.963 46.8701 119.114 47.14C119.265 47.4103 119.473 47.6208 119.738 47.7716C120.002 47.9225 120.299 47.9984 120.628 47.9984C120.956 47.9984 121.253 47.9225 121.518 47.7716ZM119.066 48.7213C118.603 48.4725 118.24 48.1294 117.978 47.6921C117.716 47.2554 117.584 46.764 117.584 46.2184C117.584 45.6729 117.716 45.1814 117.978 44.7443C118.24 44.3073 118.603 43.9643 119.066 43.7155C119.53 43.4664 120.05 43.3418 120.628 43.3418C121.205 43.3418 121.724 43.4664 122.185 43.7155C122.646 43.9643 123.009 44.3073 123.274 44.7443C123.538 45.1814 123.671 45.6729 123.671 46.2184C123.671 46.764 123.538 47.2554 123.274 47.6921C123.009 48.1294 122.646 48.4725 122.185 48.7213C121.724 48.9704 121.205 49.0948 120.628 49.0948C120.05 49.0948 119.53 48.9704 119.066 48.7213Z" fill="#1A1A1A"/>
<path d="M128.224 47.7716C128.489 47.6208 128.697 47.4103 128.848 47.14C128.999 46.8701 129.074 46.5625 129.074 46.2184C129.074 45.874 128.999 45.5667 128.848 45.2967C128.697 45.0266 128.489 44.8159 128.224 44.6651C127.959 44.514 127.662 44.4385 127.334 44.4385C127.005 44.4385 126.709 44.514 126.444 44.6651C126.179 44.8159 125.971 45.0266 125.82 45.2967C125.669 45.5667 125.594 45.874 125.594 46.2184C125.594 46.5625 125.669 46.8701 125.82 47.14C125.971 47.4103 126.179 47.6208 126.444 47.7716C126.709 47.9225 127.005 47.9984 127.334 47.9984C127.662 47.9984 127.959 47.9225 128.224 47.7716ZM125.772 48.7213C125.309 48.4725 124.946 48.1294 124.684 47.6921C124.422 47.2554 124.291 46.764 124.291 46.2184C124.291 45.6729 124.422 45.1814 124.684 44.7443C124.946 44.3073 125.309 43.9643 125.772 43.7155C126.236 43.4664 126.757 43.3418 127.334 43.3418C127.911 43.3418 128.43 43.4664 128.891 43.7155C129.352 43.9643 129.715 44.3073 129.98 44.7443C130.245 45.1814 130.377 45.6729 130.377 46.2184C130.377 46.764 130.245 47.2554 129.98 47.6921C129.715 48.1294 129.352 48.4725 128.891 48.7213C128.43 48.9704 127.911 49.0948 127.334 49.0948C126.757 49.0948 126.236 48.9704 125.772 48.7213Z" fill="#1A1A1A"/>
<path d="M133.81 47.943C134.366 47.943 134.81 47.7878 135.141 47.4781C135.472 47.1681 135.638 46.7483 135.638 46.2187C135.638 45.689 135.472 45.2691 135.141 44.9591C134.81 44.6494 134.366 44.4942 133.81 44.4942H132.634V47.943H133.81ZM131.347 43.4375H133.874C134.477 43.4375 135.011 43.5526 135.474 43.783C135.938 44.0136 136.298 44.3381 136.555 44.7565C136.812 45.1749 136.941 45.6623 136.941 46.2187C136.941 46.7749 136.812 47.2621 136.555 47.6807C136.298 48.0992 135.938 48.4237 135.474 48.654C135.011 48.8845 134.477 48.9996 133.874 48.9996H131.347V43.4375Z" fill="#1A1A1A"/>
<path d="M138.983 44.4864H137.203V43.4375H142.05V44.4864H140.27V48.9996H138.983V44.4864Z" fill="#1A1A1A"/>
<path d="M147.048 47.9668V48.9996H142.742V43.4375H146.944V44.4704H144.021V45.6782H146.603V46.6795H144.021V47.9668H147.048Z" fill="#1A1A1A"/>
<path d="M149.182 48.7253C148.722 48.4789 148.362 48.1374 148.101 47.7001C147.839 47.2633 147.708 46.7692 147.708 46.2184C147.708 45.6675 147.839 45.1734 148.101 44.7364C148.362 44.2993 148.722 43.9578 149.182 43.7114C149.64 43.465 150.155 43.3418 150.727 43.3418C151.209 43.3418 151.644 43.4266 152.034 43.5962C152.424 43.7657 152.751 44.0093 153.016 44.3272L152.189 45.0902C151.812 44.6557 151.347 44.4385 150.791 44.4385C150.446 44.4385 150.139 44.514 149.869 44.6651C149.599 44.8159 149.388 45.0266 149.237 45.2967C149.086 45.5667 149.011 45.874 149.011 46.2184C149.011 46.5625 149.086 46.8701 149.237 47.14C149.388 47.4103 149.599 47.6208 149.869 47.7716C150.139 47.9225 150.446 47.9984 150.791 47.9984C151.347 47.9984 151.812 47.7786 152.189 47.3387L153.016 48.1017C152.751 48.4246 152.422 48.6711 152.03 48.8404C151.637 49.01 151.2 49.0948 150.72 49.0948C150.152 49.0948 149.64 48.9717 149.182 48.7253Z" fill="#1A1A1A"/>
<path d="M158.982 43.4375V48.9996H157.695V46.7193H155.168V48.9996H153.881V43.4375H155.168V45.6306H157.695V43.4375H158.982Z" fill="#1A1A1A"/>
</g>
<defs>
<clipPath id="clip0_320_399">
<rect width="170" height="48.3682" fill="white" transform="translate(0 0.815918)"/>
</clipPath>
</defs>
</svg>
