<svg xmlns="http://www.w3.org/2000/svg">
<path d="M4.68213 7.35846C4.68213 8.28328 3.86988 8.96011 2.66312 8.96011C1.53537 8.96011 0.791153 8.43019 0.520187 7.7083L1.00558 7.42636C1.20851 8.03529 1.81731 8.41909 2.66312 8.41909C3.45291 8.41909 4.11826 8.06925 4.11826 7.35846C4.11826 5.82484 0.700659 6.70461 0.700659 4.67411C0.700659 3.78337 1.46799 3.07259 2.6182 3.07259C3.53192 3.07259 4.23082 3.51241 4.53561 4.20021L4.06184 4.47118C3.82483 3.88523 3.23849 3.61439 2.6182 3.61439C1.88483 3.61439 1.26454 3.99728 1.26454 4.67411C1.26454 6.18579 4.68213 5.29492 4.68213 7.35846Z" />
<path d="M7.20066 3.74932V7.41529C7.20066 8.40711 7.73097 8.43009 8.88119 8.32823V8.83608C7.40411 9.062 6.62581 8.70105 6.62581 7.41529V3.74932H5.3851V3.19642H6.62581V1.78685L7.20066 1.61787V3.19642H8.88119V3.74932H7.20066Z" />
<path d="M12.4825 3.11755V3.65935C11.5128 3.65935 10.5989 4.25718 10.5989 5.70082V8.83609H10.0352V3.19655H10.5989V4.30223C10.9829 3.41136 11.7157 3.11755 12.4825 3.11755Z" />
<path d="M18.1978 6.01672C18.1978 4.67416 17.1601 3.61431 15.8179 3.61431C14.4758 3.61431 13.4271 4.67416 13.4271 6.01672C13.4271 7.35838 14.4758 8.41913 15.8179 8.41913C17.1601 8.41913 18.1978 7.35838 18.1978 6.01672ZM18.7727 3.19643V8.8361H18.1978V7.56131C17.7239 8.40713 16.8557 8.96003 15.773 8.96003C14.1713 8.96003 12.8517 7.68537 12.8517 6.01672C12.8517 4.34716 14.1713 3.0725 15.773 3.0725C16.8557 3.0725 17.7239 3.62541 18.1978 4.47109V3.19643H18.7727Z" />
<path d="M21.6426 3.74932V7.41529C21.6426 8.40711 22.1729 8.43009 23.3231 8.32823V8.83608C21.846 9.062 21.0677 8.70105 21.0677 7.41529V3.74932H19.827V3.19642H21.0677V1.78685L21.6426 1.61787V3.19642H23.3231V3.74932H21.6426Z" />
<path d="M24.4596 5.75686H28.994C28.8695 4.38112 27.8997 3.61431 26.7945 3.61431C25.5089 3.61431 24.5726 4.50517 24.4596 5.75686ZM29.5803 6.03879C29.5803 6.12877 29.5688 6.21965 29.5688 6.30976H24.4596C24.595 7.58442 25.5653 8.41913 26.8509 8.41913C27.7757 8.41913 28.475 7.99029 28.802 7.39246L29.2984 7.68537C28.836 8.45218 27.9562 8.96003 26.8395 8.96003C25.1029 8.96003 23.8733 7.71932 23.8733 6.01672C23.8733 4.35827 25.0689 3.0725 26.7945 3.0725C28.5086 3.0725 29.5803 4.49407 29.5803 6.03879Z" />
<path d="M35.9008 6.01671C35.9008 4.67415 34.852 3.6143 33.5098 3.6143C32.1677 3.6143 31.1189 4.67415 31.1189 6.01671C31.1189 7.35837 32.1677 8.41913 33.5098 8.41913C34.852 8.41913 35.9008 7.35837 35.9008 6.01671ZM36.4646 3.19643V8.56513C36.4646 10.2568 35.213 11.2154 33.6564 11.2154C32.3367 11.2154 31.4009 10.6856 30.9945 9.86277L31.4908 9.58083C31.7843 10.1778 32.4157 10.6745 33.6564 10.6745C35.0661 10.6745 35.9008 9.85076 35.9008 8.56513V7.52736C35.4384 8.39615 34.5701 8.96002 33.4759 8.96002C31.8633 8.96002 30.5547 7.68536 30.5547 6.01671C30.5547 4.34716 31.8633 3.0725 33.4759 3.0725C34.5701 3.0725 35.4384 3.63638 35.9008 4.50517V3.19643H36.4646Z" />
<path d="M38.1797 3.19647H38.7435V8.83601H38.1797V3.19647Z" />
<path d="M40.0554 6.01672C40.0554 4.34716 41.3186 3.0725 43.0217 3.0725C44.1268 3.0725 45.0741 3.63638 45.4805 4.51615L45.0181 4.78711C44.6907 4.0762 43.9239 3.61431 43.0217 3.61431C41.657 3.61431 40.6308 4.67416 40.6308 6.01672C40.6308 7.35838 41.657 8.41913 43.0217 8.41913C43.9354 8.41913 44.6797 7.94523 45.0517 7.24542L45.5256 7.52736C45.0741 8.39615 44.1268 8.96003 43.0217 8.96003C41.3186 8.96003 40.0554 7.68537 40.0554 6.01672Z" />
<path d="M54.5193 3.19647L52.1393 8.83601H51.4515L49.0602 3.19647H49.6695L51.7895 8.24915L53.9215 3.19647H54.5193Z" />
<path d="M55.5157 3.19647H56.0796V8.83601H55.5157V3.19647Z" />
<path d="M61.5387 7.35846C61.5387 8.28328 60.7264 8.96011 59.5196 8.96011C58.3919 8.96011 57.6477 8.43019 57.3767 7.7083L57.8621 7.42636C58.065 8.03529 58.6738 8.41909 59.5196 8.41909C60.3094 8.41909 60.9748 8.06925 60.9748 7.35846C60.9748 5.82484 57.5572 6.70461 57.5572 4.67411C57.5572 3.78337 58.3245 3.07259 59.4747 3.07259C60.3884 3.07259 61.0873 3.51241 61.3921 4.20021L60.9184 4.47118C60.6813 3.88523 60.095 3.61439 59.4747 3.61439C58.7413 3.61439 58.1211 3.99728 58.1211 4.67411C58.1211 6.18579 61.5387 5.29492 61.5387 7.35846Z" />
<path d="M62.8372 3.19647H63.4011V8.83601H62.8372V3.19647Z" />
<path d="M70.059 6.01672C70.059 4.67416 69.0213 3.61431 67.6791 3.61431C66.337 3.61431 65.2883 4.67416 65.2883 6.01672C65.2883 7.35838 66.337 8.41913 67.6791 8.41913C69.0213 8.41913 70.059 7.35838 70.059 6.01672ZM64.7129 6.01672C64.7129 4.34716 66.0325 3.0725 67.6791 3.0725C69.3147 3.0725 70.6344 4.34716 70.6344 6.01672C70.6344 7.68537 69.3147 8.96003 67.6791 8.96003C66.0325 8.96003 64.7129 7.68537 64.7129 6.01672Z" />
<path d="M76.7616 5.3289V8.83609H76.1868V5.3289C76.1868 4.29113 75.5889 3.6143 74.5287 3.6143C73.4234 3.6143 72.5546 4.33618 72.5546 5.85883V8.83609H71.9909V3.19655H72.5546V4.26828C72.9836 3.43344 73.7054 3.07249 74.5736 3.07249C75.9158 3.07249 76.7616 3.96336 76.7616 5.3289Z" />
<path d="M86.3312 6.01672C86.3312 4.67416 85.2934 3.61431 83.9513 3.61431C82.6092 3.61431 81.5605 4.67416 81.5605 6.01672C81.5605 7.35838 82.6092 8.41913 83.9513 8.41913C85.2934 8.41913 86.3312 7.35838 86.3312 6.01672ZM80.9851 6.01672C80.9851 4.34716 82.3047 3.0725 83.9513 3.0725C85.5869 3.0725 86.9066 4.34716 86.9066 6.01672C86.9066 7.68537 85.5869 8.96003 83.9513 8.96003C82.3047 8.96003 80.9851 7.68537 80.9851 6.01672Z" />
<path d="M89.0357 2.89254V3.19655H90.7162V3.74933H89.0357V8.83609H88.4609V3.74933H87.4906V3.19655H88.4609V2.89254C88.4609 1.50492 89.2386 0.704162 90.7162 0.817118V1.35892C89.566 1.26804 89.0357 1.79783 89.0357 2.89254Z" />
<path d="M99.9457 6.01672C99.9457 4.67416 98.8969 3.61431 97.5547 3.61431C96.2126 3.61431 95.1634 4.67416 95.1634 6.01672C95.1634 7.35838 96.2126 8.41913 97.5547 8.41913C98.8969 8.41913 99.9457 7.35838 99.9457 6.01672ZM100.51 6.01672C100.51 7.68537 99.2013 8.96003 97.5883 8.96003C96.4945 8.96003 95.6262 8.39615 95.1634 7.52736V8.8361H94.5995V0.941057H95.1634V4.50517C95.6262 3.63638 96.4945 3.0725 97.5883 3.0725C99.2013 3.0725 100.51 4.34716 100.51 6.01672Z" />
<path d="M106.528 3.19648V8.83602H105.964V7.76429C105.535 8.59913 104.813 8.95995 103.945 8.95995C102.603 8.95995 101.757 8.06921 101.757 6.70457V3.19648H102.332V6.70457C102.332 7.74234 102.93 8.41905 103.99 8.41905C105.095 8.41905 105.964 7.69729 105.964 6.17464V3.19648H106.528Z" />
<path d="M112.01 7.35846C112.01 8.28328 111.198 8.96011 109.991 8.96011C108.864 8.96011 108.119 8.43019 107.848 7.7083L108.333 7.42636C108.537 8.03529 109.146 8.41909 109.991 8.41909C110.781 8.41909 111.447 8.06925 111.447 7.35846C111.447 5.82484 108.029 6.70461 108.029 4.67411C108.029 3.78337 108.796 3.07259 109.946 3.07259C110.86 3.07259 111.559 3.51241 111.864 4.20021L111.39 4.47118C111.153 3.88523 110.567 3.61439 109.946 3.61439C109.213 3.61439 108.593 3.99728 108.593 4.67411C108.593 6.18579 112.01 5.29492 112.01 7.35846Z" />
<path d="M113.309 3.19647H113.873V8.83601H113.309V3.19647Z" />
<path d="M120.339 5.3289V8.83609H119.764V5.3289C119.764 4.29113 119.166 3.6143 118.106 3.6143C117.001 3.6143 116.132 4.33618 116.132 5.85883V8.83609H115.568V3.19655H116.132V4.26828C116.561 3.43344 117.283 3.07249 118.151 3.07249C119.493 3.07249 120.339 3.96336 120.339 5.3289Z" />
<path d="M122.183 5.75686H126.717C126.593 4.38112 125.623 3.61431 124.518 3.61431C123.232 3.61431 122.296 4.50517 122.183 5.75686ZM127.304 6.03879C127.304 6.12877 127.292 6.21965 127.292 6.30976H122.183C122.318 7.58442 123.289 8.41913 124.574 8.41913C125.499 8.41913 126.198 7.99029 126.525 7.39246L127.022 7.68537C126.559 8.45218 125.68 8.96003 124.563 8.96003C122.826 8.96003 121.597 7.71932 121.597 6.01672C121.597 4.35827 122.792 3.0725 124.518 3.0725C126.232 3.0725 127.304 4.49407 127.304 6.03879Z" />
<path d="M132.338 7.35846C132.338 8.28328 131.526 8.96011 130.319 8.96011C129.192 8.96011 128.447 8.43019 128.177 7.7083L128.662 7.42636C128.865 8.03529 129.474 8.41909 130.319 8.41909C131.109 8.41909 131.775 8.06925 131.775 7.35846C131.775 5.82484 128.357 6.70461 128.357 4.67411C128.357 3.78337 129.124 3.07259 130.275 3.07259C131.188 3.07259 131.887 3.51241 132.192 4.20021L131.718 4.47118C131.481 3.88523 130.895 3.61439 130.275 3.61439C129.541 3.61439 128.921 3.99728 128.921 4.67411C128.921 6.18579 132.338 5.29492 132.338 7.35846Z" />
<path d="M137.48 7.35846C137.48 8.28328 136.668 8.96011 135.461 8.96011C134.333 8.96011 133.589 8.43019 133.318 7.7083L133.803 7.42636C134.006 8.03529 134.615 8.41909 135.461 8.41909C136.251 8.41909 136.916 8.06925 136.916 7.35846C136.916 5.82484 133.498 6.70461 133.498 4.67411C133.498 3.78337 134.266 3.07259 135.416 3.07259C136.329 3.07259 137.028 3.51241 137.333 4.20021L136.859 4.47118C136.622 3.88523 136.036 3.61439 135.416 3.61439C134.682 3.61439 134.062 3.99728 134.062 4.67411C134.062 6.18579 137.48 5.29492 137.48 7.35846Z"/>
</svg>
