<svg xmlns="http://www.w3.org/2000/svg">
<path d="M0 29.0132H2.20839V6.92944H0V29.0132Z" />
<path d="M18.1361 6.31853C14.6575 6.31853 11.9765 7.81212 10.353 10.6449V6.80714H7.90019V29.1352H10.353V17.3506C10.353 12.0045 13.268 8.6835 17.9602 8.6835C21.9495 8.6835 24.3314 11.1492 24.3314 15.2792V29.1352H26.8279V15.2792C26.8279 9.83591 23.4162 6.31853 18.1361 6.31853Z" />
<path d="M33.9147 0.498983L31.2912 1.27121V23.4482C31.2912 25.6321 31.8487 27.1729 32.9958 28.1578C33.9934 29.0145 35.4572 29.4397 37.4348 29.4397C38.3028 29.4397 39.2705 29.3576 40.3404 29.1942L40.496 29.1706V26.8246L40.2965 26.8421C37.6757 27.0753 35.7441 27.1709 34.7671 26.2766C34.1854 25.7443 33.9147 24.8457 33.9147 23.4482V9.27689H40.496V6.74603H33.9147V0.498983Z" />
<path d="M44.0571 16.7108C44.5977 12.0423 48.2097 8.80544 52.9278 8.80544C57.4123 8.80544 60.7362 11.9705 61.2712 16.7108H44.0571ZM52.9278 6.19647C46.1588 6.19647 41.2458 11.1487 41.2458 17.9714C41.2458 24.7941 46.2349 29.7459 53.1087 29.7459C57.4021 29.7459 60.9882 27.883 62.9478 24.6348L63.0751 24.4236L60.7007 23.0215L60.5798 23.2431C59.246 25.6813 56.4696 27.137 53.1525 27.137C48.302 27.137 44.6811 24.0249 44.0618 19.3637H64.043V19.1193C64.043 18.9485 64.0538 18.7765 64.0645 18.6045C64.0757 18.4223 64.0869 18.2402 64.0869 18.0592C64.0869 12.3086 60.1758 6.19647 52.9278 6.19647Z" />
<path d="M70.8635 9.38361V6.44069H67.6782V29.5018H70.8635V16.7352C70.8635 11.2023 74.4196 9.23064 77.7475 9.23064H78.2361V6.13293H77.7475C74.7306 6.13293 72.3846 7.24894 70.8635 9.38361Z" />
<path d="M88.2873 16.4842C86.6703 16.0703 85.1435 15.6791 84.0962 15.0177C83.2049 14.4531 82.776 13.7579 82.743 12.7936C82.7402 12.7671 82.7412 12.7407 82.7412 12.7142C82.7412 11.1675 83.7112 9.95639 85.4088 9.38877C86.0519 9.16389 86.7738 9.04977 87.5535 9.04977C88.0397 9.04977 88.5168 9.09586 88.9743 9.18726C90.7975 9.54316 92.1411 10.5795 92.7584 12.1058L92.9679 12.6247L95.6881 11.0674L95.5096 10.6645C94.615 8.64481 92.903 7.1392 90.6897 6.42558C89.7206 6.1115 88.6657 5.95207 87.5535 5.95207C87.4228 5.95207 87.2867 5.95258 87.1809 5.96214C82.7627 6.10259 79.5554 8.94224 79.5554 12.7142C79.5554 13.707 79.7529 14.5915 80.1404 15.3386C80.5884 16.2237 81.2955 16.9499 82.3027 17.5592C83.7474 18.4307 85.561 18.9004 87.315 19.3546C90.3347 20.1369 92.9426 20.8124 92.9426 23.2284C92.9426 25.933 90.1371 26.8928 87.7343 26.8928C84.6979 26.8928 82.4439 25.5639 81.7049 23.3384L81.5154 22.7678L78.7386 24.3812L78.8832 24.7678C80.1089 28.0379 83.4178 29.9903 87.7343 29.9903C92.6765 29.9903 96.128 27.2099 96.128 23.2284C96.128 18.492 91.9626 17.4253 88.2873 16.4842Z" />
<path d="M111.587 27.137C106.474 27.137 102.47 23.111 102.47 17.9713C102.47 12.8317 106.474 8.80547 111.587 8.80547C116.702 8.80547 120.708 12.8317 120.708 17.9713C120.708 23.111 116.702 27.137 111.587 27.137ZM111.723 6.19651C107.804 6.19651 104.48 7.98909 102.47 11.1494V6.68513H99.7728V38.0909H102.47V24.7969C104.48 27.9543 107.805 29.746 111.723 29.746C118.274 29.746 123.405 24.5739 123.405 17.9713C123.405 11.3686 118.274 6.19651 111.723 6.19651Z" />
<path d="M137.916 27.3202C132.698 27.3202 128.611 23.2138 128.611 17.9713C128.611 12.7289 132.698 8.62234 137.916 8.62234C143.107 8.62234 147.172 12.7289 147.172 17.9713C147.172 23.2138 143.107 27.3202 137.916 27.3202ZM147.172 11.6927C145.197 8.3129 141.771 6.37987 137.735 6.37987C134.663 6.37987 131.782 7.56287 129.623 9.71136C127.439 11.884 126.237 14.8176 126.237 17.9713C126.237 21.1252 127.439 24.0586 129.623 26.2312C131.782 28.3797 134.663 29.5627 137.735 29.5627C141.77 29.5627 145.196 27.6313 147.172 24.2544V29.0742H149.547V6.86836H147.172V11.6927Z" />
<path d="M173.44 22.7263C171.928 25.5648 168.995 27.2592 165.595 27.2592C160.414 27.2592 156.355 23.1795 156.355 17.9713C156.355 12.7632 160.414 8.68344 165.595 8.68344C169.063 8.68344 172.018 10.4178 173.306 13.2099L173.362 13.3321L175.381 12.1479L175.336 12.0475C173.709 8.51382 169.976 6.31847 165.595 6.31847C158.904 6.31847 153.859 11.3282 153.859 17.9713C153.859 24.6142 158.904 29.6238 165.595 29.6238C169.894 29.6238 173.693 27.4494 175.508 23.9492L175.561 23.847L173.501 22.6129L173.44 22.7263Z" />
<path d="M179.949 16.955C180.389 12.0545 184.053 8.56116 189.09 8.56116C193.419 8.56116 197.22 11.5659 197.704 16.955H179.949ZM189.09 6.44082C182.333 6.44082 177.647 11.478 177.647 17.9712C177.647 24.6404 182.465 29.5018 189.266 29.5018C193.639 29.5018 197.083 27.5132 198.896 24.5085L196.951 23.3603C195.671 25.7007 192.935 27.3813 189.31 27.3813C184.278 27.3813 180.476 24.1127 179.949 19.1194H199.956C199.956 18.7677 200 18.4109 200 18.0593C200 12.0106 195.803 6.44082 189.09 6.44082Z" />
</svg>
