<svg xmlns="http://www.w3.org/2000/svg">
<path d="M1 217.578H15.9825V50.2932H1V217.578Z"/>
<path d="M80.4813 78.2733L78.6144 81.5203V77.7748V49.3558H61.7527V218.514H78.6144V129.178C78.6144 108.512 84.2675 91.6448 94.5827 79.9299C104.911 68.2003 119.823 61.7392 138.115 61.7392C153.661 61.7392 166.192 66.5335 174.833 75.4512C183.471 84.3648 188.108 97.2793 188.108 113.3V218.514H205.307V113.3C205.307 92.6477 198.818 75.7423 187.397 64.0049C175.978 52.2703 159.541 45.6103 139.467 45.6103C113.046 45.6103 92.7746 56.8923 80.4813 78.2733Z" />
<path d="M254.388 211.262L254.388
211.262C245.873 203.974 241.629
192.502 241.629 175.919V6.66838L259.804
1.33559V47.8874V48.8874H260.804H310.414V66.288H260.804H259.804V67.288V175.919C259.804
186.711 261.891 193.967 266.685 198.34M254.388 211.262ZM254.388
211.262C261.807 217.613 272.79 220.848 287.873 220.848C294.487
220.848 301.877 220.225 310.067 218.978L310.068
211.262L310.068 218.977M310.068  218.925M310.068
218.977L310.414 218.925M310.414 218.925V202.893L309.968
202.932C299.901 203.825 291.075 204.463 283.816 204.008C276.573
203.553 270.697 202.001 266.685 198.34L310.414" />
<path d="M483.668 183.745L483.213 184.498C483.213 184.498 483.213 184.498
483.213 184.498C468.352 209.053 441.128 223.195 408.406 223.195C356.088
223.195 318.18 185.674 318.18 133.937C318.18 82.1845 355.518 44.6747
407.015 44.6747C462.045 44.6747 491.829 90.9111 491.829 134.61C491.829
135.961 491.745 137.326 491.658 138.727L491.658 138.728M483.668
183.745M491.658 138.728M483.668 183.745L467.17 174.034M466.736
174.828M466.735 174.829C456.265 193.908 434.531 205.196 408.743
205.196C370.964 205.196 342.676 180.991 337.844 144.741M337.694
143.609H338.836H491.491M483.668 183.745M491.491 143.609M491.658
138.728M491.657 138.745C491.575 140.053 491.491 141.396 491.491
142.736V143.609M491.658 138.728M491.491 143.609M338.799
125.273H337.676L337.806 124.158C342.022 87.8661 370.226 62.674 407.015
62.674C442.06 62.674 468.004 87.3698 472.169 124.161M472.295
125.273H471.175H338.799Z" />
<path d="M545.754 68.6877L543.94 71.2247V68.1062V46.5469H521.445V221.324H543.94V124.46C543.94 103.026 550.859 88.3538 561.142 79.0505C571.403 69.7658 584.898 65.9335 597.878 65.9335H600.636V44.1877H597.878C574.948 44.1877 557.234 52.6273 545.754 68.6877Z" />
<path d="M646.167 112.141L646.165 112.14C642.644 109.916 639.981 107.4 638.169 104.441C636.358 101.485 635.431 98.1425 635.295 94.3127C635.276 94.0998 635.278 93.8805 635.279 93.7292C635.28 93.6946 635.28 93.6636 635.28 93.637C635.28 81.2688 643.098 71.6587 656.471 67.199C661.535 65.4349 667.197 64.547 673.286 64.547C677.087 64.547 680.821 64.9061 684.406 65.6197C698.705 68.403 709.346 76.5395 714.239 88.5972L714.239 88.5978L715.421 91.5159L734.56 80.5927L733.555 78.3306C726.798 63.1249 713.864 51.7717 697.098 46.383L697.096 46.3826C689.752 44.0098 681.744 42.8012 673.286 42.8012C672.27 42.8012 671.271 42.806 670.51 42.8744L670.481 42.877L670.452 42.8779C636.865 43.9422 612.78 65.4017 612.78 93.637C612.78 101.115 614.273 107.731 617.167 113.293L617.171 113.302C620.516 119.89 625.808 125.328 633.424 129.92C644.385 136.511 658.179 140.081 671.702 143.571L671.702 143.571L671.807 143.599C683.337 146.576 694.254 149.395 702.281 153.815C706.323 156.041 709.692 158.703 712.05 162.049C714.418 165.41 715.729 169.41 715.729 174.235C715.729 185.026 710.08 192.348 702.13 196.921C694.226 201.468 684.023 203.325 674.676 203.325C651.059 203.325 633.226 192.999 627.362 175.394C627.362 175.394 627.362 175.394 627.362 175.394L626.292 172.184L606.733 183.513L607.547 185.683C616.787 210.254 641.773 225.069 674.676 225.069C693.499 225.069 709.401 219.791 720.576 210.817C731.736 201.856 738.224 189.179 738.224 174.235C738.224 165.311 736.258 158.168 732.911 152.353C729.562 146.534 724.799 141.991 719.131 138.315C707.754 130.937 692.854 127.123 678.682 123.505L678.595 123.483C666.247 120.333 654.364 117.301 646.167 112.141Z" />
<path d="M788.836 82.1799L786.993 85.0687V81.642V48.4206H768.253V287.165H786.993V186.259V182.836L788.836 185.72C804.104 209.622 829.345 223.196 859.153 223.196C908.971 223.196 947.988 184.001 947.988 133.936C947.988 83.8701 908.971 44.6751 859.153 44.6751C829.337 44.6751 804.1 58.2554 788.836 82.1799ZM858.102 205.197C818.233 205.197 786.993 173.885 786.993 133.936C786.993 93.9879 818.233 62.6743 858.102 62.6743C897.991 62.6743 929.248 93.9874 929.248 133.936C929.248 173.886 897.991 205.197 858.102 205.197Z"/>
<path d="M1132.76 85.8065V89.4891L1130.89 86.3123C1115.89 60.7217 1089.88 46.0806 1059.19 46.0806C1035.82 46.0806 1013.92 55.047 997.504 71.3285L996.812 70.631L997.504 71.3285C980.906 87.7906 971.76 110.021 971.76 133.936C971.76 157.853 980.906 180.081 997.504 196.543L997.504 196.543C1013.92 212.825 1035.82 221.791 1059.19 221.791C1089.87 221.791 1115.88 207.163 1130.89 181.594L1132.76 178.421V182.1V218.047H1149.01V49.8251H1132.76V85.8065ZM1060.58 206.601C1019.9 206.601 988.019 174.674 988.019 133.936C988.019 93.1989 1019.9 61.2705 1060.58 61.2705C1101.05 61.2705 1132.76 93.2039 1132.76 133.936C1132.76 174.669 1101.05 206.601 1060.58 206.601Z" />
<path d="M1334.61 170.912C1322.78 192.987 1299.89 206.133 1273.42 206.133C1233.03 206.133 1201.37 174.41 1201.37 133.936C1201.37 93.462 1233.03 61.7388 1273.42 61.7388C1300.39 61.7388 1323.49 75.1797 1333.6 96.9545L1347.4 88.8891C1335.06 62.2424 1306.77 45.6099 1273.42 45.6099C1222.51 45.6099 1184.17 83.5742 1184.17 133.936C1184.17 184.296 1222.51 222.259 1273.42 222.259C1306.14 222.259 1334.97 205.784 1348.74 179.352L1334.61 170.912Z" />
<path d="M1383.81 127.146H1382.71L1382.81 126.056C1386.24 87.9863 1414.84 60.8015 1454.1 60.8015C1487.91 60.8015 1517.57 84.2309 1521.34 126.056L1521.44 127.146H1520.34H1383.81ZM1455.45 221.324C1488.35 221.324 1514.25 206.614 1528.12 184.392L1514.93 176.626C1504.68 194.456 1483.52 207.069 1455.79 207.069C1416.61 207.069 1386.93 181.654 1382.81 142.842L1382.69 141.737H1383.81H1536.68C1536.7 140.691 1536.77 139.649 1536.83 138.627L1536.83 138.611C1536.92 137.248 1537 135.922 1537 134.61C1537 88.6742 1505.06 46.5478 1454.1 46.5478C1402.72 46.5478 1367.11 84.6907 1367.11 133.935C1367.11 184.501 1403.7 221.324 1455.45 221.324Z" />
</svg>
