<svg xmlns="http://www.w3.org/2000/svg">
<path d="M100.118 23.2259L101.451 15.2863C101.608 14.3539 102.237 13.5937 103.082 13.238C136.087 13.3933 168.855 19.458 200 30.499C172.613 18.4739 142.769 11.7399 112.866 10.4259C109.717 10.2951 106.555 10.2214 103.384 10.1957C102.387 9.90963 101.626 9.08021 101.451 8.03907L100.118 0.0996246C100.095 -0.0332116 99.9046 -0.0332116 99.8823 0.0996246L98.5486 8.0392C98.3671 9.11958 97.5541 9.97069 96.5011 10.2241C63.5223 10.7594 29.9271 17.0901 0 30.499C31.0049 19.211 64.0547 13.7854 97.0031 13.2738C97.8053 13.6439 98.3973 14.3851 98.5486 15.2863L99.8823 23.2259C99.9046 23.3587 100.095 23.3587 100.118 23.2259Z"/>
</svg>
