<svg width="170" height="56" viewBox="0 0 170 56" fill="none" xmlns="http://www.w3.org/2000/svg">
<path fill-rule="evenodd" clip-rule="evenodd" d="M63.2936 14.59L58.9855 1.7002H54.1794L60.645 20.64L60.6835 20.7517H65.8184L72.4148 1.91832L72.4909 1.7002H67.6558L63.2936 14.59Z" fill="#1A1A1A"/>
<path fill-rule="evenodd" clip-rule="evenodd" d="M82.4291 20.7517H87.1054V1.7002H82.4291V20.7517Z" fill="#1A1A1A"/>
<path fill-rule="evenodd" clip-rule="evenodd" d="M139.374 11.3044C139.374 12.0731 139.278 12.831 139.089 13.5576C138.901 14.2774 138.598 14.9344 138.187 15.5102C137.779 16.0808 137.24 16.5447 136.585 16.889C135.93 17.2329 135.118 17.4073 134.172 17.4073C133.226 17.4073 132.414 17.2329 131.76 16.889C131.103 16.5447 130.565 16.0808 130.157 15.5099C129.746 14.9354 129.443 14.2787 129.255 13.5576C129.066 12.8323 128.97 12.0744 128.97 11.3044C128.97 10.4996 129.066 9.70987 129.256 8.9576C129.444 8.21092 129.747 7.53617 130.158 6.95309C130.565 6.3746 131.103 5.90681 131.76 5.56254C132.415 5.2186 133.226 5.04382 134.172 5.04382C135.118 5.04382 135.929 5.2186 136.585 5.56254C137.24 5.90681 137.779 6.37492 138.186 6.95309C138.597 7.53748 138.901 8.21191 139.088 8.9576C139.278 9.71087 139.374 10.5009 139.374 11.3044ZM141.433 4.16543C140.591 3.26138 139.548 2.54196 138.332 2.02786C137.117 1.51441 135.718 1.25391 134.172 1.25391C132.644 1.25391 131.249 1.51408 130.026 2.02786C128.801 2.54164 127.753 3.26105 126.911 4.16543C126.07 5.06881 125.416 6.14137 124.968 7.35387C124.521 8.56309 124.294 9.89254 124.294 11.3044C124.294 12.6818 124.521 13.9846 124.968 15.1768C125.416 16.3719 126.071 17.4275 126.912 18.3137C127.754 19.2004 128.802 19.9063 130.027 20.4111C131.25 20.9155 132.644 21.171 134.172 21.171C135.718 21.171 137.117 20.9155 138.331 20.4109C139.547 19.9059 140.59 19.2 141.432 18.3137C142.273 17.4281 142.927 16.3726 143.376 15.1768C143.823 13.9838 144.05 12.6809 144.05 11.3044C144.05 9.89319 143.823 8.56407 143.376 7.35387C142.927 6.14071 142.274 5.06815 141.433 4.16543Z" fill="#1A1A1A"/>
<path fill-rule="evenodd" clip-rule="evenodd" d="M117.178 1.7002H111.275L103.791 9.2252V1.7002H99.1143V20.7517H103.791V14.6257L106.09 12.4222L111.977 20.7517H117.844L109.268 9.27711L117.178 1.7002Z" fill="#1A1A1A"/>
<path fill-rule="evenodd" clip-rule="evenodd" d="M165.154 1.7002L160.792 14.5904L156.484 1.7002H151.678L158.143 20.64L158.182 20.7517H163.316L169.913 1.91832L169.989 1.7002H165.154Z" fill="#1A1A1A"/>
<path fill-rule="evenodd" clip-rule="evenodd" d="M41.8762 11.3044C41.8762 12.0731 41.7802 12.831 41.5909 13.5576C41.4029 14.278 41.0994 14.935 40.6891 15.5102C40.2814 16.0808 39.7422 16.5447 39.0867 16.889C38.4316 17.2329 37.6202 17.4073 36.6742 17.4073C35.7276 17.4073 34.9158 17.2329 34.2613 16.889C33.6056 16.5447 33.0663 16.0808 32.6589 15.5099C32.2489 14.9356 31.9454 14.2791 31.7571 13.5576C31.5679 12.831 31.4719 12.0731 31.4719 11.3044C31.4719 10.5009 31.5679 9.71087 31.7575 8.9576C31.9461 8.2106 32.2495 7.53617 32.6596 6.95309C33.0667 6.37492 33.6056 5.90681 34.2613 5.56254C34.9164 5.2186 35.7282 5.04382 36.6742 5.04382C37.6195 5.04382 38.431 5.2186 39.0867 5.56254C39.7422 5.90681 40.2811 6.37492 40.6884 6.95309C41.0988 7.53683 41.4023 8.21125 41.5906 8.9576C41.7802 9.71087 41.8762 10.5009 41.8762 11.3044ZM43.935 4.16543C43.093 3.26138 42.0497 2.54196 40.8341 2.02786C39.6196 1.51441 38.2198 1.25391 36.6742 1.25391C35.1461 1.25391 33.7513 1.51408 32.5278 2.02786C31.3029 2.54164 30.255 3.26105 29.413 4.16543C28.5723 5.06881 27.9182 6.14137 27.4699 7.35387C27.023 8.56309 26.7959 9.89254 26.7959 11.3044C26.7959 12.6818 27.023 13.9846 27.4703 15.1768C27.9185 16.3719 28.5726 17.4275 29.4143 18.3137C30.2563 19.2004 31.3039 19.9059 32.5288 20.4111C33.7516 20.9155 35.1465 21.171 36.6742 21.171C38.2198 21.171 39.6193 20.9155 40.8332 20.4109C42.0491 19.9059 43.092 19.2 43.9337 18.3137C44.7751 17.4277 45.4292 16.3722 45.8781 15.1768C46.3254 13.9838 46.5524 12.6809 46.5524 11.3044C46.5524 9.89319 46.3254 8.56407 45.8785 7.35387C45.4295 6.14104 44.7757 5.06848 43.935 4.16543Z" fill="#1A1A1A"/>
<path fill-rule="evenodd" clip-rule="evenodd" d="M12.9829 13.6367L4.93673 1.7002H0.36499V20.7517H4.76474V8.84183L12.783 20.7517H17.3822V1.7002H12.9829V13.6367Z" fill="#1A1A1A"/>
<path fill-rule="evenodd" clip-rule="evenodd" d="M119.666 53.6117V44.5371H120.539V52.8745H125.678V53.6117H119.666Z" fill="#1A1A1A"/>
<path fill-rule="evenodd" clip-rule="evenodd" d="M89.0788 49.0749C89.0788 50.1678 89.3527 51.0787 89.9009 51.807C90.5175 52.646 91.395 53.0652 92.5342 53.0652C93.6645 53.0652 94.5424 52.646 95.1672 51.807C95.7068 51.0787 95.9767 50.1678 95.9767 49.0749C95.9767 47.9819 95.7068 47.0667 95.1672 46.3296C94.5424 45.4991 93.6645 45.0842 92.5342 45.0842C91.395 45.0842 90.5175 45.4991 89.9009 46.3296C89.3527 47.0667 89.0788 47.9819 89.0788 49.0749ZM88.2052 49.0748C88.2052 47.7533 88.5648 46.6557 89.2843 45.7829C90.0719 44.8256 91.155 44.3467 92.5342 44.3467C93.9042 44.3467 94.9833 44.8256 95.7712 45.7829C96.4907 46.6557 96.8503 47.7533 96.8503 49.0748C96.8503 50.3964 96.4907 51.4939 95.7712 52.3667C94.9833 53.324 93.9042 53.8026 92.5342 53.8026C91.155 53.8026 90.0719 53.324 89.2843 52.3667C88.5648 51.4939 88.2052 50.3964 88.2052 49.0748Z" fill="#1A1A1A"/>
<path fill-rule="evenodd" clip-rule="evenodd" d="M104.574 49.0749C104.574 50.1678 104.848 51.0787 105.397 51.807C106.013 52.646 106.891 53.0652 108.03 53.0652C109.16 53.0652 110.038 52.646 110.663 51.807C111.203 51.0787 111.472 50.1678 111.472 49.0749C111.472 47.9819 111.203 47.0667 110.663 46.3296C110.038 45.4991 109.16 45.0842 108.03 45.0842C106.891 45.0842 106.013 45.4991 105.397 46.3296C104.848 47.0667 104.574 47.9819 104.574 49.0749ZM103.701 49.0748C103.701 47.7533 104.06 46.6557 104.78 45.7829C105.568 44.8256 106.651 44.3467 108.03 44.3467C109.4 44.3467 110.479 44.8256 111.267 45.7829C111.986 46.6557 112.346 47.7533 112.346 49.0748C112.346 50.3964 111.986 51.4939 111.267 52.3667C110.479 53.324 109.4 53.8026 108.03 53.8026C106.651 53.8026 105.568 53.324 104.78 52.3667C104.06 51.4939 103.701 50.3964 103.701 49.0748Z" fill="#1A1A1A"/>
<path fill-rule="evenodd" clip-rule="evenodd" d="M73.6923 53.6117V44.5371H74.5658V48.4772H80.0125V44.5371H80.886V53.6117H80.0125V49.214H74.5658V53.6117H73.6923Z" fill="#1A1A1A"/>
<path fill-rule="evenodd" clip-rule="evenodd" d="M66.3279 47.2828H65.4543C65.3003 46.5963 64.9643 46.0582 64.446 45.6686C63.9277 45.279 63.326 45.0842 62.641 45.0842C61.5022 45.0842 60.6243 45.4991 60.0077 46.3295C59.4595 47.0667 59.1856 47.9819 59.1856 49.0748C59.1856 50.1677 59.4595 51.0787 60.0077 51.807C60.6243 52.646 61.5022 53.0655 62.641 53.0655C63.4635 53.0655 64.1441 52.7816 64.6837 52.214C65.1973 51.6802 65.4972 50.9939 65.5828 50.1549H66.4564C66.3362 51.2731 65.9361 52.1611 65.2555 52.8178C64.5745 53.4744 63.7029 53.8026 62.641 53.8026C61.2624 53.8026 60.179 53.324 59.3911 52.3667C58.6716 51.4939 58.312 50.3967 58.312 49.0748C58.312 47.7533 58.6716 46.6557 59.3911 45.7832C60.179 44.826 61.2624 44.3467 62.641 44.3467C63.5574 44.3467 64.358 44.5967 65.0433 45.097C65.7884 45.6475 66.2167 46.3762 66.3279 47.2828Z" fill="#1A1A1A"/>
<path fill-rule="evenodd" clip-rule="evenodd" d="M44.3577 50.625H45.2313C45.1971 52.2518 46.1949 53.0651 48.2246 53.0651C48.8066 53.0651 49.3332 52.9213 49.8044 52.6328C50.3695 52.2941 50.6524 51.824 50.6524 51.2222C50.6524 50.4345 50.0229 49.8879 48.7641 49.5827L46.7215 49.087C45.3426 48.7568 44.6533 48.0282 44.6533 46.9011C44.6533 46.2914 44.8588 45.7533 45.2698 45.2872C45.8263 44.6604 46.6743 44.3467 47.8132 44.3467C48.7724 44.3467 49.5647 44.5839 50.1899 45.0585C50.8749 45.5753 51.2129 46.2786 51.2046 47.1682H50.331C50.3054 46.5072 50.0441 45.9862 49.5474 45.6048C49.0852 45.2576 48.5111 45.0838 47.8261 45.0838C47.1581 45.0838 46.6272 45.2152 46.2334 45.4777C45.7622 45.7911 45.5268 46.2615 45.5268 46.8886C45.5268 47.5831 45.9894 48.045 46.9141 48.2739L49.1493 48.8202C50.7337 49.2098 51.5256 50.0064 51.5256 51.2094C51.5256 51.7945 51.346 52.3024 50.9861 52.7347C50.4037 53.4465 49.4146 53.8023 48.0187 53.8023C46.8712 53.8023 45.9764 53.548 45.3339 53.0398C44.6317 52.4893 44.3063 51.6844 44.3577 50.625Z" fill="#1A1A1A"/>
<path fill-rule="evenodd" clip-rule="evenodd" d="M0 32.7116H169.937V30.4121H0V32.7116Z" fill="#C42A2A"/>
</svg>
