<svg width="24" height="24" viewBox="0 0 24 24" fill="none" xmlns="http://www.w3.org/2000/svg">
<g clip-path="url(#clip0_320_33)">
<path fill-rule="evenodd" clip-rule="evenodd" d="M19.777 4.43003C20.0241 4.32602 20.2946 4.29015 20.5603 4.32614C20.826 4.36214 21.0772 4.46869 21.2877 4.63471C21.4982 4.80073 21.6604 5.02014 21.7574 5.27011C21.8543 5.52008 21.8825 5.79147 21.839 6.05603L19.571 19.813C19.351 21.14 17.895 21.901 16.678 21.24C15.66 20.687 14.148 19.835 12.788 18.946C12.108 18.501 10.025 17.076 10.281 16.062C10.501 15.195 14.001 11.937 16.001 10C16.786 9.23903 16.428 8.80003 15.501 9.50003C13.198 11.238 9.503 13.881 8.281 14.625C7.203 15.281 6.641 15.393 5.969 15.281C4.743 15.077 3.606 14.761 2.678 14.376C1.424 13.856 1.485 12.132 2.677 11.63L19.777 4.43003Z" fill="white"/>
</g>
<defs>
<clipPath id="clip0_320_33">
<rect width="24" height="24" fill="white"/>
</clipPath>
</defs>
</svg>
