<svg style="display: none;" aria-hidden="true" xmlns="http://www.w3.org/2000/svg" xmlns:xlink="http://www.w3.org/1999/xlink"><symbol viewBox="0 0 16 17" id="svg-arrow" xmlns="http://www.w3.org/2000/svg"><path d="M16.071 1.689a1 1 0 0 0-1-1h-9a1 1 0 0 0 0 2h8v8a1 1 0 1 0 2 0v-9ZM1.636 16.538 15.778 2.396 14.364.98.222 15.124l1.414 1.414Z"/></symbol><symbol fill="none" viewBox="0 0 170 80" id="svg-avo" xmlns="http://www.w3.org/2000/svg"><path d="M169.513 35.02c-1.848 14.665-17.463 22.791-29.717 18.915-10.794-3.415-17.152-9.24-11.505-29.004 4.062-14.234 17.43-26.442 28.342-23.475 10.912 2.967 14.852 17.983 12.88 33.565Z" fill="#B7CD1A"/><path d="M153.445 34.998a10.53 10.53 0 0 1-6.499 9.734 10.537 10.537 0 0 1-14.367-7.673 10.541 10.541 0 0 1 4.476-10.815 10.537 10.537 0 0 1 15.588 4.723c.53 1.278.802 2.648.802 4.031Z" fill="#9F5920"/><path d="M145.91 5.112c-4.378 0-9.058 2.182-13.45 6.326a37.393 37.393 0 0 0-10.503 18.269c-1.417 6.32-.676 12.064 2.151 16.61a19.7 19.7 0 0 0 12.891 8.659 18.62 18.62 0 0 0 15.312-2.958 24.564 24.564 0 0 0 9.154-14.843 36.307 36.307 0 0 0-1.203-20.224c-2.375-6.298-6.488-10.388-11.584-11.536a12.622 12.622 0 0 0-2.771-.303h.003Zm-4.433 54.585a24.68 24.68 0 0 1-5.399-.611 24.139 24.139 0 0 1-15.548-10.548c-3.422-5.5-4.355-12.336-2.69-19.757a41.765 41.765 0 0 1 11.722-20.41c6.385-6.023 13.498-8.533 20.042-7.069 6.545 1.464 11.716 6.492 14.603 14.161a40.618 40.618 0 0 1 1.373 22.633 28.725 28.725 0 0 1-10.813 17.354 22.664 22.664 0 0 1-13.287 4.25l-.003-.003ZM85.41 57.74a10.591 10.591 0 0 1-8.215-4.376c-2.483-3.134-4.356-7.646-6.062-11.997-2.519-6.422-4.926-12.7-7.257-18.772-2.332-6.071-4.737-12.335-7.248-18.744a2.108 2.108 0 1 1 3.926-1.539c2.518 6.423 4.926 12.7 7.256 18.772 2.33 6.07 4.736 12.335 7.247 18.744 1.25 3.19 3.14 8.014 5.442 10.914a6.123 6.123 0 0 0 5.567 2.735c2.355-.328 4.545-2.414 5.866-5.58 4.127-9.936 7.175-19.133 10.123-28.026C104 14 105.843 8.452 107.936 2.811a2.1 2.1 0 0 1 1.093-1.206 2.11 2.11 0 0 1 2.816 1.045 2.112 2.112 0 0 1 .041 1.628c-2.077 5.571-3.896 11.083-5.831 16.918-2.974 8.966-6.046 18.237-10.231 28.317-1.924 4.628-5.268 7.594-9.175 8.139-.41.057-.824.086-1.238.085l-.001.003ZM14.771 29.968c-1.024.216-2.036.44-3.033.718a407.394 407.394 0 0 1 6.457-18.415 10.042 10.042 0 0 1 7.502-6.52 5.965 5.965 0 0 1 5.82 2.221c2.302 2.9 4.191 7.724 5.442 10.915 1 2.552 1.985 5.081 2.953 7.588-8.45.592-16.85 1.76-25.14 3.493ZM55.39 54.864a2855.631 2855.631 0 0 1-7.247-18.745 2987.355 2987.355 0 0 0-7.258-18.77c-1.711-4.353-3.579-8.865-6.064-11.997a10.153 10.153 0 0 0-9.777-3.766 14.31 14.31 0 0 0-10.795 9.202C8.605 25.8 5.695 35.614 1.295 50.473.91 51.797.507 53.163.087 54.57a2.108 2.108 0 1 0 4.041 1.2c.419-1.411.824-2.778 1.215-4.102 1.741-5.885 3.248-10.973 4.783-15.906a22.959 22.959 0 0 1 5.508-1.667 182.199 182.199 0 0 1 25.865-3.5c.914 2.374 1.816 4.72 2.705 7.037a3072.454 3072.454 0 0 0 7.258 18.77 2.108 2.108 0 1 0 3.925-1.538h.003ZM47.797 72.856h-1.1L44.76 75.42h-.722v-2.566h-.856v6.159h.856v-2.776h.733l2.125 2.776h1.1l-2.453-3.193 2.254-2.965ZM51.256 79.012h.854v-6.158h-.854v6.158ZM55.61 73.669h1.84v5.34h.868v-5.34h1.842v-.818h-4.55v.818ZM68.184 76.806c-.135.43-.406.805-.774 1.067a2.376 2.376 0 0 1-2.926-.266 2.51 2.51 0 0 1 0-3.344 2.188 2.188 0 0 1 1.633-.652c.45-.008.892.12 1.268.366.358.244.63.595.775 1.003l.012.034h.877l-.02-.065a2.803 2.803 0 0 0-1.604-1.918 3.193 3.193 0 0 0-1.307-.267 3.076 3.076 0 0 0-2.263.897 3.179 3.179 0 0 0-.715 3.49 3.181 3.181 0 0 0 2.978 1.96c.68.015 1.345-.2 1.887-.61.533-.415.908-1.001 1.062-1.66l.018-.066h-.886l-.015.03ZM76.561 75.43h-3.03v-2.576h-.857v6.158h.856v-2.75h3.03v2.75h.855v-6.158h-.856l.002 2.575ZM82.427 76.253h2.444v-.808h-2.444v-1.766h2.67v-.825h-3.53v6.158h3.626v-.834h-2.766v-1.925ZM93.02 77.41l-3.3-4.533-.019-.024h-.762v6.157h.84v-4.608l3.353 4.585.014.023h.724v-6.157h-.856l.006 4.557ZM100.786 73.943h-.836v1.652h-1.623v.79h1.623v1.692h.836v-1.692h1.616v-.79h-1.616v-1.652ZM109.925 75.163a.882.882 0 0 1-.635.245h-1.58v-1.712h1.57a.977.977 0 0 1 .464.11.854.854 0 0 1 .319.305.857.857 0 0 1 .115.439.797.797 0 0 1-.253.613Zm-2.215 1.1h1.618c.264-.007.52.09.711.271a.867.867 0 0 1 .215.304c.05.115.075.24.072.365a.907.907 0 0 1-.069.37.895.895 0 0 1-.218.309 1 1 0 0 1-.711.272h-1.618v-1.89Zm2.664-.45a1.54 1.54 0 0 0 .475-.547c.136-.249.208-.527.21-.81a1.502 1.502 0 0 0-.497-1.144 1.797 1.797 0 0 0-1.26-.457h-2.444v6.157h2.473c.494.014.974-.16 1.343-.49a1.614 1.614 0 0 0 .545-1.221 1.776 1.776 0 0 0-.253-.918 1.452 1.452 0 0 0-.588-.57h-.004ZM118.255 76.761h-2.176l1.081-2.667 1.095 2.667Zm-.725-3.91h-.781l-2.518 6.157h.924l.599-1.451h2.826l.611 1.452h.941l-2.583-6.127-.019-.032ZM127.051 74.748a1.003 1.003 0 0 1-.327.769 1.225 1.225 0 0 1-.857.299h-1.449v-2.139h1.449c.314-.013.621.095.857.302.107.097.19.216.246.348a.995.995 0 0 1 .081.42Zm-.425 1.785c.368-.112.691-.338.924-.643a1.897 1.897 0 0 0-.196-2.5 2.048 2.048 0 0 0-1.448-.537h-2.347v6.157h.855v-2.367h1.298l1.385 2.367h.978l-1.449-2.477Z" fill="#1A1A1A"/></symbol><symbol viewBox="0 0 170 42" fill="none" id="svg-baranochki" xmlns="http://www.w3.org/2000/svg"><g clip-path="url(#ca)"><path fill-rule="evenodd" clip-rule="evenodd" d="M28.716 38.261a17.66 17.66 0 0 0 11.518-4.291 18.128 18.128 0 0 0 6.047-10.83c.1-.57.26-.47.496-.251.413.507 1.877 2.272 2.137 2.549 1.57 1.697 3.6 3.026 5.447 3.026a3.025 3.025 0 0 0 1.765-.574c.498-.405.877-.94 1.096-1.55a3.586 3.586 0 0 0 .144-1.9c-.224-1.258-1.137-3.3-1.137-4.234 0-.935.913-2.972 1.137-4.234a3.591 3.591 0 0 0-.145-1.9 3.542 3.542 0 0 0-1.095-1.55 3.053 3.053 0 0 0-1.765-.574c-2.26 0-4.798 1.995-6.427 4.213a.608.608 0 0 0-.062.595c1.806 4.129 4.307 7.043 6.48 7.403a.832.832 0 0 1 .547.34.857.857 0 0 1-.188 1.186.83.83 0 0 1-.623.15c-2.715-.448-5.41-3.44-7.369-7.582a4.77 4.77 0 0 1-.504-1.355A18.11 18.11 0 0 0 40.01 6.267 17.649 17.649 0 0 0 28.516 2.17a17.66 17.66 0 0 0-11.399 4.357 18.125 18.125 0 0 0-5.97 10.77c-.095.57-.256.47-.496.247-.413-.507-1.872-2.268-2.132-2.549-1.57-1.677-3.6-3.026-5.448-3.026a3.024 3.024 0 0 0-1.764.574c-.498.405-.877.94-1.096 1.549a3.586 3.586 0 0 0-.144 1.9c.223 1.258 1.136 3.304 1.136 4.235 0 .93-.913 2.972-1.136 4.234a3.59 3.59 0 0 0 .145 1.9 3.542 3.542 0 0 0 1.095 1.55c.516.37 1.132.57 1.764.574 2.257 0 4.799-1.991 6.423-4.192a.592.592 0 0 0 .062-.595C7.75 19.568 5.254 16.65 3.08 16.29a.831.831 0 0 1-.546-.34.856.856 0 0 1 .484-1.325.825.825 0 0 1 .326-.012c2.716.448 5.41 3.441 7.37 7.583.235.422.405.88.503 1.354a18.12 18.12 0 0 0 6.136 10.553 17.66 17.66 0 0 0 11.363 4.157ZM16.603 11.876c0-3.772 5.422-7.415 12.113-7.415S40.83 8.108 40.83 11.876c0 3.769-5.427 6.817-12.114 6.817-6.687 0-12.113-3.052-12.113-6.817Z" fill="#E52729"/><path d="M69.685 15.273V5.546a.242.242 0 0 1 .069-.169.237.237 0 0 1 .167-.07h1.886c.063 0 .123.025.167.07a.24.24 0 0 1 .07.169V9.22a.24.24 0 0 0 .149.225.234.234 0 0 0 .262-.061l3.737-4.002a.228.228 0 0 1 .17-.075h2.114a.235.235 0 0 1 .216.145.241.241 0 0 1-.045.257L74.66 9.98a.244.244 0 0 0 0 .323l4.157 4.81a.24.24 0 0 1-.052.356.235.235 0 0 1-.127.038h-2.236a.233.233 0 0 1-.18-.084l-3.754-4.421a.235.235 0 0 0-.416.154v4.099a.24.24 0 0 1-.07.169.235.235 0 0 1-.166.07h-1.882a.236.236 0 0 1-.25-.221ZM79.642 10.417a4.963 4.963 0 0 1 .342-1.957 4.871 4.871 0 0 1 1.078-1.653 4.94 4.94 0 0 1 3.533-1.5 4.94 4.94 0 0 1 3.534 1.496 5.176 5.176 0 0 1 1.466 3.615 5.175 5.175 0 0 1-1.462 3.617 5 5 0 0 1-3.533 1.472 5 5 0 0 1-3.534-1.472 4.937 4.937 0 0 1-1.077-1.658 5.031 5.031 0 0 1-.347-1.96ZM82.599 8.2a3.284 3.284 0 0 0-.754 2.218c-.028.821.26 1.62.802 2.226.251.279.555.5.894.653a2.626 2.626 0 0 0 3.043-.653c.525-.614.802-1.41.775-2.226a3.296 3.296 0 0 0-.755-2.197 2.763 2.763 0 0 0-.91-.659 2.707 2.707 0 0 0-2.186-.011c-.345.15-.657.371-.917.65h.008ZM100.315 5.656v9.502a.372.372 0 0 1-.091.247.293.293 0 0 1-.219.102H98.51a.292.292 0 0 1-.219-.102.371.371 0 0 1-.091-.247v-3.614a.38.38 0 0 0-.091-.25.299.299 0 0 0-.223-.103h-3.554a.28.28 0 0 0-.12.027.313.313 0 0 0-.101.076.359.359 0 0 0-.067.115.389.389 0 0 0-.022.135v3.614a.387.387 0 0 1-.093.248.31.31 0 0 1-.101.076.28.28 0 0 1-.12.025h-1.503a.28.28 0 0 1-.12-.025.312.312 0 0 1-.102-.075.358.358 0 0 1-.068-.114.387.387 0 0 1-.024-.135V5.656c0-.046.008-.092.024-.134a.357.357 0 0 1 .068-.114.311.311 0 0 1 .102-.075.28.28 0 0 1 .12-.026h1.491a.28.28 0 0 1 .12.026.308.308 0 0 1 .102.075.385.385 0 0 1 .092.248v3.169c0 .092.032.181.09.247a.293.293 0 0 0 .22.102h3.554c.041 0 .082-.008.12-.026a.31.31 0 0 0 .102-.075.37.37 0 0 0 .092-.248V5.656c0-.092.033-.181.091-.246a.292.292 0 0 1 .219-.103h1.495a.275.275 0 0 1 .122.023.334.334 0 0 1 .175.19c.016.043.025.09.025.136ZM108.794 6.535h.04V.6h2.115v5.935h.055a2.855 2.855 0 0 1 1.066-.977 2.643 2.643 0 0 1 1.376-.3c.509 0 1.012.124 1.468.364.457.24.856.589 1.166 1.02.718.925 1.077 2.215 1.077 3.87a6.31 6.31 0 0 1-1.05 3.772 3.36 3.36 0 0 1-1.202 1.089 3.123 3.123 0 0 1-1.538.368 2.764 2.764 0 0 1-1.393-.358 2.645 2.645 0 0 1-.97-.933h-.055v5.765h-2.119v-5.807h-.04a3.035 3.035 0 0 1-1.191 1.019 2.818 2.818 0 0 1-1.505.258 3.367 3.367 0 0 1-1.447-.502 3.609 3.609 0 0 1-1.111-1.107 6.63 6.63 0 0 1-.918-3.65 6.247 6.247 0 0 1 .982-3.622 3.71 3.71 0 0 1 1.715-1.346 2.72 2.72 0 0 1 2.514.136c.384.232.714.554.965.941Zm-4.018 3.917c-.038.846.16 1.684.567 2.41.16.285.387.519.659.68.271.16.578.242.889.236.289-.007.572-.09.823-.243.252-.152.463-.369.618-.63.432-.71.642-1.548.598-2.393a4.48 4.48 0 0 0-.567-2.448 1.82 1.82 0 0 0-.655-.648 1.686 1.686 0 0 0-1.729.03 1.837 1.837 0 0 0-.636.669 4.374 4.374 0 0 0-.567 2.333v.004Zm10.227.022a4.663 4.663 0 0 0-.627-2.517 1.649 1.649 0 0 0-.45-.476 1.541 1.541 0 0 0-.587-.252 1.682 1.682 0 0 0-1.065.091 1.82 1.82 0 0 0-.827.723 5.366 5.366 0 0 0-.572 2.416c0 .843.197 1.674.572 2.416.157.278.379.508.644.666.265.158.565.24.869.237.306.003.607-.08.872-.243.265-.162.485-.398.635-.681a4.644 4.644 0 0 0 .536-2.385v.005ZM123.705 5.312c1.59.016 2.812.518 3.664 1.505a5.16 5.16 0 0 1 1.278 3.498c.005.22-.008.44-.042.657h-7.389a.2.2 0 0 0-.139.057.183.183 0 0 0-.053.137 2.63 2.63 0 0 0 .852 1.758c.269.266.589.476.944.619.354.142.735.212 1.119.208.413.008.821-.079 1.192-.254a2.57 2.57 0 0 0 .938-.755.185.185 0 0 1 .141-.066h1.978a.192.192 0 0 1 .187.174.186.186 0 0 1-.017.09 4.888 4.888 0 0 1-1.568 1.766 4.86 4.86 0 0 1-2.864.798 5.168 5.168 0 0 1-2.035-.35 5.035 5.035 0 0 1-1.719-1.114 5.41 5.41 0 0 1-1.478-3.62 5.398 5.398 0 0 1 1.363-3.661 4.697 4.697 0 0 1 1.659-1.114 4.822 4.822 0 0 1 1.989-.333Zm0 1.654a2.56 2.56 0 0 0-.998.163c-.318.12-.606.303-.848.535a2.673 2.673 0 0 0-.793 1.46.19.19 0 0 0 .005.078.187.187 0 0 0 .184.133h4.883a.193.193 0 0 0 .181-.133.205.205 0 0 0 .007-.078 2.64 2.64 0 0 0-.802-1.472 2.543 2.543 0 0 0-.843-.499 2.595 2.595 0 0 0-.976-.146v-.041ZM136.307 5.533v1.613c0 .06-.02.118-.057.16a.187.187 0 0 1-.139.066h-2.016a.183.183 0 0 0-.138.066.243.243 0 0 0-.058.16v7.684c0 .06-.021.117-.058.159a.181.181 0 0 1-.137.066h-1.666a.185.185 0 0 1-.139-.066.248.248 0 0 1-.058-.16V7.598c0-.06-.02-.117-.057-.16a.184.184 0 0 0-.139-.065h-2.034a.185.185 0 0 1-.139-.066.242.242 0 0 1-.057-.16V5.533c0-.06.02-.118.057-.16a.185.185 0 0 1 .139-.066h6.504c.051.001.1.026.136.068a.244.244 0 0 1 .056.158ZM137.837 15.158V5.621c0-.042.007-.083.021-.121a.319.319 0 0 1 .061-.102.302.302 0 0 1 .095-.068.263.263 0 0 1 .11-.023h1.618c.076 0 .149.033.203.092a.332.332 0 0 1 .083.222v3.402c0 .064.017.126.049.178a.301.301 0 0 0 .132.117.268.268 0 0 0 .317-.078l3.316-3.836a.295.295 0 0 1 .094-.071.259.259 0 0 1 .112-.026h1.763a.266.266 0 0 1 .16.048.31.31 0 0 1 .108.137.343.343 0 0 1 .019.18.323.323 0 0 1-.077.16l-3.534 4.092a.335.335 0 0 0-.081.22c0 .083.029.162.081.221l3.7 4.626a.328.328 0 0 1 .048.335.294.294 0 0 1-.106.133.267.267 0 0 1-.156.048h-1.889a.29.29 0 0 1-.217-.106l-3.325-4.228a.287.287 0 0 0-.146-.1.265.265 0 0 0-.173.01.288.288 0 0 0-.136.117.334.334 0 0 0-.05.18v3.778a.333.333 0 0 1-.084.222.278.278 0 0 1-.203.092h-1.618a.255.255 0 0 1-.112-.02.302.302 0 0 1-.098-.068.327.327 0 0 1-.085-.226ZM148.559 15.171V5.643a.356.356 0 0 1 .088-.239.303.303 0 0 1 .098-.073.271.271 0 0 1 .116-.024h1.441c.08 0 .156.036.212.099a.364.364 0 0 1 .088.237v3.58c0 1.264 0 2.307-.056 3.128h.04a22.24 22.24 0 0 1 1.249-2.085l3.183-4.822a.31.31 0 0 1 .106-.101.275.275 0 0 1 .136-.036h1.42c.039 0 .078.008.114.024a.342.342 0 0 1 .188.312v9.528a.343.343 0 0 1-.09.24.293.293 0 0 1-.098.072.261.261 0 0 1-.114.024h-1.443a.284.284 0 0 1-.211-.098.358.358 0 0 1-.087-.238v-3.557c0-1.264.018-2.315.054-3.151h-.035c-.204.412-.62 1.107-1.249 2.086l-3.186 4.821a.296.296 0 0 1-.107.103.264.264 0 0 1-.137.034h-1.418a.27.27 0 0 1-.116-.024.321.321 0 0 1-.163-.182.356.356 0 0 1-.023-.13ZM75.74 24.684c-2.225.371-3.48 1.464-3.766 3.278h.06c.35-.414.78-.737 1.26-.945a3.73 3.73 0 0 1 1.62-.376 4.146 4.146 0 0 1 1.856.355c.589.26 1.12.654 1.558 1.156.885 1.045 1.355 2.43 1.308 3.852a5.772 5.772 0 0 1-.351 2.095 5.405 5.405 0 0 1-1.074 1.779 4.779 4.779 0 0 1-1.632 1.209 4.424 4.424 0 0 1-1.94.385 4.27 4.27 0 0 1-1.962-.39 4.633 4.633 0 0 1-1.627-1.257c-.91-1.102-1.365-2.645-1.365-4.63-.01-1.038.084-2.075.28-3.092.152-.8.412-1.571.773-2.288a5.556 5.556 0 0 1 1.215-1.586 5.672 5.672 0 0 1 1.56-1.02 8.5 8.5 0 0 1 1.883-.556 7.236 7.236 0 0 0 2.268-.83.278.278 0 0 1 .333.039c.03.028.055.063.072.102l.612 1.364a.351.351 0 0 1-.038.363.308.308 0 0 1-.092.079 8.024 8.024 0 0 1-2.81.914Zm-3.884 7.32a3.558 3.558 0 0 0 .81 2.394c.25.303.555.545.896.708a2.43 2.43 0 0 0 1.085.242c.377.013.752-.066 1.098-.23.346-.164.654-.41.902-.72.525-.663.8-1.519.77-2.394a3.74 3.74 0 0 0-.741-2.363 2.498 2.498 0 0 0-.893-.729 2.292 2.292 0 0 0-1.096-.226 2.447 2.447 0 0 0-1.107.231c-.35.163-.663.407-.918.715a3.577 3.577 0 0 0-.806 2.372ZM91.127 27.116v9.67c0 .086-.03.168-.085.23a.287.287 0 0 1-.209.096h-1.555a.287.287 0 0 1-.208-.097.342.342 0 0 1-.086-.229V35.8h-.06c-.38.537-.87.968-1.43 1.258-.56.291-1.175.433-1.795.416a4.063 4.063 0 0 1-1.704-.389 4.396 4.396 0 0 1-1.431-1.084c-.925-.976-1.388-2.326-1.388-4.052a5.852 5.852 0 0 1 .315-2.116 5.489 5.489 0 0 1 1.044-1.815c.426-.494.941-.886 1.514-1.149a4.107 4.107 0 0 1 1.809-.377c.603-.01 1.2.142 1.737.441.538.3 1 .738 1.349 1.277h.04v-1.076c0-.085.031-.167.087-.227a.281.281 0 0 1 .207-.094h1.555c.076 0 .148.031.203.088a.335.335 0 0 1 .091.215Zm-7.69 4.815a3.967 3.967 0 0 0 .74 2.41c.254.338.578.606.946.782.367.175.767.253 1.167.227.37 0 .734-.085 1.071-.25.337-.164.639-.404.885-.705.274-.321.487-.698.627-1.11.14-.41.204-.848.189-1.287a3.781 3.781 0 0 0-.796-2.494 2.58 2.58 0 0 0-.889-.725 2.362 2.362 0 0 0-1.087-.244 2.395 2.395 0 0 0-1.172.23c-.369.175-.696.442-.954.78a3.92 3.92 0 0 0-.727 2.386ZM93.424 41.02V27.172c0-.1.04-.194.108-.264s.16-.11.255-.11h1.42c.096 0 .187.04.255.11.067.07.105.165.105.264v.875h.06a4.11 4.11 0 0 1 1.451-1.166 3.948 3.948 0 0 1 1.795-.388c.6-.008 1.195.119 1.744.37.549.253 1.04.624 1.439 1.09a5.426 5.426 0 0 1 1.319 3.774 5.352 5.352 0 0 1-1.347 3.743c-.414.47-.919.845-1.481 1.098a4.213 4.213 0 0 1-1.785.37 3.654 3.654 0 0 1-1.73-.376 3.808 3.808 0 0 1-1.376-1.156h-.06v5.616c0 .1-.038.195-.106.265a.357.357 0 0 1-.254.113h-1.44a.352.352 0 0 1-.263-.108.377.377 0 0 1-.11-.27Zm7.69-9.337a3.548 3.548 0 0 0-.747-2.27 2.595 2.595 0 0 0-.948-.725 2.501 2.501 0 0 0-1.158-.214 2.563 2.563 0 0 0-1.682.611 3.657 3.657 0 0 0-1.084 2.414c-.051.92.239 1.824.81 2.527.248.29.552.52.893.678.341.156.71.235 1.083.23a2.43 2.43 0 0 0 1.155-.225c.363-.169.681-.425.931-.747.494-.64.758-1.438.747-2.258v-.02ZM114.865 27.192v9.537a.403.403 0 0 1-.102.27.34.34 0 0 1-.246.113h-1.435a.34.34 0 0 1-.247-.114.402.402 0 0 1-.101-.27V35.8h-.061c-.38.537-.87.968-1.432 1.258a3.674 3.674 0 0 1-1.798.416 4.075 4.075 0 0 1-1.707-.389 4.4 4.4 0 0 1-1.433-1.084c-.924-.976-1.388-2.326-1.39-4.052a5.831 5.831 0 0 1 .316-2.116 5.475 5.475 0 0 1 1.045-1.815 4.473 4.473 0 0 1 1.516-1.149 4.123 4.123 0 0 1 1.812-.377 3.464 3.464 0 0 1 1.74.441 3.83 3.83 0 0 1 1.351 1.277h.041v-1.018c0-.1.037-.197.102-.268a.334.334 0 0 1 .246-.111h1.451c.09.005.173.047.235.117s.097.165.097.262Zm-7.704 4.757a3.97 3.97 0 0 0 .74 2.41c.256.338.58.606.949.782a2.36 2.36 0 0 0 1.169.227c.37 0 .735-.085 1.074-.25.337-.164.639-.404.885-.705.278-.32.495-.695.639-1.107.144-.411.211-.85.199-1.29a3.77 3.77 0 0 0-.818-2.494 2.575 2.575 0 0 0-.89-.726 2.365 2.365 0 0 0-1.089-.243 2.395 2.395 0 0 0-1.173.23c-.37.175-.698.442-.956.779a3.92 3.92 0 0 0-.729 2.387ZM126.353 27.61v8.747a.326.326 0 0 1-.103.237.362.362 0 0 1-.249.098h-1.609a.355.355 0 0 1-.247-.098.326.326 0 0 1-.103-.237v-3.32a.33.33 0 0 0-.103-.238.367.367 0 0 0-.249-.101h-3.859a.362.362 0 0 0-.249.1.33.33 0 0 0-.103.238v3.321a.326.326 0 0 1-.103.237.36.36 0 0 1-.249.098h-1.612a.36.36 0 0 1-.249-.098.326.326 0 0 1-.103-.237v-8.746c0-.089.037-.174.103-.237a.36.36 0 0 1 .249-.098h1.612a.36.36 0 0 1 .249.098.326.326 0 0 1 .103.237v2.909c0 .088.037.173.103.236a.36.36 0 0 0 .249.098h3.859a.358.358 0 0 0 .248-.098.327.327 0 0 0 .104-.236v-2.91c0-.088.037-.173.103-.236a.355.355 0 0 1 .247-.098h1.609c.093 0 .183.036.249.098a.326.326 0 0 1 .103.237ZM127.884 31.996c-.02-.721.107-1.44.371-2.109s.66-1.275 1.165-1.78a5.316 5.316 0 0 1 3.8-1.616 5.316 5.316 0 0 1 3.804 1.607 5.565 5.565 0 0 1 1.579 3.887 5.574 5.574 0 0 1-1.57 3.892 5.385 5.385 0 0 1-3.802 1.598 5.38 5.38 0 0 1-3.811-1.576 5.31 5.31 0 0 1-1.162-1.789 5.41 5.41 0 0 1-.374-2.114Zm3.192-2.385a3.49 3.49 0 0 0-.813 2.385c-.031.885.28 1.747.865 2.399.27.3.598.539.962.703a2.831 2.831 0 0 0 3.277-.703c.568-.661.867-1.52.835-2.399a3.55 3.55 0 0 0-.813-2.367 2.986 2.986 0 0 0-.986-.705 2.911 2.911 0 0 0-2.355 0 2.972 2.972 0 0 0-.985.705l.013-.018ZM148.559 27.509v8.95c0 .062-.025.121-.068.165a.239.239 0 0 1-.167.068h-1.759a.245.245 0 0 1-.165-.07.235.235 0 0 1-.07-.163v-4.271h-.037a3.004 3.004 0 0 1-1.145 1.115 3.053 3.053 0 0 1-1.562.378 3.251 3.251 0 0 1-2.476-1.048c-.649-.702-.975-1.755-.975-3.158V27.51a.236.236 0 0 1 .235-.233h1.759c.063 0 .122.025.167.069a.23.23 0 0 1 .068.164v1.832c-.04.624.135 1.244.495 1.758a1.669 1.669 0 0 0 1.375.62 1.894 1.894 0 0 0 1.54-.69c.414-.577.614-1.28.565-1.986v-1.534c0-.062.024-.12.069-.165a.236.236 0 0 1 .166-.068h1.758c.03.001.061.007.089.02a.225.225 0 0 1 .138.214ZM150.857 36.463v-8.95a.229.229 0 0 1 .229-.232h1.709c.061 0 .119.024.162.068a.234.234 0 0 1 .067.164v3.353a.229.229 0 0 0 .144.228c.045.017.094.02.14.007a.231.231 0 0 0 .118-.08l3.405-3.671a.203.203 0 0 1 .165-.073h1.905a.226.226 0 0 1 .213.136.232.232 0 0 1-.044.252l-3.635 3.92a.237.237 0 0 0 0 .31l3.791 4.413a.228.228 0 0 1 .052.119.228.228 0 0 1-.102.227.223.223 0 0 1-.122.038h-2.026a.238.238 0 0 1-.172-.082l-3.419-4.047a.22.22 0 0 0-.254-.073.224.224 0 0 0-.11.088.234.234 0 0 0-.037.136v3.745a.237.237 0 0 1-.068.163.231.231 0 0 1-.16.07h-1.722a.231.231 0 0 1-.159-.068.242.242 0 0 1-.07-.16ZM161.577 36.349v-8.836a.247.247 0 0 1 .015-.09.22.22 0 0 1 .208-.143h1.599a.217.217 0 0 1 .205.144.223.223 0 0 1 .016.089v3.382c0 1.167-.019 2.13-.056 2.892h.036c.383-.666.8-1.31 1.25-1.93l3.209-4.487a.222.222 0 0 1 .181-.094h1.536a.22.22 0 0 1 .208.143.229.229 0 0 1 .016.09v8.95c0 .062-.023.121-.065.165a.222.222 0 0 1-.159.068h-1.599a.22.22 0 0 1-.156-.07.238.238 0 0 1-.064-.163v-3.365c0-1.167.019-2.137.055-2.909h-.035c-.204.378-.621 1.02-1.25 1.926l-3.178 4.438a.326.326 0 0 1-.267.143h-1.371a.328.328 0 0 1-.235-.1.355.355 0 0 1-.099-.243Z" fill="#1A1A1A"/></g><defs><clipPath id="ca"><path fill="#fff" transform="translate(0 .6)" d="M0 0h170v40.8H0z"/></clipPath></defs></symbol><symbol fill="none" viewBox="0 0 170 36" id="svg-chokolate" xmlns="http://www.w3.org/2000/svg"><g clip-path="url(#da)" fill="#1A1A1A"><path d="M118.773 22.448c-1.473 0-2.493-.963-2.493-2.776 0-1.814.85-2.89 2.607-2.89 1.756 0 2.493 1.246 2.493 2.72 0 1.473-.963 2.946-2.607 2.946Zm-.396-11.673a6.574 6.574 0 0 0-4.024 1.247v2.266a6.576 6.576 0 0 1 3.854-1.246c2.21 0 3.23 1.133 3.286 2.663a4.248 4.248 0 0 0-3.003-1.133c-3.117 0-4.873 2.266-4.873 5.1 0 2.833 1.756 4.986 4.986 4.986 3.23 0 5.497-2.153 5.497-6.686v-.227c0-4.703-2.04-6.97-5.723-6.97ZM164.05 22.505c-1.53 0-2.437-1.19-2.437-2.89 0-1.7.907-3.06 2.437-3.116 1.53-.057 2.663 1.246 2.663 3.003 0 1.757-1.076 3.003-2.663 3.003Zm5.95 1.87c-.51-.85-.623-1.813-.623-4.986v-4.817h-2.607v.85a4.306 4.306 0 0 0-3.003-1.077c-3.004 0-4.817 2.38-4.817 5.327s2.097 4.987 4.533 4.987a4.304 4.304 0 0 0 3.4-1.644c.046.482.201.948.454 1.36H170ZM63.58 22.448c-1.643 0-2.493-1.246-2.493-2.946 0-1.7.906-2.947 2.493-2.947 1.587 0 2.493 1.303 2.493 2.947 0 1.643-.85 2.947-2.493 2.947Zm0-8.103c-3.23 0-5.157 2.21-5.157 5.157s1.87 5.157 5.157 5.157 5.157-2.21 5.157-5.157-1.87-5.157-5.157-5.157ZM17.453 32.819c-8.103 0-14.733-6.064-14.733-14.79 0-8.727 6.63-14.847 14.733-14.847 8.104 0 14.734 6.063 14.734 14.847 0 8.783-6.574 14.79-14.734 14.79Zm0-32.3C7.82.519 0 7.772 0 18.029c0 10.256 7.82 17.453 17.453 17.453 9.634 0 17.51-7.253 17.51-17.453S27.087.519 17.453.519Z"/><path d="M13.373 11.398H10.71c.568 1.21.895 2.519.963 3.854 0 2.436-1.87 4.986-1.87 7.48a5.384 5.384 0 0 0 .397 2.096h2.663a6.175 6.175 0 0 1-.34-2.096c0-2.494 1.814-5.044 1.814-7.48a10.314 10.314 0 0 0-.964-3.854ZM24.083 11.398H21.42c.568 1.21.895 2.519.963 3.854 0 2.436-1.813 4.986-1.813 7.48a6.178 6.178 0 0 0 .34 2.096h2.663a6.175 6.175 0 0 1-.34-2.096c0-2.494 1.87-5.044 1.87-7.48a9.917 9.917 0 0 0-1.02-3.854ZM18.757 11.398h-2.72a9.917 9.917 0 0 1 1.02 3.854c0 2.436-1.87 4.986-1.87 7.48a6.175 6.175 0 0 0 .34 2.096h2.663a6.178 6.178 0 0 1-.34-2.096c0-2.494 1.87-5.044 1.87-7.48a10.314 10.314 0 0 0-.963-3.854ZM54.003 22.108h-2.946V11.625h-2.664v10.483h-2.946V11.625h-3.514c.567.85.85 2.153.85 4.533v8.217h13.884v-12.75h-2.664v10.483ZM132.43 18.425h-3.91v-3.853h-3.117s.51 1.133.51 4.533v5.27h2.607v-3.853h3.91v3.853h2.663v-9.803h-2.663v3.853ZM139.683 20.578v-6.006h-2.606v9.803h2.606l3.91-6.007v6.007h2.664v-9.803h-2.664l-3.91 6.006ZM79.39 14.572h-2.947l-3.286 4.08v-4.08h-3.174s.51 1.133.51 4.476v5.327h2.664v-4.363l3.003 4.363h3.173l-3.683-5.157 3.74-4.646ZM106.533 22.505c-1.473 0-2.436-1.19-2.436-2.89 0-1.7.906-3.06 2.436-3.116 1.53-.057 2.664 1.246 2.664 3.003 0 1.757-1.077 3.003-2.664 3.003Zm5.327-7.933h-2.607v.907a4.248 4.248 0 0 0-3.003-1.134c-3.003 0-4.817 2.38-4.817 5.327s2.097 4.987 4.59 4.987a4.421 4.421 0 0 0 3.344-1.587c.069.467.243.913.51 1.303h2.606c-.51-.85-.623-1.813-.623-4.986v-4.817ZM92.14 20.805c0 1.077-.397 1.53-1.133 1.53a1.531 1.531 0 0 1-.624-.113v2.153c.384.201.814.299 1.247.283 2.493 0 3.06-1.983 3.06-3.853v-4.08h2.38v7.65h2.607v-9.803H92.14v6.233ZM158.383 22.222h-1.19v-7.65h-2.606v7.65h-3.74v-7.65h-2.664v9.803h7.537a5.274 5.274 0 0 0 .51 2.267h2.663s-.736-1.134-.51-4.42ZM84.547 22.448c-1.644 0-2.494-1.246-2.494-2.946 0-1.7.85-2.947 2.494-2.947 1.643 0 2.493 1.303 2.493 2.947 0 1.643-.85 2.947-2.493 2.947Zm0-8.103c-3.287 0-5.157 2.21-5.157 5.157s1.813 5.157 5.157 5.157c3.343 0 5.156-2.21 5.156-5.157s-1.87-5.157-5.156-5.157Z"/></g><defs><clipPath id="da"><path fill="#fff" transform="translate(0 .519)" d="M0 0h170v34.963H0z"/></clipPath></defs></symbol><symbol fill="none" viewBox="0 0 180 66" id="svg-delivery" xmlns="http://www.w3.org/2000/svg"><path d="M41.088 33.08c0 12.222 17.988 12.222 17.988 0 0-12.177-17.988-12.177-17.988 0Zm4.612 0c0-6.344 8.806-6.344 8.806 0a4.42 4.42 0 0 1-8.806 0Zm45.4 2.578-3.443 5.59v.666h5.01l3.001-5.19h2.34v5.19h4.481V24.28h-7.704c-6.885.022-8.122 8.362-3.685 11.378Zm6.908-7.341v4.569h-3.2c-2.429 0-2.56-4.548 0-4.57 1.037-.02 3.2 0 3.2 0Zm29.355 13.596v-15.55a2.313 2.313 0 0 0-2.296-2.305 2.315 2.315 0 0 0-2.295 2.307v4.324h-5.54v-4.324a2.309 2.309 0 0 0-2.295-2.307 2.315 2.315 0 0 0-2.295 2.307v15.548h4.59v-7.077h5.54v7.076l4.591.001Zm17.811-17.855h-1.943l-7.901 17.211v.667h4.392l.905-2.219h7.151l.905 2.219h4.392v-.666l-7.901-17.212Zm-3.157 12.266 2.186-5.302 2.184 5.302h-4.37Zm-60.826 4.945-7.903-17.211h-1.897L63.49 41.269v.644h4.59l4.26-9.582 4.26 9.582h4.59v-.643l.001-.001ZM.323 24.28c-.288 0-.42.333-.243.554l2.671 2.884H19.26v3.793H6.26l3.179 3.416h9.82v3.792h-6.311l3.156 3.417h5.43a2.313 2.313 0 0 0 2.294-2.307V28.428h5.628v11.401c0 1.264 1.038 2.307 2.295 2.307a2.313 2.313 0 0 0 2.297-2.307v-15.55H.322v.001Z" fill="#000"/><path d="m143.782 65.484 2.737-5.035v-3.084h2.295v3.084l2.737 5.034h-2.56l-1.325-2.838-1.324 2.838-2.56.001ZM147.6.516c1.126 0 2.031.4 2.781 1.176.751.776 1.126 1.73 1.126 2.883s-.375 2.13-1.126 2.905c-.75.778-1.677 1.154-2.781 1.154h-3.332V.516h3.332Zm0 5.856c.928 0 1.612-.732 1.612-1.797s-.684-1.797-1.612-1.797h-.926v3.617h.926v-.023Zm11.741 2.862 2.671 1.376-.971 1.885-4.701-2.44 3.708-7.209 4.657 2.418-.971 1.907-2.605-1.353-.397.777 2.361 1.22-.949 1.84-2.383-1.22-.42.799Zm9.338 7.762 1.589 2.13-1.789 1.352-2.957-3.991 6.467-4.858 1.391 1.863-4.701 3.504Zm9.6 6.078.618 2.217-7.769 2.174-.619-2.24 7.77-2.151Zm-6.644 12.156L180 33.855l-.375 2.529-5.275.554L179.228 39l-.375 2.53-7.615-3.75.397-2.55Zm-2.559 12.885-1.744 2.463-1.722-1.242 3.069-4.348 6.576 4.703-3.046 4.281-1.721-1.22 1.7-2.418-.706-.51-1.523 2.172-1.7-1.197 1.545-2.172-.728-.512Zm-11.213 6.878 2.318 1.64.508-.266-1.192-2.24 2.03-1.086 3.796 7.143-2.847 1.529c-.772.422-1.545.532-2.295.333-.751-.178-1.324-.643-1.722-1.42-.442-.842-.419-1.774.044-2.55l-2.824-1.908 2.184-1.176v.002Zm4.436 4.392-.706-1.332-.772.422c-.441.222-.574.621-.354 1.02.222.421.619.533 1.06.288l.772-.398Z" fill="#90BD3A"/></symbol><symbol fill="none" viewBox="0 0 24 24" id="svg-insta" xmlns="http://www.w3.org/2000/svg"><path d="M7.8 2h8.4C19.4 2 22 4.6 22 7.8v8.4a5.8 5.8 0 0 1-5.8 5.8H7.8C4.6 22 2 19.4 2 16.2V7.8A5.8 5.8 0 0 1 7.8 2Zm-.2 2A3.6 3.6 0 0 0 4 7.6v8.8C4 18.39 5.61 20 7.6 20h8.8a3.6 3.6 0 0 0 3.6-3.6V7.6C20 5.61 18.39 4 16.4 4H7.6Zm9.65 1.5a1.25 1.25 0 1 1 0 2.5 1.25 1.25 0 0 1 0-2.5ZM12 7a5 5 0 1 1 0 10 5 5 0 0 1 0-10Zm0 2a3 3 0 1 0 0 6 3 3 0 0 0 0-6Z" fill="#fff"/></symbol><symbol fill="none" viewBox="0 0 1680 239" id="svg-interspace" xmlns="http://www.w3.org/2000/svg"><path d="M1 238.139h16.55V55.224H1v182.915ZM87.832 85.833l-1.867 3.247V54.199H67.362V239.16h18.603v-97.677c0-22.558 6.17-40.958 17.419-53.734 11.262-12.79 27.525-19.839 47.482-19.839 16.963 0 30.625 5.23 40.043 14.95 9.414 9.716 14.474 23.797 14.474 41.279V239.16h18.971V124.139c0-22.578-7.094-41.07-19.59-53.91-12.492-12.84-30.472-20.121-52.421-20.121-28.89 0-51.065 12.339-64.511 35.725ZM277.815 231.217c-9.329-7.986-13.969-20.549-13.969-38.677V7.594l20.038-5.88v51.974h55.282v19.191h-55.282V192.54c0 11.782 2.279 19.673 7.486 24.422m-13.555 14.255Zm0 0c8.128 6.957 20.15 10.493 36.637 10.493 7.231 0 15.308-.682 24.257-2.045M339.166 239.596v-17.692m-.587.051c-10.998.976-20.631 1.672-28.553 1.175-7.905-.496-14.297-2.19-18.656-6.167m47.796 22.633ZM370.079 137.126h-1.123l.13-1.116c4.6-39.596 35.369-67.079 75.507-67.079 38.23 0 66.533 26.936 71.078 67.082l.126 1.113H370.079Zm157.827 64.832.546-.902-18.184-10.704-.521.952c-11.417 20.805-35.123 33.124-63.266 33.124-41.223 0-72.082-26.408-77.353-65.957l-.151-1.132H536.962v-1.046c0-1.46.091-2.925.18-4.354l.001-.019c.095-1.531.187-3.025.187-4.504 0-47.768-32.561-98.33-92.737-98.33-56.302 0-97.128 41.014-97.128 97.595 0 56.566 41.45 97.592 98.648 97.592 35.771 0 65.54-15.461 81.793-42.315ZM596.067 75.355l-1.813 2.536V51.131h-24.757v191.098h24.757V136.33c0-23.392 7.55-39.392 18.759-49.534 11.188-10.123 25.905-14.304 40.066-14.304h3.105V48.554h-3.105c-25.072 0-44.451 9.23-57.012 26.8ZM705.874 122.795l.001.001c8.942 5.629 21.911 8.937 35.408 12.381l.083.021c15.477 3.951 31.769 8.12 44.211 16.189 6.201 4.021 11.415 8.994 15.082 15.366 3.665 6.368 5.816 14.186 5.816 23.948 0 16.353-7.101 30.226-19.312 40.032-12.226 9.817-29.618 15.587-50.195 15.587-35.968 0-63.303-16.195-73.413-43.08m42.319-80.445Zm0 0c-3.838-2.424-6.736-5.162-8.706-8.38-1.968-3.214-2.977-6.85-3.125-11.021-.021-.228-.019-.462-.018-.629l.001-.103c0-13.463 8.506-23.93 23.084-28.792 5.521-1.923 11.696-2.892 18.34-2.892 4.145 0 8.218.392 12.127 1.17 15.595 3.035 27.189 11.905 32.52 25.043M780.097 97.192l1.331 3.285 21.071-12.025-1.132-2.547c-7.392-16.636-21.542-29.054-39.88-34.948M761.486 50.956c-8.032-2.595-16.789-3.916-26.036-3.916-1.11 0-2.205.005-3.041.08M732.351 47.123c-36.724 1.165-63.086 24.634-63.086 55.539 0 8.181 1.632 15.423 4.801 21.513M674.071 124.184c3.663 7.215 9.457 13.166 17.788 18.19 11.987 7.208 27.069 11.11 41.837 14.922m.105.027c12.602 3.254 24.518 6.331 33.275 11.154m0 0c4.408 2.427 8.075 5.326 10.64 8.966m0 0c2.575 3.655 4.002 8.005 4.002 13.258m0 0c0 11.749-6.146 19.719-14.808 24.701m0 0c-8.615 4.956-19.743 6.982-29.942 6.982m0 0c-25.773 0-45.207-11.266-51.596-30.446m0 0-1.204-3.614m-20.613 14.915 20.613-14.915ZM861.589 90.097l-1.843 2.888V53.178h-20.654v260.971h20.654V200.411l1.843 2.885c16.696 26.137 44.298 40.978 76.888 40.978 54.469 0 97.133-42.855 97.133-97.593 0-54.74-42.664-97.595-97.133-97.595-32.6 0-60.197 14.85-76.888 41.01Zm75.739 134.332c-43.499 0-77.582-34.161-77.582-77.748 0-43.586 34.083-77.749 77.582-77.749 43.521 0 77.622 34.163 77.622 77.749 0 43.587-34.101 77.748-77.622 77.748ZM1237.25 94.107v3.683l-1.86-3.177c-16.41-27.983-44.86-43.992-78.41-43.992-25.55 0-49.5 9.804-67.44 27.606l-.71-.71.71.71c-18.15 18-28.15 42.306-28.15 68.454 0 26.148 10 50.453 28.15 68.452v.001c17.94 17.802 41.89 27.605 67.44 27.605 33.54 0 61.99-15.995 78.41-43.954l1.86-3.172V238.649h17.94V54.711h-17.94v39.396Zm-78.75 131.855c-44.39 0-79.17-34.833-79.17-79.281 0-44.448 34.78-79.283 79.17-79.283 44.15 0 78.75 34.84 78.75 79.283s-34.6 79.281-78.75 79.281ZM1457.79 186.942l15.6 9.313-.01.018v.001c-15.05 28.941-46.6 46.977-82.39 46.977-55.66 0-97.58-41.509-97.58-96.571 0-55.063 41.92-96.573 97.58-96.573 36.48 0 67.44 18.209 80.92 47.389v.001l.01.015-15.23 8.904-.01-.024c-11.01-23.788-36.23-38.482-65.69-38.482-44.07 0-78.6 34.61-78.6 78.77 0 44.161 34.53 78.771 78.6 78.771 28.91 0 53.9-14.367 66.79-38.483l.01-.026Zm0 0-.01.025.01-.025ZM1511.57 139.171h-1.09l.09-1.09c3.74-41.538 34.95-71.195 77.79-71.195 36.88 0 69.24 25.556 73.35 71.195l.1 1.09H1511.57Zm78.26 103.058c36 0 64.35-16.117 79.51-40.465l-14.58-8.579c-11.15 19.487-34.26 33.289-64.56 33.289-42.75 0-75.14-27.729-79.63-70.075l-.11-1.105h168.18c.03-1.17.11-2.338.18-3.484v-.016c.09-1.489.18-2.941.18-4.377 0-50.217-34.92-96.285-90.64-96.285-56.19 0-95.12 41.708-95.12 95.548 0 55.286 40.01 95.549 96.59 95.549Z"/></symbol><symbol viewBox="0 0 197 70" fill="none" id="svg-kult" xmlns="http://www.w3.org/2000/svg"><g clip-path="url(#ha)" fill="#1A1A1A"><path d="M110.98 1.659h5.435v45.3h17.131V0H110.98v1.659ZM162.191 25.235V9.12l-17.135 4.235V46.96h17.135V26.894h11.969v-1.659h-11.969ZM37.393 6.357h7.275L18.697 35.275l-.737.186V4.605H0v42.353h17.96V38.13l.83-.185 4.664 9.013h20.393l-11.703-22.92L47.986 6.358h5.523V4.605H37.393v1.752ZM60.233 25.234v21.724h17.13V25.234H60.233ZM87.337 25.234h-.026v21.724h17.131V25.234H87.337ZM47.329 53.774H26.978l7.01 13.552h-4.333v1.748h29.567v-1.748h-4.976L47.33 53.774ZM87.311 55.08c0 3.367-.614 6.007-1.84 7.919-1.225 1.91-2.63 2.862-4.21 2.854-1.566 0-2.61-.582-3.132-1.747-.522-1.165-.778-3.591-.77-7.28v-3.052h-17.13v.842C60.228 64.872 64.985 70 74.504 70c3.805 0 6.677-.661 8.613-1.983a12.068 12.068 0 0 0 4.375-5.663l1.014 6.736h15.931V53.774h-17.13l.003 1.306ZM171.537 63.55c-1.381 1.844-2.993 2.766-4.837 2.766-1.844 0-3.057-.677-3.638-2.03-.585-1.346-.875-3.468-.875-6.352v-4.16h-17.131v2.13c0 5.333 1.351 9.018 4.054 11.056 2.703 2.038 6.602 3.051 11.696 3.04 5.098 0 8.744-1.243 10.946-3.73s3.549-5.855 4.05-10.104l-1.566-.185c-.417 3.207-1.318 5.73-2.699 7.57ZM193.871 55.905c-1.473-1.288-3.469-1.932-5.987-1.932-2.517 0-4.466.766-5.847 2.298a8.15 8.15 0 0 0-2.072 5.663 8.549 8.549 0 0 0 1.979 5.713c1.318 1.566 3.313 2.349 5.987 2.349 2.673 0 4.702-.737 6.079-2.21 1.381-1.474 2.071-3.5 2.071-6.08 0-2.579-.736-4.513-2.21-5.8ZM17.96 53.774H0v15.308h17.96V53.774ZM116.415 66.653V69.074h17.131v-15.3h-17.131v12.879Z"/></g><defs><clipPath id="ha"><path fill="#fff" d="M0 0h196.081v70H0z"/></clipPath></defs></symbol><symbol fill="none" viewBox="0 0 170 50" id="svg-like" xmlns="http://www.w3.org/2000/svg"><g clip-path="url(#ia)" fill="#1A1A1A"><path d="M122.076.816c2.22.014 3.208 1.696 2.194 3.739-1.014 2.042-3.659 3.702-5.88 3.689-2.22-.014-3.207-1.696-2.194-3.738 1.014-2.043 3.66-3.703 5.88-3.69ZM114.411 35l-19.146-.036.048-25.205 6.785.013-.037 19.873 12.36.023-.01 5.332ZM122.795 34.982h-6.785V9.777h6.785v25.205ZM124.388 9.777h6.786v10.18l8.967-10.18h7.998l-9.501 9.84 9.985 15.365h-8.288l-6.398-10.518-2.763 2.86v7.658h-6.786V9.777Z"/><path d="M152.273 19.471h10.712c-.435-3.102-1.792-5.331-5.137-5.331-3.344 0-4.993 2.23-5.575 5.331Zm5.575-10.42c8.288 0 12.118 5.961 12.118 13.329 0 .581-.049 1.454-.049 1.454H152.08c.291 3.877 1.939 6.785 6.01 6.785 4.12 0 4.847-3.877 4.847-3.877h6.786s-1.454 8.967-11.875 8.967c-8.483 0-12.603-5.962-12.603-13.33 0-7.367 4.314-13.329 12.603-13.329ZM19.146 35 0 34.964.048 9.759l6.785.013-.037 19.873 12.36.023-.01 5.332ZM27.53 34.982h-6.785V9.777h6.786v25.205ZM29.123 9.777h6.786v10.18l8.967-10.18h7.997l-9.5 9.84 9.985 15.365H45.07l-6.398-10.518-2.763 2.86v7.658h-6.786V9.777Z"/><path d="M57.009 19.471H67.72c-.436-3.102-1.794-5.331-5.138-5.331s-4.992 2.23-5.574 5.331Zm5.574-10.42C70.87 9.05 74.7 15.011 74.7 22.38c0 .581-.049 1.454-.049 1.454H56.815c.29 3.877 1.939 6.785 6.01 6.785 4.12 0 4.847-3.877 4.847-3.877h6.786s-1.454 8.967-11.875 8.967c-8.482 0-12.602-5.962-12.602-13.33 0-7.367 4.313-13.329 12.602-13.329ZM86.897 17.532l-5.58 7.972 5.58-7.972ZM86.898 25.504v-7.972 7.972ZM86.898 25.504h-5.58l5.58-7.971v7.971Zm0-15.727L75.582 25.504v5.332h11.316v4.146h6.786V9.777h-6.786ZM70.738 44.844c.821.005 1.187.628.812 1.383-.376.756-1.355 1.37-2.176 1.366-.822-.005-1.187-.628-.812-1.383.375-.756 1.354-1.37 2.176-1.366ZM108.846 44.844c.821.005 1.187.628.812 1.383-.375.756-1.355 1.37-2.176 1.366-.822-.005-1.187-.628-.812-1.383.375-.756 1.354-1.37 2.176-1.366ZM16.107 43.438V49h-1.288v-2.28h-2.527V49h-1.287v-5.563h1.287v2.194h2.527v-2.194h1.288ZM21.01 47.772c.264-.151.472-.362.623-.632.15-.27.227-.578.227-.922 0-.344-.076-.651-.227-.921-.151-.27-.36-.481-.624-.632a1.764 1.764 0 0 0-.89-.227c-.328 0-.625.076-.89.227-.265.15-.473.362-.623.632-.151.27-.227.577-.227.921 0 .344.076.652.227.922.15.27.358.48.623.632.265.15.562.226.89.226.329 0 .625-.075.89-.226Zm-2.452.95a2.768 2.768 0 0 1-1.089-1.03 2.808 2.808 0 0 1-.393-1.474c0-.545.131-1.037.393-1.474a2.77 2.77 0 0 1 1.089-1.029c.463-.249.984-.373 1.561-.373.578 0 1.097.124 1.558.373a2.788 2.788 0 0 1 1.486 2.503 2.786 2.786 0 0 1-1.486 2.503c-.461.25-.98.374-1.558.374a3.245 3.245 0 0 1-1.561-.374ZM24.684 48.916c-.41-.12-.74-.274-.989-.465l.437-.97c.238.175.522.316.85.422.329.106.657.159.986.159.365 0 .635-.054.81-.163.175-.109.262-.253.262-.433a.414.414 0 0 0-.155-.33 1.176 1.176 0 0 0-.397-.21 7.929 7.929 0 0 0-.655-.175c-.424-.101-.771-.201-1.041-.302-.27-.1-.503-.262-.696-.485-.193-.223-.29-.519-.29-.89 0-.323.088-.616.262-.878.175-.262.439-.47.791-.624.352-.153.783-.23 1.291-.23.355 0 .702.043 1.041.127.339.085.636.207.89.366l-.397.977c-.514-.291-1.028-.437-1.542-.437-.36 0-.626.058-.798.175a.533.533 0 0 0-.259.46c0 .191.1.333.299.426.198.092.501.184.91.274.423.1.77.201 1.04.302.27.1.502.26.695.477.194.217.29.51.29.881 0 .318-.088.608-.266.87-.177.263-.443.47-.798.624-.355.154-.787.23-1.296.23-.44 0-.864-.059-1.275-.178ZM32.42 46.167c.2-.167.301-.404.301-.711 0-.313-.1-.553-.302-.72-.201-.166-.495-.25-.882-.25H30.49v1.931h1.048c.387 0 .68-.083.882-.25Zm.472-2.483c.363.164.642.397.838.699.196.302.295.66.295 1.073 0 .408-.099.764-.295 1.069a1.873 1.873 0 0 1-.838.699c-.363.161-.79.242-1.283.242h-1.12V49H29.2v-5.563h2.408c.492 0 .92.083 1.283.247ZM34.938 43.438h1.287V49h-1.287v-5.563ZM38.697 44.486h-1.78v-1.048h4.847v1.048h-1.78V49h-1.287v-4.514ZM45.435 46.83l-.882-2.13-.882 2.13h1.764Zm.405.978h-2.582L42.765 49h-1.319l2.48-5.563h1.27L47.685 49h-1.351l-.493-1.192ZM48.264 43.438h1.287v4.513h2.789V49h-4.076v-5.563ZM53.063 43.438h1.287V49h-1.287v-5.563ZM56.821 44.486h-1.78v-1.048h4.847v1.048h-1.78V49h-1.287v-4.514Z"/><path d="M63.146 47.029v1.97H61.86v-1.986l-2.153-3.575h1.366l1.486 2.47 1.486-2.47h1.264l-2.162 3.591ZM78.06 44.737c-.201-.167-.495-.25-.882-.25H76.13v1.938h1.048c.387 0 .681-.084.883-.254.2-.17.301-.408.301-.715 0-.313-.1-.553-.301-.72ZM78.386 49l-1.072-1.55H76.13V49h-1.288v-5.563h2.408c.493 0 .92.083 1.283.247.363.164.643.397.838.699.196.302.295.66.295 1.073 0 .413-.1.77-.298 1.069-.2.299-.481.528-.847.687L79.77 49h-1.383ZM84.989 47.967V49h-4.307v-5.563h4.204v1.033h-2.924v1.208h2.582v1.002h-2.582v1.287h3.027ZM87.166 44.486h-1.78v-1.048h4.847v1.048h-1.78V49h-1.287v-4.514ZM93.904 46.83l-.882-2.13-.882 2.13h1.764Zm.406.978h-2.583L91.235 49h-1.32l2.48-5.563h1.271L96.153 49h-1.35l-.493-1.192ZM96.733 43.438h1.287V49h-1.287v-5.563ZM99.34 43.438h1.287v4.513h2.789V49h-4.077v-5.563ZM114.199 44.47v1.47h2.575v1.033h-2.575V49h-1.287v-5.563h4.203v1.033h-2.916ZM121.518 47.772c.264-.151.472-.362.623-.632.151-.27.227-.578.227-.922 0-.344-.076-.651-.227-.921a1.628 1.628 0 0 0-.623-.632 1.766 1.766 0 0 0-.89-.227 1.76 1.76 0 0 0-.89.227c-.265.15-.473.362-.624.632-.151.27-.227.577-.227.921 0 .344.076.652.227.922.151.27.359.48.624.632.264.15.561.226.89.226.328 0 .625-.075.89-.226Zm-2.452.95a2.77 2.77 0 0 1-1.482-2.504c0-.545.132-1.037.394-1.474a2.77 2.77 0 0 1 1.088-1.029c.464-.249.984-.373 1.562-.373.577 0 1.096.124 1.557.373.461.25.824.592 1.089 1.03.264.436.397.928.397 1.473 0 .546-.133 1.037-.397 1.474-.265.437-.628.78-1.089 1.03-.461.248-.98.373-1.557.373a3.247 3.247 0 0 1-1.562-.374ZM128.224 47.772c.265-.151.473-.362.624-.632.151-.27.226-.578.226-.922 0-.344-.075-.651-.226-.921a1.624 1.624 0 0 0-.624-.632 1.766 1.766 0 0 0-.89-.227c-.329 0-.625.076-.89.227-.265.15-.473.362-.624.632-.151.27-.226.577-.226.921 0 .344.075.652.226.922.151.27.359.48.624.632.265.15.561.226.89.226.328 0 .625-.075.89-.226Zm-2.452.95a2.77 2.77 0 0 1-1.088-1.03 2.81 2.81 0 0 1-.393-1.474c0-.545.131-1.037.393-1.474a2.77 2.77 0 0 1 1.088-1.029 3.25 3.25 0 0 1 1.562-.373c.577 0 1.096.124 1.557.373a2.787 2.787 0 0 1 1.486 2.503 2.785 2.785 0 0 1-1.486 2.503c-.461.25-.98.374-1.557.374a3.25 3.25 0 0 1-1.562-.374ZM133.81 47.943c.556 0 1-.155 1.331-.465.331-.31.497-.73.497-1.26 0-.529-.166-.949-.497-1.259-.331-.31-.775-.465-1.331-.465h-1.176v3.449h1.176Zm-2.463-4.505h2.527c.603 0 1.137.115 1.6.345.464.23.824.555 1.081.974.257.418.386.905.386 1.462 0 .556-.129 1.043-.386 1.462a2.585 2.585 0 0 1-1.081.973c-.463.23-.997.346-1.6.346h-2.527v-5.563ZM138.983 44.486h-1.78v-1.048h4.847v1.048h-1.78V49h-1.287v-4.514ZM147.048 47.967V49h-4.306v-5.563h4.202v1.033h-2.923v1.208h2.582v1.002h-2.582v1.287h3.027ZM149.182 48.725a2.738 2.738 0 0 1-1.081-1.025 2.825 2.825 0 0 1-.393-1.482c0-.55.131-1.045.393-1.482a2.738 2.738 0 0 1 1.081-1.025c.458-.246.973-.37 1.545-.37.482 0 .917.086 1.307.255.39.17.717.413.982.731l-.827.763c-.377-.434-.842-.652-1.398-.652-.345 0-.652.076-.922.227a1.61 1.61 0 0 0-.632.632c-.151.27-.226.577-.226.921 0 .344.075.652.226.922.151.27.362.48.632.632.27.15.577.226.922.226.556 0 1.021-.22 1.398-.66l.827.764c-.265.323-.594.57-.986.738-.393.17-.83.255-1.31.255-.568 0-1.08-.123-1.538-.37ZM158.982 43.438V49h-1.287v-2.28h-2.527V49h-1.287v-5.563h1.287v2.194h2.527v-2.194h1.287Z"/></g><defs><clipPath id="ia"><path fill="#fff" transform="translate(0 .816)" d="M0 0h170v48.368H0z"/></clipPath></defs></symbol><symbol viewBox="0 0 200 38" id="svg-logo" xmlns="http://www.w3.org/2000/svg"><path d="M0 29.013h2.208V6.93H0v22.084ZM18.136 6.319c-3.478 0-6.16 1.493-7.783 4.326V6.807H7.9v22.328h2.453V17.351c0-5.346 2.915-8.667 7.607-8.667 3.99 0 6.371 2.465 6.371 6.595v13.856h2.497V15.28c0-5.443-3.412-8.96-8.692-8.96ZM33.915.499l-2.624.772v22.177c0 2.184.558 3.725 1.705 4.71.997.857 2.461 1.282 4.439 1.282.868 0 1.835-.082 2.905-.246l.156-.023v-2.346l-.2.017c-2.62.233-4.552.329-5.529-.565-.582-.533-.852-1.431-.852-2.829V9.277h6.581V6.746h-6.581V.499ZM44.057 16.71c.54-4.668 4.153-7.905 8.87-7.905 4.485 0 7.81 3.165 8.344 7.906H44.057Zm8.87-10.514c-6.768 0-11.681 4.953-11.681 11.775 0 6.823 4.989 11.775 11.863 11.775 4.293 0 7.88-1.863 9.839-5.111l.127-.211-2.374-1.402-.121.221c-1.334 2.438-4.11 3.894-7.427 3.894-4.851 0-8.472-3.112-9.091-7.773h19.981v-.245c0-.17.01-.343.021-.514.012-.183.023-.365.023-.546 0-5.75-3.911-11.863-11.16-11.863ZM70.864 9.384V6.44h-3.186V29.5h3.186V16.736c0-5.533 3.556-7.504 6.883-7.504h.49V6.133h-.49c-3.016 0-5.362 1.116-6.883 3.25ZM88.287 16.484c-1.617-.414-3.144-.805-4.19-1.466-.892-.565-1.321-1.26-1.354-2.224-.003-.027-.002-.053-.002-.08 0-1.546.97-2.758 2.668-3.325a6.493 6.493 0 0 1 2.144-.34c.487 0 .964.047 1.421.138 1.823.356 3.167 1.393 3.784 2.919l.21.519 2.72-1.558-.178-.402c-.895-2.02-2.607-3.526-4.82-4.24a10.16 10.16 0 0 0-3.51-.463c-4.417.14-7.625 2.98-7.625 6.752 0 .993.198 1.877.585 2.625.448.885 1.156 1.61 2.163 2.22 1.444.872 3.258 1.341 5.012 1.796 3.02.782 5.628 1.457 5.628 3.873 0 2.705-2.806 3.665-5.209 3.665-3.036 0-5.29-1.33-6.03-3.555l-.189-.57-2.776 1.613.144.387c1.226 3.27 4.535 5.222 8.851 5.222 4.943 0 8.394-2.78 8.394-6.762 0-4.736-4.165-5.803-7.84-6.744ZM111.587 27.137c-5.113 0-9.117-4.026-9.117-9.166 0-5.14 4.004-9.166 9.117-9.166 5.115 0 9.121 4.027 9.121 9.166 0 5.14-4.006 9.166-9.121 9.166Zm.136-20.94c-3.919 0-7.243 1.792-9.253 4.952V6.685h-2.697v31.406h2.697V24.797c2.01 3.157 5.335 4.949 9.253 4.949 6.551 0 11.682-5.172 11.682-11.775 0-6.602-5.131-11.774-11.682-11.774ZM137.916 27.32c-5.218 0-9.305-4.106-9.305-9.349 0-5.242 4.087-9.349 9.305-9.349 5.191 0 9.256 4.107 9.256 9.35 0 5.242-4.065 9.348-9.256 9.348Zm9.256-15.627c-1.975-3.38-5.401-5.313-9.437-5.313-3.072 0-5.953 1.183-8.112 3.331-2.184 2.173-3.386 5.107-3.386 8.26 0 3.154 1.202 6.088 3.386 8.26 2.159 2.149 5.04 3.332 8.112 3.332 4.035 0 7.461-1.932 9.437-5.309v4.82h2.375V6.868h-2.375v4.825ZM173.44 22.726c-1.512 2.839-4.445 4.533-7.845 4.533-5.181 0-9.24-4.08-9.24-9.288s4.059-9.288 9.24-9.288c3.468 0 6.423 1.735 7.711 4.527l.056.122 2.019-1.184-.045-.1c-1.627-3.534-5.36-5.73-9.741-5.73-6.691 0-11.736 5.01-11.736 11.653 0 6.643 5.045 11.653 11.736 11.653 4.299 0 8.098-2.175 9.913-5.675l.053-.102-2.06-1.234-.061.113ZM179.949 16.955c.44-4.9 4.104-8.394 9.141-8.394 4.329 0 8.13 3.005 8.614 8.394h-17.755Zm9.141-10.514c-6.757 0-11.443 5.037-11.443 11.53 0 6.67 4.818 11.53 11.619 11.53 4.373 0 7.817-1.988 9.63-4.992l-1.945-1.149c-1.28 2.34-4.016 4.021-7.641 4.021-5.032 0-8.834-3.268-9.361-8.262h20.007c0-.351.044-.708.044-1.06 0-6.048-4.197-11.618-10.91-11.618Z"/></symbol><symbol viewBox="0 0 137 11" id="svg-logo-text" xmlns="http://www.w3.org/2000/svg"><path d="M4.682 7.358c0 .925-.812 1.602-2.019 1.602C1.535 8.96.791 8.43.52 7.708l.486-.282c.203.61.811.993 1.657.993.79 0 1.455-.35 1.455-1.06 0-1.534-3.417-.654-3.417-2.685 0-.89.767-1.601 1.917-1.601.914 0 1.613.44 1.918 1.127l-.474.271c-.237-.586-.824-.857-1.444-.857-.733 0-1.353.383-1.353 1.06 0 1.512 3.417.62 3.417 2.684ZM7.2 3.75v3.665c0 .992.531 1.015 1.681.913v.508c-1.477.226-2.255-.135-2.255-1.42V3.748h-1.24v-.553h1.24v-1.41l.575-.168v1.578h1.68v.553h-1.68ZM12.482 3.118v.541c-.97 0-1.883.598-1.883 2.042v3.135h-.564v-5.64h.564v1.106c.384-.89 1.117-1.184 1.883-1.184ZM18.198 6.017c0-1.343-1.038-2.403-2.38-2.403a2.373 2.373 0 0 0-2.39 2.403 2.374 2.374 0 0 0 2.39 2.402c1.342 0 2.38-1.06 2.38-2.402Zm.575-2.82v5.64h-.575V7.56c-.474.846-1.342 1.399-2.425 1.399a2.912 2.912 0 0 1-2.921-2.943c0-1.67 1.32-2.945 2.921-2.945 1.083 0 1.95.553 2.425 1.4V3.195h.575ZM21.643 3.75v3.665c0 .992.53 1.015 1.68.913v.508c-1.477.226-2.255-.135-2.255-1.42V3.748h-1.241v-.553h1.24v-1.41l.576-.168v1.578h1.68v.553h-1.68ZM24.46 5.757h4.534c-.125-1.376-1.094-2.143-2.2-2.143-1.285 0-2.221.891-2.334 2.143Zm5.12.282c0 .09-.011.18-.011.27h-5.11c.136 1.275 1.106 2.11 2.392 2.11.925 0 1.624-.429 1.951-1.027l.496.293c-.462.767-1.342 1.275-2.458 1.275-1.737 0-2.967-1.24-2.967-2.943 0-1.659 1.196-2.945 2.921-2.945 1.715 0 2.786 1.422 2.786 2.967ZM35.9 6.017a2.373 2.373 0 0 0-2.39-2.403 2.373 2.373 0 0 0-2.391 2.403 2.374 2.374 0 0 0 2.39 2.402 2.374 2.374 0 0 0 2.392-2.402Zm.565-2.82v5.368c0 1.692-1.252 2.65-2.809 2.65-1.32 0-2.255-.53-2.662-1.352l.497-.282c.293.597.925 1.094 2.165 1.094 1.41 0 2.245-.824 2.245-2.11V7.527c-.463.87-1.33 1.433-2.425 1.433-1.613 0-2.921-1.275-2.921-2.943 0-1.67 1.308-2.945 2.92-2.945 1.095 0 1.963.564 2.426 1.433V3.196h.564ZM38.18 3.196h.563v5.64h-.563v-5.64ZM40.055 6.017c0-1.67 1.264-2.945 2.967-2.945 1.105 0 2.052.564 2.459 1.444l-.463.271c-.327-.71-1.094-1.173-1.996-1.173-1.365 0-2.391 1.06-2.391 2.403 0 1.341 1.026 2.402 2.39 2.402.914 0 1.659-.474 2.03-1.174l.475.282c-.452.87-1.4 1.433-2.504 1.433-1.703 0-2.967-1.275-2.967-2.943ZM54.52 3.196l-2.38 5.64h-.688l-2.392-5.64h.61l2.12 5.053 2.132-5.053h.597ZM55.516 3.196h.564v5.64h-.564v-5.64ZM61.539 7.358c0 .925-.813 1.602-2.02 1.602-1.127 0-1.871-.53-2.142-1.252l.485-.282c.203.61.812.993 1.658.993.79 0 1.455-.35 1.455-1.06 0-1.534-3.418-.654-3.418-2.685 0-.89.767-1.601 1.918-1.601.913 0 1.612.44 1.917 1.127l-.474.271c-.237-.586-.823-.857-1.443-.857-.734 0-1.354.383-1.354 1.06 0 1.512 3.418.62 3.418 2.684ZM62.837 3.196h.564v5.64h-.564v-5.64ZM70.059 6.017c0-1.343-1.038-2.403-2.38-2.403a2.373 2.373 0 0 0-2.39 2.403 2.374 2.374 0 0 0 2.39 2.402c1.342 0 2.38-1.06 2.38-2.402Zm-5.346 0c0-1.67 1.32-2.945 2.966-2.945 1.636 0 2.955 1.275 2.955 2.945 0 1.668-1.32 2.943-2.955 2.943-1.647 0-2.966-1.275-2.966-2.943ZM76.762 5.329v3.507h-.575V5.33c0-1.038-.598-1.715-1.658-1.715-1.106 0-1.974.722-1.974 2.245v2.977h-.564v-5.64h.564v1.072c.429-.835 1.15-1.196 2.019-1.196 1.342 0 2.188.891 2.188 2.257ZM86.331 6.017c0-1.343-1.038-2.403-2.38-2.403a2.373 2.373 0 0 0-2.39 2.403 2.374 2.374 0 0 0 2.39 2.402c1.342 0 2.38-1.06 2.38-2.402Zm-5.346 0c0-1.67 1.32-2.945 2.966-2.945 1.636 0 2.956 1.275 2.956 2.945 0 1.668-1.32 2.943-2.956 2.943-1.646 0-2.966-1.275-2.966-2.943ZM89.036 2.893v.304h1.68v.552h-1.68v5.087h-.575V3.75h-.97v-.552h.97v-.304c0-1.388.778-2.189 2.255-2.076v.542c-1.15-.091-1.68.439-1.68 1.534ZM99.946 6.017a2.373 2.373 0 0 0-2.391-2.403 2.373 2.373 0 0 0-2.392 2.403 2.374 2.374 0 0 0 2.392 2.402 2.374 2.374 0 0 0 2.39-2.402Zm.564 0c0 1.668-1.309 2.943-2.922 2.943-1.093 0-1.962-.564-2.425-1.433v1.31H94.6V.94h.563v3.564c.463-.869 1.332-1.433 2.425-1.433 1.613 0 2.922 1.275 2.922 2.945ZM106.528 3.196v5.64h-.564V7.764c-.429.835-1.151 1.196-2.019 1.196-1.342 0-2.188-.89-2.188-2.255V3.196h.575v3.509c0 1.037.598 1.714 1.658 1.714 1.105 0 1.974-.722 1.974-2.244V3.196h.564ZM112.01 7.358c0 .925-.812 1.602-2.019 1.602-1.127 0-1.872-.53-2.143-1.252l.485-.282c.204.61.813.993 1.658.993.79 0 1.456-.35 1.456-1.06 0-1.534-3.418-.654-3.418-2.685 0-.89.767-1.601 1.917-1.601.914 0 1.613.44 1.918 1.127l-.474.271c-.237-.586-.823-.857-1.444-.857-.733 0-1.353.383-1.353 1.06 0 1.512 3.417.62 3.417 2.684ZM113.309 3.196h.564v5.64h-.564v-5.64ZM120.339 5.329v3.507h-.575V5.33c0-1.038-.598-1.715-1.658-1.715-1.105 0-1.974.722-1.974 2.245v2.977h-.564v-5.64h.564v1.072c.429-.835 1.151-1.196 2.019-1.196 1.342 0 2.188.891 2.188 2.257ZM122.183 5.757h4.534c-.124-1.376-1.094-2.143-2.199-2.143-1.286 0-2.222.891-2.335 2.143Zm5.121.282c0 .09-.012.18-.012.27h-5.109c.135 1.275 1.106 2.11 2.391 2.11.925 0 1.624-.429 1.951-1.027l.497.293c-.463.767-1.342 1.275-2.459 1.275-1.737 0-2.966-1.24-2.966-2.943 0-1.659 1.195-2.945 2.921-2.945 1.714 0 2.786 1.422 2.786 2.967ZM132.338 7.358c0 .925-.812 1.602-2.019 1.602-1.127 0-1.872-.53-2.142-1.252l.485-.282c.203.61.812.993 1.657.993.79 0 1.456-.35 1.456-1.06 0-1.534-3.418-.654-3.418-2.685 0-.89.767-1.601 1.918-1.601.913 0 1.612.44 1.917 1.127l-.474.271c-.237-.586-.823-.857-1.443-.857-.734 0-1.354.383-1.354 1.06 0 1.512 3.417.62 3.417 2.684ZM137.48 7.358c0 .925-.812 1.602-2.019 1.602-1.128 0-1.872-.53-2.143-1.252l.485-.282c.203.61.812.993 1.658.993.79 0 1.455-.35 1.455-1.06 0-1.534-3.418-.654-3.418-2.685 0-.89.768-1.601 1.918-1.601.913 0 1.612.44 1.917 1.127l-.474.271c-.237-.586-.823-.857-1.443-.857-.734 0-1.354.383-1.354 1.06 0 1.512 3.418.62 3.418 2.684Z"/></symbol><symbol viewBox="0 0 1537 287" id="svg-main-logo" xmlns="http://www.w3.org/2000/svg"><path d="M1 217.578h14.982V50.293H1v167.285ZM80.481 78.273l-1.867 3.247V49.355H61.753v169.159h16.861v-89.336c0-20.666 5.653-37.533 15.969-49.248 10.328-11.73 25.24-18.19 43.532-18.19 15.546 0 28.077 4.794 36.718 13.711 8.638 8.914 13.275 21.828 13.275 37.849v105.214h17.199V113.3c0-20.652-6.489-37.558-17.91-49.295-11.419-11.735-27.856-18.395-47.93-18.395-26.421 0-46.692 11.282-58.986 32.663ZM254.388 211.262c-8.515-7.288-12.759-18.76-12.759-35.343V6.669l18.175-5.333v47.551h50.61v17.401h-50.61v109.631c0 10.792 2.087 18.048 6.881 22.421m-12.297 12.922Zm0 0c7.419 6.351 18.402 9.586 33.485 9.586 6.614 0 14.004-.623 22.194-1.87l.001-7.716v7.715m0 0 .346-.052m0 0v-16.032l-.446.039c-10.067.893-18.893 1.531-26.152 1.076-7.243-.455-13.119-2.007-17.131-5.668M483.668 183.745l-.455.753c-14.861 24.555-42.085 38.697-74.807 38.697-52.318 0-90.226-37.521-90.226-89.258 0-51.753 37.338-89.262 88.835-89.262 55.03 0 84.814 46.236 84.814 89.935 0 1.351-.084 2.716-.171 4.117v.001m-7.99 45.017-16.498-9.711m-.435.795c-10.47 19.079-32.204 30.367-57.992 30.367-37.779 0-66.067-24.205-70.899-60.455m-.15-1.132h153.797m.166-4.864c-.082 1.308-.166 2.651-.166 3.991v.873m-152.692-18.336h-1.123l.13-1.115c4.216-36.292 32.42-61.484 69.209-61.484 35.045 0 60.989 24.696 65.154 61.487m.126 1.112H338.799ZM545.754 68.688l-1.814 2.537V46.546h-22.495v174.778h22.495V124.46c0-21.434 6.919-36.106 17.202-45.41 10.261-9.284 23.756-13.117 36.736-13.117h2.758V44.188h-2.758c-22.93 0-40.644 8.44-52.124 24.5ZM646.167 112.141l-.002-.001c-3.521-2.224-6.184-4.74-7.996-7.699-1.811-2.956-2.738-6.299-2.874-10.128-.019-.213-.017-.433-.016-.584l.001-.092c0-12.368 7.818-21.978 21.191-26.438 5.064-1.764 10.726-2.652 16.815-2.652 3.801 0 7.535.36 11.12 1.073 14.299 2.783 24.94 10.92 29.833 22.977l1.182 2.919 19.139-10.923-1.005-2.262c-6.757-15.206-19.691-26.56-36.457-31.948h-.002c-7.344-2.373-15.352-3.582-23.81-3.582-1.016 0-2.015.005-2.776.073l-.029.003h-.029c-33.587 1.065-57.672 22.525-57.672 50.76 0 7.478 1.493 14.094 4.387 19.656l.004.009c3.345 6.588 8.637 12.026 16.253 16.618 10.961 6.591 24.755 10.161 38.278 13.651l.105.028c11.53 2.977 22.447 5.796 30.474 10.216 4.042 2.226 7.411 4.888 9.769 8.234 2.368 3.361 3.679 7.361 3.679 12.186 0 10.791-5.649 18.113-13.599 22.686-7.904 4.547-18.107 6.404-27.454 6.404-23.617 0-41.45-10.326-47.314-27.931l-1.07-3.21-19.559 11.329.814 2.17c9.24 24.571 34.226 39.386 67.129 39.386 18.823 0 34.725-5.278 45.9-14.252 11.16-8.961 17.648-21.638 17.648-36.582 0-8.924-1.966-16.067-5.313-21.882-3.349-5.819-8.112-10.362-13.78-14.038-11.377-7.378-26.277-11.192-40.449-14.81l-.087-.022c-12.348-3.15-24.231-6.182-32.428-11.342ZM788.836 82.18l-1.843 2.889V48.42h-18.74v238.744h18.74V182.836l1.843 2.884c15.268 23.902 40.509 37.476 70.317 37.476 49.818 0 88.835-39.195 88.835-89.26 0-50.066-39.017-89.26-88.835-89.26-29.816 0-55.053 13.58-70.317 37.504Zm69.266 123.017c-39.869 0-71.109-31.312-71.109-71.261 0-39.948 31.24-71.262 71.109-71.262 39.889 0 71.146 31.313 71.146 71.262 0 39.95-31.257 71.261-71.146 71.261ZM1132.76 85.806v3.683l-1.87-3.177c-15-25.59-41.01-40.231-71.7-40.231-23.37 0-45.27 8.966-61.686 25.248l-.692-.698.692.698c-16.598 16.462-25.744 38.692-25.744 62.607 0 23.917 9.146 46.145 25.744 62.607 16.416 16.282 38.316 25.248 61.686 25.248 30.68 0 56.69-14.628 71.7-40.197l1.87-3.173V218.047h16.25V49.825h-16.25v35.981Zm-72.18 120.795c-40.68 0-72.561-31.927-72.561-72.665 0-40.737 31.881-72.666 72.561-72.666 40.47 0 72.18 31.934 72.18 72.666 0 40.733-31.71 72.665-72.18 72.665ZM1334.61 170.912c-11.83 22.075-34.72 35.221-61.19 35.221-40.39 0-72.05-31.723-72.05-72.197 0-40.474 31.66-72.197 72.05-72.197 26.97 0 50.07 13.44 60.18 35.215l13.8-8.065c-12.34-26.647-40.63-43.28-73.98-43.28-50.91 0-89.25 37.965-89.25 88.327 0 50.36 38.34 88.323 89.25 88.323 32.72 0 61.55-16.475 75.32-42.907l-14.13-8.44ZM1383.81 127.146h-1.1l.1-1.09c3.43-38.07 32.03-65.255 71.29-65.255 33.81 0 63.47 23.43 67.24 65.255l.1 1.09h-137.63Zm71.64 94.178c32.9 0 58.8-14.71 72.67-36.932l-13.19-7.766c-10.25 17.83-31.41 30.443-59.14 30.443-39.18 0-68.86-25.415-72.98-64.227l-.12-1.105h153.99c.02-1.046.09-2.088.15-3.11v-.016c.09-1.363.17-2.689.17-4.001 0-45.936-31.94-88.062-82.9-88.062-51.38 0-86.99 38.143-86.99 87.387 0 50.566 36.59 87.389 88.34 87.389Z"/></symbol><symbol viewBox="0 0 200 31" id="svg-main-theme" xmlns="http://www.w3.org/2000/svg"><path d="m100.118 23.226 1.333-7.94a2.715 2.715 0 0 1 1.631-2.048c33.005.155 65.773 6.22 96.918 17.261-27.387-12.025-57.231-18.76-87.134-20.073a283.98 283.98 0 0 0-9.482-.23 2.714 2.714 0 0 1-1.933-2.157L100.118.1c-.023-.132-.213-.132-.236 0L98.55 8.04a2.713 2.713 0 0 1-2.048 2.185C63.522 10.76 29.927 17.09 0 30.5c31.005-11.288 64.055-16.714 97.003-17.225a2.713 2.713 0 0 1 1.546 2.012l1.333 7.94c.023.133.213.133.236 0Z"/></symbol><symbol fill="none" viewBox="0 0 170 56" id="svg-novikov" xmlns="http://www.w3.org/2000/svg"><path fill-rule="evenodd" clip-rule="evenodd" d="M63.294 14.59 58.986 1.7h-4.807l6.466 18.94.038.112h5.135l6.597-18.834.076-.218h-4.835l-4.362 12.89ZM82.43 20.752h4.675V1.7H82.43v19.052ZM139.374 11.304c0 .77-.096 1.527-.285 2.254a5.915 5.915 0 0 1-.902 1.952 4.538 4.538 0 0 1-1.602 1.379c-.655.344-1.467.518-2.413.518-.946 0-1.758-.174-2.412-.518a4.522 4.522 0 0 1-1.603-1.38 5.89 5.89 0 0 1-.902-1.951 8.94 8.94 0 0 1-.285-2.254c0-.804.096-1.594.286-2.346a6.003 6.003 0 0 1 .902-2.005 4.465 4.465 0 0 1 1.602-1.39c.655-.344 1.466-.52 2.412-.52s1.757.176 2.413.52a4.482 4.482 0 0 1 1.601 1.39c.411.584.715 1.259.902 2.005.19.753.286 1.543.286 2.346Zm2.059-7.139c-.842-.904-1.885-1.623-3.101-2.137-1.215-.514-2.614-.774-4.16-.774-1.528 0-2.923.26-4.146.774-1.225.514-2.273 1.233-3.115 2.137a9.452 9.452 0 0 0-1.943 3.189c-.447 1.21-.674 2.539-.674 3.95 0 1.378.227 2.68.674 3.873a9.23 9.23 0 0 0 1.944 3.137c.842.886 1.89 1.592 3.115 2.097 1.223.505 2.617.76 4.145.76 1.546 0 2.945-.255 4.159-.76 1.216-.505 2.259-1.211 3.101-2.097a9.233 9.233 0 0 0 1.944-3.137c.447-1.193.674-2.496.674-3.873 0-1.41-.227-2.74-.674-3.95a9.455 9.455 0 0 0-1.943-3.189ZM117.178 1.7h-5.903l-7.484 7.525V1.7h-4.677v19.052h4.677v-6.126l2.299-2.204 5.887 8.33h5.867l-8.576-11.475 7.91-7.577ZM165.154 1.7l-4.362 12.89-4.308-12.89h-4.806l6.465 18.94.039.112h5.134l6.597-18.834.076-.218h-4.835ZM41.876 11.304a8.94 8.94 0 0 1-.285 2.254 5.918 5.918 0 0 1-.902 1.952 4.533 4.533 0 0 1-1.602 1.379c-.655.344-1.467.518-2.413.518-.946 0-1.758-.174-2.413-.518a4.526 4.526 0 0 1-1.602-1.38 5.91 5.91 0 0 1-.902-1.951 8.945 8.945 0 0 1-.285-2.254c0-.803.096-1.593.285-2.346a6.03 6.03 0 0 1 .903-2.005 4.48 4.48 0 0 1 1.601-1.39c.655-.344 1.467-.52 2.413-.52.946 0 1.757.176 2.413.52a4.482 4.482 0 0 1 1.601 1.39 6.03 6.03 0 0 1 .903 2.005c.19.753.285 1.543.285 2.346Zm2.059-7.139c-.842-.904-1.885-1.623-3.1-2.137s-2.615-.774-4.16-.774c-1.529 0-2.924.26-4.147.774-1.225.514-2.273 1.233-3.115 2.137a9.462 9.462 0 0 0-1.943 3.189c-.447 1.21-.674 2.539-.674 3.95 0 1.378.227 2.68.674 3.873a9.223 9.223 0 0 0 1.944 3.137c.842.886 1.89 1.592 3.115 2.097 1.223.505 2.617.76 4.145.76 1.546 0 2.945-.255 4.16-.76 1.215-.505 2.258-1.211 3.1-2.097a9.234 9.234 0 0 0 1.944-3.137c.447-1.193.674-2.496.674-3.873 0-1.41-.227-2.74-.673-3.95a9.468 9.468 0 0 0-1.944-3.189ZM12.983 13.637 4.937 1.7H.365v19.052h4.4V8.842l8.018 11.91h4.6V1.7h-4.4v11.937ZM119.666 53.612v-9.075h.873v8.337h5.139v.738h-6.012ZM89.079 49.075c0 1.093.274 2.004.822 2.732.617.839 1.494 1.258 2.633 1.258 1.13 0 2.008-.419 2.633-1.258.54-.728.81-1.64.81-2.732 0-1.093-.27-2.008-.81-2.745-.625-.83-1.502-1.246-2.633-1.246-1.139 0-2.017.415-2.633 1.246-.548.737-.822 1.652-.822 2.745Zm-.874 0c0-1.322.36-2.42 1.08-3.292.787-.957 1.87-1.436 3.25-1.436 1.37 0 2.448.479 3.236 1.436.72.873 1.08 1.97 1.08 3.292 0 1.321-.36 2.419-1.08 3.292-.788.957-1.867 1.436-3.237 1.436-1.379 0-2.462-.479-3.25-1.436-.72-.873-1.079-1.97-1.079-3.292ZM104.574 49.075c0 1.093.274 2.004.823 2.732.616.839 1.494 1.258 2.633 1.258 1.13 0 2.008-.419 2.633-1.258.54-.728.809-1.64.809-2.732 0-1.093-.269-2.008-.809-2.745-.625-.83-1.503-1.246-2.633-1.246-1.139 0-2.017.415-2.633 1.246-.549.737-.823 1.652-.823 2.745Zm-.873 0c0-1.322.359-2.42 1.079-3.292.788-.957 1.871-1.436 3.25-1.436 1.37 0 2.449.479 3.237 1.436.719.873 1.079 1.97 1.079 3.292 0 1.321-.36 2.419-1.079 3.292-.788.957-1.867 1.436-3.237 1.436-1.379 0-2.462-.479-3.25-1.436-.72-.873-1.079-1.97-1.079-3.292ZM73.692 53.612v-9.075h.874v3.94h5.447v-3.94h.873v9.075h-.873v-4.398h-5.447v4.398h-.874ZM66.328 47.283h-.874c-.154-.687-.49-1.225-1.008-1.614-.518-.39-1.12-.585-1.805-.585-1.139 0-2.017.415-2.633 1.245-.549.738-.822 1.653-.822 2.746s.273 2.004.822 2.732c.616.839 1.494 1.258 2.633 1.258.823 0 1.503-.283 2.043-.851.513-.534.813-1.22.899-2.06h.873c-.12 1.12-.52 2.007-1.2 2.664-.681.656-1.553.985-2.615.985-1.379 0-2.462-.479-3.25-1.436-.72-.873-1.079-1.97-1.079-3.292 0-1.322.36-2.42 1.08-3.292.787-.957 1.87-1.436 3.249-1.436.916 0 1.717.25 2.402.75.745.55 1.174 1.28 1.285 2.186ZM44.358 50.625h.873c-.034 1.627.964 2.44 2.994 2.44.582 0 1.108-.144 1.58-.432.565-.339.847-.809.847-1.41 0-.788-.63-1.335-1.888-1.64l-2.043-.496c-1.378-.33-2.068-1.059-2.068-2.186 0-.61.206-1.148.617-1.614.556-.627 1.404-.94 2.543-.94.96 0 1.752.237 2.377.712.685.516 1.023 1.22 1.015 2.11h-.874c-.026-.662-.287-1.183-.784-1.564-.462-.347-1.036-.521-1.72-.521-.669 0-1.2.131-1.594.394-.47.313-.706.783-.706 1.41 0 .695.462 1.157 1.387 1.386l2.235.546c1.585.39 2.377 1.186 2.377 2.39 0 .584-.18 1.092-.54 1.525-.582.712-1.571 1.067-2.967 1.067-1.148 0-2.043-.254-2.685-.762-.702-.55-1.028-1.356-.976-2.415Z" fill="#1A1A1A"/><path fill-rule="evenodd" clip-rule="evenodd" d="M0 32.712h169.937v-2.3H0v2.3Z" fill="#C42A2A"/></symbol><symbol fill="none" viewBox="0 0 24 24" id="svg-tg" xmlns="http://www.w3.org/2000/svg"><g clip-path="url(#oa)"><path fill-rule="evenodd" clip-rule="evenodd" d="M19.777 4.43a1.5 1.5 0 0 1 2.062 1.626l-2.268 13.757c-.22 1.327-1.676 2.088-2.893 1.427-1.018-.553-2.53-1.405-3.89-2.294-.68-.445-2.763-1.87-2.507-2.884.22-.867 3.72-4.125 5.72-6.062.785-.761.427-1.2-.5-.5-2.303 1.738-5.998 4.381-7.22 5.125-1.078.656-1.64.768-2.312.656-1.226-.204-2.363-.52-3.291-.905-1.254-.52-1.193-2.244-.001-2.746l17.1-7.2Z" fill="#fff"/></g><defs><clipPath id="oa"><path fill="#fff" d="M0 0h24v24H0z"/></clipPath></defs></symbol><symbol fill="none" viewBox="0 0 24 24" id="svg-whtsapp" xmlns="http://www.w3.org/2000/svg"><path d="m2.004 22 1.352-4.968A9.954 9.954 0 0 1 2 12C2 6.477 6.477 2 12 2s10 4.477 10 10-4.477 10-10 10a9.953 9.953 0 0 1-5.03-1.355L2.004 22ZM8.391 7.308a.961.961 0 0 0-.371.1 1.293 1.293 0 0 0-.294.228c-.12.113-.188.211-.261.306A2.729 2.729 0 0 0 6.9 9.62c.002.49.13.967.33 1.413.409.902 1.082 1.857 1.971 2.742.214.213.423.427.648.626a9.448 9.448 0 0 0 3.84 2.046l.569.087c.185.01.37-.004.556-.013a1.99 1.99 0 0 0 .833-.231c.131-.067.259-.14.383-.22 0 0 .043-.028.125-.09.135-.1.218-.171.33-.288.083-.086.155-.187.21-.302.078-.163.156-.474.188-.733.024-.198.017-.306.014-.373-.004-.107-.093-.218-.19-.265l-.582-.261s-.87-.379-1.401-.621a.498.498 0 0 0-.177-.041.482.482 0 0 0-.378.127v-.002c-.005 0-.072.057-.795.933a.35.35 0 0 1-.368.13 1.413 1.413 0 0 1-.191-.066c-.124-.052-.167-.072-.252-.109l-.005-.002a6.011 6.011 0 0 1-1.57-1c-.126-.11-.243-.23-.363-.346a6.298 6.298 0 0 1-1.02-1.268l-.059-.095a.922.922 0 0 1-.102-.205c-.038-.147.061-.265.061-.265s.243-.266.356-.41a4.38 4.38 0 0 0 .263-.373c.118-.19.155-.385.093-.536-.28-.684-.57-1.365-.868-2.041-.059-.134-.234-.23-.393-.249a4.439 4.439 0 0 0-.162-.016 3.385 3.385 0 0 0-.403.005Z" fill="#fff"/></symbol></svg>